<?xml version="1.0" encoding="UTF-8" standalone="no"?>
<svg
   xmlns:dc="http://purl.org/dc/elements/1.1/"
   xmlns:cc="http://creativecommons.org/ns#"
   xmlns:rdf="http://www.w3.org/1999/02/22-rdf-syntax-ns#"
   xmlns:svg="http://www.w3.org/2000/svg"
   xmlns="http://www.w3.org/2000/svg"
   viewBox="0 0 666.66669 666.66669"
   height="666.66669"
   width="666.66669"
   xml:space="preserve"
   id="svg2"
   version="1.1"><metadata
     id="metadata8"><rdf:RDF><cc:Work
         rdf:about=""><dc:format>image/svg+xml</dc:format><dc:type
           rdf:resource="http://purl.org/dc/dcmitype/StillImage" /></cc:Work></rdf:RDF></metadata><defs
     id="defs6"><clipPath
       id="clipPath18"
       clipPathUnits="userSpaceOnUse"><path
         id="path16"
         d="M 0,500 H 500 V 0 H 0 Z" /></clipPath><clipPath
       id="clipPath30"
       clipPathUnits="userSpaceOnUse"><path
         id="path28"
         d="M 6.59019,470.586 H 485.897 V 22.9457 H 6.59019 Z" /></clipPath><clipPath
       id="clipPath46"
       clipPathUnits="userSpaceOnUse"><path
         id="path44"
         d="M 0,500 H 500 V 0 H 0 Z" /></clipPath><clipPath
       id="clipPath58"
       clipPathUnits="userSpaceOnUse"><path
         id="path56"
         d="M 0,500 H 500 V 0 H 0 Z" /></clipPath><clipPath
       id="clipPath142"
       clipPathUnits="userSpaceOnUse"><path
         id="path140"
         d="M 0,500 H 500 V 0 H 0 Z" /></clipPath><clipPath
       id="clipPath194"
       clipPathUnits="userSpaceOnUse"><path
         id="path192"
         d="M 0,500 H 500 V 0 H 0 Z" /></clipPath><clipPath
       id="clipPath202"
       clipPathUnits="userSpaceOnUse"><path
         id="path200"
         d="m 147.132,360.532 h 191.74 V 207.766 h -191.74 z" /></clipPath><clipPath
       id="clipPath226"
       clipPathUnits="userSpaceOnUse"><path
         id="path224"
         d="M 0,500 H 500 V 0 H 0 Z" /></clipPath></defs><g
     transform="matrix(1.3333333,0,0,-1.3333333,0,666.66667)"
     id="g10"><g
       id="g12"><g
         clip-path="url(#clipPath18)"
         id="g14"><g
           transform="translate(451.6652,383.0415)"
           id="g20"><path
             id="path22"
             style="fill:#5ae4a7;fill-opacity:1;fill-rule:nonzero;stroke:none"
             d="m 0,0 c -1.678,2.794 -3.424,5.537 -5.246,8.216 -24.277,35.672 -64.692,60.094 -103.972,71.154 -17.207,4.853 -34.873,7.391 -52.51,8.04 -115.678,4.203 -158.174,-91.176 -195.444,-115.767 -37.271,-24.592 -94.464,-66.597 -87.287,-154.835 5.445,-67.09 43.611,-131.239 113.316,-160.432 7.677,-3.225 15.745,-6.025 24.191,-8.347 15.712,-4.322 32.741,-7.036 51.089,-7.852 52.7,-2.348 95.49,10.356 137.346,42.345 9.73,7.436 19.408,15.823 32.034,16.742 9.177,0.668 17.879,-2.629 8.286,-11.498 -11.275,-10.425 1.734,-30.929 30.356,-16.683 47.802,23.791 67.467,75.122 76.731,127.318 C 40.261,-137.532 34.749,-57.855 0,0" /></g><g
           id="g24"><g
             id="g26" /><g
             id="g38"><g
               style="opacity:0.69999701"
               id="g36"
               clip-path="url(#clipPath30)"><g
                 id="g34"
                 transform="translate(451.6652,383.0415)"><path
                   id="path32"
                   style="fill:#ffffff;fill-opacity:1;fill-rule:nonzero;stroke:none"
                   d="m 0,0 c -1.678,2.794 -3.424,5.537 -5.246,8.216 -24.277,35.672 -64.692,60.094 -103.972,71.154 -17.207,4.853 -34.873,7.391 -52.51,8.04 -115.678,4.203 -158.174,-91.176 -195.444,-115.767 -37.271,-24.592 -94.464,-66.597 -87.287,-154.835 5.445,-67.09 43.611,-131.239 113.316,-160.432 7.677,-3.225 15.745,-6.025 24.191,-8.347 15.712,-4.322 32.741,-7.036 51.089,-7.852 52.7,-2.348 95.49,10.356 137.346,42.345 9.73,7.436 19.408,15.823 32.034,16.742 9.177,0.668 17.879,-2.629 8.286,-11.498 -11.275,-10.425 1.734,-30.929 30.356,-16.683 47.802,23.791 67.467,75.122 76.731,127.318 C 40.261,-137.532 34.749,-57.855 0,0" /></g></g></g></g></g></g><g
       id="g40"><g
         clip-path="url(#clipPath46)"
         id="g42"><g
           transform="translate(206.1925,39.46)"
           id="g48"><path
             id="path50"
             style="fill:#1a2e35;fill-opacity:1;fill-rule:nonzero;stroke:none"
             d="m 0,0 c -3.701,0 -7.53,0.087 -11.382,0.259 -16.665,0.74 -32.65,3.189 -47.516,7.278 -7.577,2.083 -14.991,4.642 -22.04,7.603 -58.653,24.564 -96.874,78.898 -102.269,145.356 -2.785,34.24 4.791,63.048 23.16,88.074 15.514,21.137 36.193,36.283 56.228,49.502 13.067,8.622 24.731,21.676 38.237,36.789 31.751,35.532 71.268,79.751 143.519,79.751 2.213,0 4.477,-0.042 6.728,-0.123 17.019,-0.626 33.382,-3.124 48.622,-7.422 39.15,-11.024 74.261,-34.861 93.935,-63.768 1.567,-2.305 3.141,-4.771 4.673,-7.321 34.671,-57.728 36.579,-137.15 26.804,-192.228 -9.685,-54.573 -27.594,-89.351 -55.959,-108.2 -0.408,2.484 -1.061,4.533 -1.636,6.001 -5.007,12.792 -17.971,20.428 -34.679,20.428 -1.4,0 -2.829,-0.051 -4.25,-0.155 -19.789,-1.44 -34.156,-12.555 -44.647,-20.671 -0.898,-0.694 -1.793,-1.387 -2.69,-2.073 C 79.474,12.052 44.056,0 0,0" /></g></g></g><g
       id="g52"><g
         clip-path="url(#clipPath58)"
         id="g54"><g
           transform="translate(367.2247,399.1274)"
           id="g60"><path
             id="path62"
             style="fill:#b3b3b3;fill-opacity:1;fill-rule:nonzero;stroke:none"
             d="m 0,0 c 0,-2.592 -2.101,-4.694 -4.693,-4.694 -2.592,0 -4.694,2.102 -4.694,4.694 0,2.592 2.102,4.693 4.694,4.693 C -2.101,4.693 0,2.592 0,0" /></g><g
           transform="translate(445.7667,319.7607)"
           id="g64"><path
             id="path66"
             style="fill:#b3b3b3;fill-opacity:1;fill-rule:nonzero;stroke:none"
             d="m 0,0 c 0,-2.592 -2.102,-4.693 -4.693,-4.693 -2.592,0 -4.694,2.101 -4.694,4.693 0,2.592 2.102,4.694 4.694,4.694 C -2.102,4.694 0,2.592 0,0" /></g><g
           transform="translate(121.4796,97.4004)"
           id="g68"><path
             id="path70"
             style="fill:#b3b3b3;fill-opacity:1;fill-rule:nonzero;stroke:none"
             d="m 0,0 c 0,-2.592 -2.102,-4.693 -4.694,-4.693 -2.592,0 -4.693,2.101 -4.693,4.693 0,2.593 2.101,4.693 4.693,4.693 C -2.102,4.693 0,2.593 0,0" /></g><g
           transform="translate(407.17,101.4746)"
           id="g72"><path
             id="path74"
             style="fill:#b3b3b3;fill-opacity:1;fill-rule:nonzero;stroke:none"
             d="m 0,0 c 0,-2.592 -2.102,-4.693 -4.694,-4.693 -2.592,0 -4.694,2.101 -4.694,4.693 0,2.593 2.102,4.693 4.694,4.693 C -2.102,4.693 0,2.593 0,0" /></g><g
           transform="translate(248.4879,439.9824)"
           id="g76"><path
             id="path78"
             style="fill:#b3b3b3;fill-opacity:1;fill-rule:nonzero;stroke:none"
             d="m 0,0 c 0,-1.48 -1.2,-2.68 -2.679,-2.68 -1.48,0 -2.679,1.2 -2.679,2.68 0,1.479 1.199,2.679 2.679,2.679 C -1.2,2.679 0,1.479 0,0" /></g><g
           transform="translate(66.6959,278.1729)"
           id="g80"><path
             id="path82"
             style="fill:#b3b3b3;fill-opacity:1;fill-rule:nonzero;stroke:none"
             d="m 0,0 c 0,-2.592 -2.101,-4.693 -4.693,-4.693 -2.593,0 -4.694,2.101 -4.694,4.693 0,2.592 2.101,4.694 4.694,4.694 C -2.101,4.694 0,2.592 0,0" /></g><g
           transform="translate(402.5675,395.6323)"
           id="g84"><path
             id="path86"
             style="fill:#b3b3b3;fill-opacity:1;fill-rule:nonzero;stroke:none"
             d="m 0,0 c 0,-1.286 -1.042,-2.328 -2.327,-2.328 -1.286,0 -2.328,1.042 -2.328,2.328 0,1.286 1.042,2.328 2.328,2.328 C -1.042,2.328 0,1.286 0,0" /></g><g
           transform="translate(89.2726,128.7383)"
           id="g88"><path
             id="path90"
             style="fill:#5ae4a7;fill-opacity:1;fill-rule:nonzero;stroke:none"
             d="m 0,0 c 0,-1.286 -1.042,-2.328 -2.328,-2.328 -1.286,0 -2.328,1.042 -2.328,2.328 0,1.285 1.042,2.328 2.328,2.328 C -1.042,2.328 0,1.285 0,0" /></g><g
           transform="translate(432.9347,147.9238)"
           id="g92"><path
             id="path94"
             style="fill:#5ae4a7;fill-opacity:1;fill-rule:nonzero;stroke:none"
             d="m 0,0 c 0,-1.285 -1.043,-2.328 -2.328,-2.328 -1.286,0 -2.328,1.043 -2.328,2.328 0,1.286 1.042,2.328 2.328,2.328 C -1.043,2.328 0,1.286 0,0" /></g><g
           transform="translate(216.2477,83.6758)"
           id="g96"><path
             id="path98"
             style="fill:#5ae4a7;fill-opacity:1;fill-rule:nonzero;stroke:none"
             d="m 0,0 c 0,-1.286 -1.042,-2.328 -2.329,-2.328 -1.285,0 -2.328,1.042 -2.328,2.328 0,1.285 1.043,2.328 2.328,2.328 C -1.042,2.328 0,1.285 0,0" /></g><g
           transform="translate(96.9469,165.8311)"
           id="g100"><path
             id="path102"
             style="fill:#b3b3b3;fill-opacity:1;fill-rule:nonzero;stroke:none"
             d="m 0,0 c 0,-1.286 -1.042,-2.328 -2.328,-2.328 -1.286,0 -2.328,1.042 -2.328,2.328 0,1.286 1.042,2.328 2.328,2.328 C -1.042,2.328 0,1.286 0,0" /></g><g
           transform="translate(193.3624,54.2246)"
           id="g104"><path
             id="path106"
             style="fill:#b3b3b3;fill-opacity:1;fill-rule:nonzero;stroke:none"
             d="m 0,0 c 0,-1.286 -1.042,-2.328 -2.328,-2.328 -1.286,0 -2.328,1.042 -2.328,2.328 0,1.285 1.042,2.328 2.328,2.328 C -1.042,2.328 0,1.285 0,0" /></g><g
           transform="translate(327.4113,429.3208)"
           id="g108"><path
             id="path110"
             style="fill:#5ae4a7;fill-opacity:1;fill-rule:nonzero;stroke:none"
             d="m 0,0 c 0,-1.286 -1.043,-2.328 -2.329,-2.328 -1.285,0 -2.328,1.042 -2.328,2.328 0,1.286 1.043,2.328 2.328,2.328 C -1.043,2.328 0,1.286 0,0" /></g><g
           transform="translate(331.4279,174.7842)"
           id="g112"><path
             id="path114"
             style="fill:#b3b3b3;fill-opacity:1;fill-rule:nonzero;stroke:none"
             d="m 0,0 c 0,-1.285 -1.043,-2.328 -2.328,-2.328 -1.286,0 -2.328,1.043 -2.328,2.328 0,1.286 1.042,2.328 2.328,2.328 C -1.043,2.328 0,1.286 0,0" /></g><g
           transform="translate(438.3156,265.2744)"
           id="g116"><path
             id="path118"
             style="fill:#b3b3b3;fill-opacity:1;fill-rule:nonzero;stroke:none"
             d="m 0,0 c 0,-1.286 -1.042,-2.328 -2.328,-2.328 -1.285,0 -2.328,1.042 -2.328,2.328 0,1.286 1.043,2.328 2.328,2.328 C -1.042,2.328 0,1.286 0,0" /></g><g
           transform="translate(59.6579,176.0625)"
           id="g120"><path
             id="path122"
             style="fill:#5ae4a7;fill-opacity:1;fill-rule:nonzero;stroke:none"
             d="m 0,0 c 0,-1.286 -1.042,-2.328 -2.328,-2.328 -1.286,0 -2.328,1.042 -2.328,2.328 0,1.286 1.042,2.328 2.328,2.328 C -1.042,2.328 0,1.286 0,0" /></g><g
           transform="translate(267.0641,70.54)"
           id="g124"><path
             id="path126"
             style="fill:#b3b3b3;fill-opacity:1;fill-rule:nonzero;stroke:none"
             d="m 0,0 c 0,-1.286 -1.042,-2.328 -2.328,-2.328 -1.286,0 -2.328,1.042 -2.328,2.328 0,1.286 1.042,2.328 2.328,2.328 C -1.042,2.328 0,1.286 0,0" /></g><g
           transform="translate(182.6452,161.3545)"
           id="g128"><path
             id="path130"
             style="fill:#5ae4a7;fill-opacity:1;fill-rule:nonzero;stroke:none"
             d="m 0,0 c 0,-1.286 -1.042,-2.328 -2.328,-2.328 -1.286,0 -2.328,1.042 -2.328,2.328 0,1.285 1.042,2.328 2.328,2.328 C -1.042,2.328 0,1.285 0,0" /></g><g
           transform="translate(335.4943,349.3784)"
           id="g132"><path
             id="path134"
             style="fill:#5ae4a7;fill-opacity:1;fill-rule:nonzero;stroke:none"
             d="m 0,0 c 0,-1.286 -1.042,-2.328 -2.328,-2.328 -1.285,0 -2.328,1.042 -2.328,2.328 0,1.286 1.043,2.328 2.328,2.328 C -1.042,2.328 0,1.286 0,0" /></g></g></g><g
       id="g136"><g
         clip-path="url(#clipPath142)"
         id="g138"><g
           transform="translate(346.6603,237.3047)"
           id="g144"><path
             id="path146"
             style="fill:#5ae4a7;fill-opacity:1;fill-rule:nonzero;stroke:none"
             d="m 0,0 h 31.065 v 86.781 z m 31.065,-76.181 v 49.063 H -28.599 V 1.973 L 23.424,123.516 H 63.113 V 0 H 83.575 V -27.118 H 63.113 v -49.063 z m -133.378,26.38 c 5.093,0 8.876,1.56 11.341,4.685 2.465,3.12 4.106,6.903 4.93,11.341 0.821,4.437 1.233,8.791 1.233,13.066 v 87.521 c 0,4.601 -0.37,9.161 -1.109,13.683 -0.74,4.518 -2.342,8.34 -4.808,11.464 -2.465,3.121 -6.328,4.685 -11.587,4.685 -5.262,0 -9.122,-1.564 -11.586,-4.685 -2.466,-3.124 -4.068,-6.946 -4.808,-11.464 -0.74,-4.522 -1.109,-9.082 -1.109,-13.683 v -87.521 c 0,-4.275 0.449,-8.629 1.356,-13.066 0.9,-4.438 2.588,-8.221 5.053,-11.341 2.466,-3.125 6.163,-4.685 11.094,-4.685 m 0,-29.338 c -11.671,0 -21.326,2.466 -28.968,7.396 -7.642,4.93 -13.398,11.75 -17.258,20.463 -3.863,8.711 -5.793,18.737 -5.793,30.078 v 88.507 c 0,11.669 1.849,21.901 5.547,30.694 3.698,8.791 9.368,15.656 17.011,20.586 7.642,4.931 17.462,7.396 29.461,7.396 11.996,0 21.82,-2.465 29.462,-7.396 7.642,-4.93 13.313,-11.795 17.011,-20.586 3.698,-8.793 5.547,-19.025 5.547,-30.694 v -88.507 c 0,-11.341 -1.934,-21.367 -5.793,-30.078 -3.864,-8.713 -9.616,-15.533 -17.258,-20.463 -7.642,-4.93 -17.301,-7.396 -28.969,-7.396 M -255.906,0 h 31.065 v 86.781 z m 31.065,-76.181 v 49.063 h -59.663 V 1.973 l 52.019,121.543 h 39.693 V 0 h 20.463 v -27.118 h -20.463 v -49.063 z" /></g><g
           transform="translate(346.6603,237.3047)"
           id="g148"><path
             id="path150"
             style="fill:none;stroke:#1a2e35;stroke-width:1;stroke-linecap:butt;stroke-linejoin:miter;stroke-miterlimit:10;stroke-dasharray:none;stroke-opacity:1"
             d="m 0,0 h 31.065 v 86.781 z m 31.065,-76.181 v 49.063 H -28.599 V 1.973 L 23.424,123.516 H 63.113 V 0 H 83.575 V -27.118 H 63.113 v -49.063 z m -133.378,26.38 c 5.093,0 8.876,1.56 11.341,4.685 2.465,3.12 4.106,6.903 4.93,11.341 0.821,4.437 1.233,8.791 1.233,13.066 v 87.521 c 0,4.601 -0.37,9.161 -1.109,13.683 -0.74,4.518 -2.342,8.34 -4.808,11.464 -2.465,3.121 -6.328,4.685 -11.587,4.685 -5.262,0 -9.122,-1.564 -11.586,-4.685 -2.466,-3.124 -4.068,-6.946 -4.808,-11.464 -0.74,-4.522 -1.109,-9.082 -1.109,-13.683 v -87.521 c 0,-4.275 0.449,-8.629 1.356,-13.066 0.9,-4.438 2.588,-8.221 5.053,-11.341 2.466,-3.125 6.163,-4.685 11.094,-4.685 z m 0,-29.338 c -11.671,0 -21.326,2.466 -28.968,7.396 -7.642,4.93 -13.398,11.75 -17.258,20.463 -3.863,8.711 -5.793,18.737 -5.793,30.078 v 88.507 c 0,11.669 1.849,21.901 5.547,30.694 3.698,8.791 9.368,15.656 17.011,20.586 7.642,4.931 17.462,7.396 29.461,7.396 11.996,0 21.82,-2.465 29.462,-7.396 7.642,-4.93 13.313,-11.795 17.011,-20.586 3.698,-8.793 5.547,-19.025 5.547,-30.694 v -88.507 c 0,-11.341 -1.934,-21.367 -5.793,-30.078 -3.864,-8.713 -9.616,-15.533 -17.258,-20.463 -7.642,-4.93 -17.301,-7.396 -28.969,-7.396 z M -255.906,0 h 31.065 v 86.781 z m 31.065,-76.181 v 49.063 h -59.663 V 1.973 l 52.019,121.543 h 39.693 V 0 h 20.463 v -27.118 h -20.463 v -49.063 z" /></g><g
           transform="translate(137.6598,106.3027)"
           id="g152"><path
             id="path154"
             style="fill:#b3b3b3;fill-opacity:1;fill-rule:nonzero;stroke:none"
             d="M 0,0 V 40.006 H 14.472 V 37.092 H 3.803 V 22.078 h 8.693 V 19.312 H 3.803 V 2.815 H 14.571 V 0 Z" /></g><g
           transform="translate(161.1203,128.7256)"
           id="g156"><path
             id="path158"
             style="fill:#b3b3b3;fill-opacity:1;fill-rule:nonzero;stroke:none"
             d="m 0,0 h 5.087 c 1.68,0 2.98,0.279 3.902,0.84 0.922,0.559 1.581,1.384 1.976,2.47 0.395,1.086 0.592,2.453 0.592,4.099 0,2.47 -0.428,4.314 -1.284,5.531 -0.856,1.219 -2.552,1.829 -5.087,1.829 l -5.186,0 z m -3.754,-22.423 v 40.006 h 9.039 c 2.502,0 4.47,-0.403 5.902,-1.209 1.433,-0.808 2.461,-1.976 3.087,-3.508 0.625,-1.53 0.938,-3.349 0.938,-5.457 0,-1.481 -0.165,-2.882 -0.493,-4.198 C 14.389,1.894 13.829,0.774 13.04,-0.147 12.249,-1.069 11.129,-1.68 9.681,-1.975 l 6.124,-20.448 H 12.15 L 6.272,-2.766 H 0 v -19.657 z" /></g><g
           transform="translate(186.4083,128.7256)"
           id="g160"><path
             id="path162"
             style="fill:#b3b3b3;fill-opacity:1;fill-rule:nonzero;stroke:none"
             d="m 0,0 h 5.087 c 1.68,0 2.98,0.279 3.902,0.84 0.922,0.559 1.581,1.384 1.976,2.47 0.395,1.086 0.592,2.453 0.592,4.099 0,2.47 -0.428,4.314 -1.284,5.531 -0.856,1.219 -2.552,1.829 -5.087,1.829 l -5.186,0 z m -3.754,-22.423 v 40.006 h 9.039 c 2.502,0 4.47,-0.403 5.902,-1.209 1.432,-0.808 2.461,-1.976 3.087,-3.508 0.625,-1.53 0.938,-3.349 0.938,-5.457 0,-1.481 -0.165,-2.882 -0.493,-4.198 -0.33,-1.317 -0.89,-2.437 -1.68,-3.358 -0.79,-0.922 -1.91,-1.533 -3.358,-1.828 l 6.124,-20.448 H 12.15 L 6.272,-2.766 H 0 v -19.657 z" /></g><g
           transform="translate(217.3756,108.8213)"
           id="g164"><path
             id="path166"
             style="fill:#b3b3b3;fill-opacity:1;fill-rule:nonzero;stroke:none"
             d="M 0,0 C 1.778,0 3.128,0.354 4.05,1.062 4.972,1.771 5.606,2.758 5.952,4.025 6.297,5.293 6.47,6.767 6.47,8.446 v 18.126 c 0,1.68 -0.173,3.145 -0.518,4.397 C 5.606,32.22 4.972,33.183 4.05,33.858 3.128,34.532 1.778,34.87 0,34.87 -1.745,34.87 -3.086,34.532 -4.025,33.858 -4.963,33.183 -5.606,32.22 -5.951,30.969 -6.297,29.717 -6.47,28.252 -6.47,26.572 V 8.446 c 0,-1.679 0.173,-3.153 0.519,-4.421 C -5.606,2.758 -4.963,1.771 -4.025,1.062 -3.086,0.354 -1.745,0 0,0 m 0,-3.013 c -2.635,0 -4.701,0.519 -6.198,1.556 -1.499,1.037 -2.552,2.486 -3.161,4.347 -0.61,1.859 -0.914,3.992 -0.914,6.396 v 16.596 c 0,2.435 0.321,4.551 0.963,6.346 0.642,1.794 1.712,3.185 3.21,4.173 1.498,0.988 3.532,1.482 6.1,1.482 2.601,0 4.65,-0.494 6.149,-1.482 1.498,-0.988 2.56,-2.379 3.186,-4.173 0.625,-1.795 0.938,-3.911 0.938,-6.346 V 9.236 C 10.273,6.832 9.969,4.709 9.36,2.865 8.75,1.021 7.705,-0.42 6.224,-1.457 4.742,-2.494 2.667,-3.013 0,-3.013" /></g><g
           transform="translate(237.6261,128.7256)"
           id="g168"><path
             id="path170"
             style="fill:#b3b3b3;fill-opacity:1;fill-rule:nonzero;stroke:none"
             d="m 0,0 h 5.087 c 1.68,0 2.98,0.279 3.902,0.84 0.921,0.559 1.58,1.384 1.975,2.47 0.396,1.086 0.594,2.453 0.594,4.099 0,2.47 -0.429,4.314 -1.285,5.531 -0.856,1.219 -2.552,1.829 -5.088,1.829 l -5.185,0 z m -3.754,-22.423 v 40.006 h 9.039 c 2.501,0 4.469,-0.403 5.903,-1.209 1.431,-0.808 2.461,-1.976 3.086,-3.508 0.624,-1.53 0.938,-3.349 0.938,-5.457 0,-1.481 -0.165,-2.882 -0.493,-4.198 -0.33,-1.317 -0.889,-2.437 -1.68,-3.358 -0.79,-0.922 -1.91,-1.533 -3.359,-1.828 l 6.126,-20.448 H 12.15 L 6.273,-2.766 H 0 v -19.657 z" /></g><g
           transform="translate(272.9889,128.0352)"
           id="g172"><path
             id="path174"
             style="fill:#b3b3b3;fill-opacity:1;fill-rule:nonzero;stroke:none"
             d="m 0,0 h 4.792 c 1.612,0 2.921,0.238 3.926,0.716 1.004,0.476 1.737,1.275 2.199,2.395 0.46,1.118 0.69,2.634 0.69,4.544 0,2.041 -0.197,3.63 -0.592,4.766 -0.395,1.136 -1.079,1.927 -2.05,2.371 -0.972,0.444 -2.346,0.667 -4.124,0.667 H 0 Z m -3.753,-21.732 v 40.005 h 9.581 c 2.404,0 4.289,-0.444 5.656,-1.333 1.366,-0.888 2.346,-2.124 2.938,-3.705 0.594,-1.579 0.89,-3.44 0.89,-5.58 0,-1.877 -0.305,-3.614 -0.914,-5.211 C 13.789,0.847 12.785,-0.43 11.385,-1.384 9.985,-2.339 8.15,-2.815 5.878,-2.815 H 0 v -18.917 z" /></g><g
           transform="translate(295.1158,119.7373)"
           id="g176"><path
             id="path178"
             style="fill:#b3b3b3;fill-opacity:1;fill-rule:nonzero;stroke:none"
             d="M 0,0 H 8.496 L 4.198,21.583 Z m -6.223,-13.435 8.446,40.006 h 3.951 l 8.495,-40.006 H 10.965 L 8.99,-2.718 h -9.533 l -2.025,-10.717 z" /></g><g
           transform="translate(323.5665,105.7598)"
           id="g180"><path
             id="path182"
             style="fill:#b3b3b3;fill-opacity:1;fill-rule:nonzero;stroke:none"
             d="m 0,0 c -2.503,0 -4.471,0.526 -5.902,1.58 -1.432,1.053 -2.446,2.543 -3.037,4.47 -0.594,1.927 -0.889,4.156 -0.889,6.692 V 28.35 c 0,2.568 0.287,4.791 0.864,6.668 0.575,1.877 1.596,3.334 3.062,4.371 1.465,1.037 3.531,1.555 6.199,1.555 2.402,0 4.304,-0.444 5.704,-1.334 1.398,-0.888 2.412,-2.189 3.038,-3.901 0.625,-1.713 0.939,-3.803 0.939,-6.272 V 28.054 H 6.421 v 1.383 c 0,1.909 -0.173,3.49 -0.519,4.741 -0.346,1.251 -0.946,2.189 -1.802,2.815 -0.858,0.625 -2.124,0.939 -3.803,0.939 -1.812,0 -3.178,-0.396 -4.1,-1.186 -0.923,-0.79 -1.523,-1.877 -1.802,-3.259 -0.281,-1.383 -0.42,-2.965 -0.42,-4.742 V 12.298 c 0,-1.944 0.172,-3.606 0.518,-4.988 0.346,-1.383 0.987,-2.438 1.927,-3.163 0.937,-0.724 2.263,-1.085 3.976,-1.085 1.646,0 2.92,0.371 3.827,1.111 0.905,0.741 1.539,1.803 1.902,3.185 0.361,1.383 0.543,3.063 0.543,5.038 v 4.693 H 0.741 v 2.815 h 9.384 V 0.543 H 7.705 L 7.26,5.087 C 6.767,3.538 5.951,2.304 4.816,1.383 3.68,0.461 2.074,0 0,0" /></g><g
           transform="translate(340.1613,106.3027)"
           id="g184"><path
             id="path186"
             style="fill:#b3b3b3;fill-opacity:1;fill-rule:nonzero;stroke:none"
             d="M 0,0 V 40.006 H 14.471 V 37.092 H 3.803 V 22.078 h 8.693 V 19.312 H 3.803 V 2.815 H 14.57 V 0 Z" /></g></g></g><g
       id="g188"><g
         clip-path="url(#clipPath194)"
         id="g190"><g
           id="g196"><g
             id="g198" /><g
             id="g218"><g
               style="opacity:0.30000299"
               id="g216"
               clip-path="url(#clipPath202)"><g
                 id="g206"
                 transform="translate(320.6954,214.8701)"><path
                   id="path204"
                   style="fill:#000000;fill-opacity:1;fill-rule:nonzero;stroke:none"
                   d="M 0,0 C 0.045,-0.039 0.087,-0.08 0.134,-0.117 0.308,-0.258 0.495,-0.39 0.697,-0.512 0.746,-0.541 0.8,-0.566 0.851,-0.595 1.022,-0.69 1.206,-0.779 1.401,-0.861 1.467,-0.89 1.532,-0.918 1.602,-0.944 1.853,-1.04 2.119,-1.127 2.41,-1.2 2.455,-1.212 2.506,-1.22 2.553,-1.23 2.812,-1.291 3.089,-1.341 3.381,-1.383 3.474,-1.396 3.567,-1.409 3.663,-1.421 4.016,-1.462 4.384,-1.496 4.787,-1.511 h 0.004 c 1.363,-0.051 2.767,0.213 4.128,0.754 0.681,0.271 1.352,0.611 2.001,1.015 0.434,0.269 0.857,0.567 1.268,0.892 0.207,0.162 0.41,0.332 0.609,0.508 0.398,0.353 0.783,0.732 1.151,1.135 3.315,3.635 5.269,9.304 3.65,15.982 -0.404,1.661 -0.834,3.229 -1.288,4.724 -0.763,2.515 -1.595,4.805 -2.502,6.849 -0.242,0.544 -0.488,1.07 -0.74,1.581 -0.601,1.22 -1.235,2.333 -1.895,3.362 -0.443,0.69 -0.895,1.349 -1.363,1.952 -1.168,1.503 -2.416,2.735 -3.747,3.694 -0.332,0.239 -0.668,0.462 -1.011,0.667 -0.084,0.051 -0.177,0.093 -0.266,0.14 L -2.634,24.407 V 5.161 C -1.923,3.186 -1.443,1.405 -0.187,0.182 -0.195,0.183 -0.202,0.184 -0.21,0.185 -0.145,0.12 -0.07,0.062 0,0" /></g><g
                 id="g210"
                 transform="translate(273.7257,313.2046)"><path
                   id="path208"
                   style="fill:#000000;fill-opacity:1;fill-rule:nonzero;stroke:none"
                   d="M 0,0 C 0.066,0.506 0.13,1.005 0.192,1.492 L 0.218,1.485 C 0.143,0.963 0.068,0.462 0,0 m -0.31,-2.496 c -0.01,0.011 -0.019,0.019 -0.029,0.029 0.021,0.142 0.042,0.283 0.062,0.428 -0.019,-0.185 -0.032,-0.348 -0.033,-0.457 m 22.952,-90.671 v 34.292 c -0.982,-0.037 -1.878,-0.079 -2.667,-0.127 0.035,1.075 0.187,8.319 -1.81,16.095 -0.095,6.881 -2.919,13.131 -7.448,17.407 -0.474,6.649 -4.183,14.4 -8.331,19.845 0.104,-0.006 0.205,-0.028 0.311,-0.016 1.662,0.18 2.697,2.254 3.429,5.836 0.1,0.49 0.175,0.952 0.234,1.395 1.311,0.881 2.936,2.187 3.7,3.655 0.408,0.785 0.804,2.083 0.98,3.58 1.325,0.786 3.119,2.074 4.914,4.064 1.28,1.421 2.156,3.398 2.543,5.557 -0.435,1.252 -0.898,2.484 -1.402,3.683 -2.217,5.269 -5.157,9.831 -8.791,13.714 -1.042,0.547 -2.171,1.014 -3.395,1.343 -1.112,0.299 -2.209,0.437 -3.286,0.464 -3.082,0.634 -9.547,1.727 -18.409,1.943 -2.986,0.072 -5.672,0.055 -8.079,-0.091 -2.05,0.878 -4.287,1.269 -6.591,1.018 -1.408,-0.153 -2.739,-0.539 -3.979,-1.104 -3.809,0.997 -7.654,1.259 -10.811,0.916 -0.759,-0.083 -1.509,-0.18 -2.241,-0.286 -0.026,0.378 -0.053,0.756 -0.094,1.135 -0.08,0.733 -0.195,1.452 -0.328,2.164 0.089,1.321 0.097,2.661 0.021,4.013 -3.647,-1.174 -6.967,-2.718 -9.951,-4.642 -7.644,-4.931 -13.314,-11.796 -17.012,-20.587 -3.697,-8.793 -5.546,-19.025 -5.546,-30.694 v -8.781 c 3.577,-4.633 7.901,-9.816 10.751,-11.81 0.211,-0.219 0.419,-0.432 0.625,-0.637 0.198,-3.447 0.801,-11.223 2.302,-13.78 0,0 -1.172,-4.126 0.82,-6.21 -0.606,-4.623 -1.417,-16.196 3.382,-27.591 3.729,-8.855 10.096,-13.633 16.635,-15.154 v 83.47 c 0,4.601 0.37,9.161 1.11,13.683 0.739,4.518 2.342,8.341 4.807,11.465 2.465,3.12 6.325,4.684 11.587,4.684 5.258,0 9.122,-1.564 11.587,-4.684 2.465,-3.124 4.068,-6.947 4.808,-11.465 0.739,-4.522 1.108,-9.082 1.108,-13.683 v -87.521 c 0,-1.473 -0.066,-2.959 -0.164,-4.451 0.054,-0.287 0.113,-0.558 0.182,-0.802 0,0 -0.001,0 -0.002,10e-4 0.002,-0.006 0.004,-0.01 0.005,-0.015 0.086,-0.302 0.186,-0.57 0.295,-0.813 0.022,-0.05 0.047,-0.095 0.07,-0.143 0.094,-0.19 0.195,-0.365 0.304,-0.522 0.029,-0.041 0.057,-0.085 0.086,-0.123 0.138,-0.183 0.285,-0.348 0.446,-0.489 0.005,-0.004 0.011,-0.008 0.016,-0.012 0.156,-0.136 0.324,-0.251 0.502,-0.356 0.044,-0.027 0.09,-0.053 0.136,-0.078 0.161,-0.088 0.329,-0.168 0.506,-0.239 0.032,-0.013 0.061,-0.027 0.094,-0.04 0.212,-0.081 0.437,-0.154 0.672,-0.223 0.051,-0.014 0.105,-0.028 0.157,-0.042 0.197,-0.054 0.402,-0.107 0.615,-0.158 0.075,-0.018 0.154,-0.038 0.231,-0.055 0.241,-0.057 0.489,-0.114 0.748,-0.174 3.623,-0.843 9.801,4.066 11.383,9.007 0.306,0.955 0.547,2.085 0.737,3.281 0.199,0.029 0.399,0.056 0.597,0.091 3.146,-0.636 9.768,-1.572 16.901,-0.203" /></g><g
                 id="g214"
                 transform="translate(153.8683,292.7383)"><path
                   id="path212"
                   style="fill:#000000;fill-opacity:1;fill-rule:nonzero;stroke:none"
                   d="m 0,0 c -1.289,-3.224 -2.429,-6.135 -3.008,-7.762 -1.841,-5.163 -3.772,-10.977 -3.727,-14.335 0.045,-3.358 2.109,-7.617 3.725,-7.762 1.611,-0.143 2.769,0.936 3.01,3.184 z" /></g></g></g></g></g></g><g
       id="g220"><g
         clip-path="url(#clipPath226)"
         id="g222"><g
           transform="translate(269.1339,282.8164)"
           id="g228"><path
             id="path230"
             style="fill:#dfdfdf;fill-opacity:1;fill-rule:nonzero;stroke:none"
             d="m 0,0 c 0,0 0.99,-7.486 0.932,-15.085 -0.057,-7.6 1.726,-7.759 5.349,-8.602 3.624,-0.842 9.801,4.067 11.383,9.007 1.583,4.939 1.431,14.459 1.431,14.459 z" /></g><g
           transform="translate(269.1339,282.8164)"
           id="g232"><path
             id="path234"
             style="fill:none;stroke:#1a2e35;stroke-width:1;stroke-linecap:butt;stroke-linejoin:miter;stroke-miterlimit:10;stroke-dasharray:none;stroke-opacity:1"
             d="m 0,0 c 0,0 0.99,-7.486 0.932,-15.085 -0.057,-7.6 1.726,-7.759 5.349,-8.602 3.624,-0.842 9.801,4.067 11.383,9.007 1.583,4.939 1.431,14.459 1.431,14.459 z" /></g><g
           transform="translate(285.6676,273.6641)"
           id="g236"><path
             id="path238"
             style="fill:#dfdfdf;fill-opacity:1;fill-rule:nonzero;stroke:none"
             d="m 0,0 c -0.163,-3.373 -1.165,-8.779 -6.174,-11.442 -4.245,-2.258 -7.935,-0.268 -8.962,0.39 0.742,-2.64 2.37,-2.898 4.884,-3.482 3.623,-0.843 9.8,4.066 11.382,9.006 1.583,4.94 1.432,14.459 1.432,14.459 L 0.331,8.957 C 0.251,6.457 0.11,2.27 0,0" /></g><g
           transform="translate(285.6676,273.6641)"
           id="g240"><path
             id="path242"
             style="fill:none;stroke:#1a2e35;stroke-width:1;stroke-linecap:butt;stroke-linejoin:miter;stroke-miterlimit:10;stroke-dasharray:none;stroke-opacity:1"
             d="m 0,0 c -0.163,-3.373 -1.165,-8.779 -6.174,-11.442 -4.245,-2.258 -7.935,-0.268 -8.962,0.39 0.742,-2.64 2.37,-2.898 4.884,-3.482 3.623,-0.843 9.8,4.066 11.382,9.006 1.583,4.94 1.432,14.459 1.432,14.459 L 0.331,8.957 C 0.251,6.457 0.11,2.27 0,0 Z" /></g><g
           transform="translate(251.9005,275.647)"
           id="g244"><path
             id="path246"
             style="fill:#dfdfdf;fill-opacity:1;fill-rule:nonzero;stroke:none"
             d="m 0,0 c 0,0 5.991,0.121 14.141,3.125 8.15,3.004 17.297,9.826 15.337,16.5 -1.962,6.674 -12.581,8.522 -16.77,8.067 -4.188,-0.455 -9,-1.684 -9,-1.684 C 3.708,26.008 4.69,7.22 0,0" /></g><g
           transform="translate(251.9005,275.647)"
           id="g248"><path
             id="path250"
             style="fill:none;stroke:#1a2e35;stroke-width:1;stroke-linecap:butt;stroke-linejoin:miter;stroke-miterlimit:10;stroke-dasharray:none;stroke-opacity:1"
             d="m 0,0 c 0,0 5.991,0.121 14.141,3.125 8.15,3.004 17.297,9.826 15.337,16.5 -1.962,6.674 -12.581,8.522 -16.77,8.067 -4.188,-0.455 -9,-1.684 -9,-1.684 C 3.708,26.008 4.69,7.22 0,0 Z" /></g><g
           transform="translate(247.9581,272.9229)"
           id="g252"><path
             id="path254"
             style="fill:#5ae4a7;fill-opacity:1;fill-rule:nonzero;stroke:none"
             d="M 0,0 C 0,0 5.354,1.111 8.602,5.349 11.85,9.587 13.049,16.428 11.315,21.007 9.582,25.587 0,0 0,0" /></g><g
           transform="translate(247.9581,272.9229)"
           id="g256"><path
             id="path258"
             style="fill:none;stroke:#1a2e35;stroke-width:1;stroke-linecap:butt;stroke-linejoin:miter;stroke-miterlimit:10;stroke-dasharray:none;stroke-opacity:1"
             d="M 0,0 C 0,0 5.354,1.111 8.602,5.349 11.85,9.587 13.049,16.428 11.315,21.007 9.582,25.587 0,0 0,0 Z" /></g><g
           transform="translate(215.8253,316.7578)"
           id="g260"><path
             id="path262"
             style="fill:#dfdfdf;fill-opacity:1;fill-rule:nonzero;stroke:none"
             d="m 0,0 c 0,0 -3.139,-14.998 3.048,-29.688 6.188,-14.692 19.634,-18.176 29.085,-14.147 9.451,4.029 11.713,17.342 11.813,26.182 0.099,8.84 -0.163,12.874 -0.163,12.874 0,0 -31.802,-3.102 -43.783,4.779" /></g><g
           transform="translate(215.8253,316.7578)"
           id="g264"><path
             id="path266"
             style="fill:none;stroke:#1a2e35;stroke-width:1;stroke-linecap:butt;stroke-linejoin:miter;stroke-miterlimit:10;stroke-dasharray:none;stroke-opacity:1"
             d="m 0,0 c 0,0 -3.139,-14.998 3.048,-29.688 6.188,-14.692 19.634,-18.176 29.085,-14.147 9.451,4.029 11.713,17.342 11.813,26.182 0.099,8.84 -0.163,12.874 -0.163,12.874 0,0 -31.802,-3.102 -43.783,4.779 z" /></g><g
           transform="translate(214.672,320.8706)"
           id="g268"><path
             id="path270"
             style="fill:#5ae4a7;fill-opacity:1;fill-rule:nonzero;stroke:none"
             d="m 0,0 c 0,0 -1.408,-4.921 1.437,-6.73 2.846,-1.811 17.559,-10.455 35.035,-7.144 9.757,1.85 7.611,4.712 7.44,6.283 C 43.742,-6.02 0,0 0,0" /></g><g
           transform="translate(214.672,320.8706)"
           id="g272"><path
             id="path274"
             style="fill:none;stroke:#1a2e35;stroke-width:1;stroke-linecap:butt;stroke-linejoin:miter;stroke-miterlimit:10;stroke-dasharray:none;stroke-opacity:1"
             d="m 0,0 c 0,0 -1.408,-4.921 1.437,-6.73 2.846,-1.811 17.559,-10.455 35.035,-7.144 9.757,1.85 7.611,4.712 7.44,6.283 C 43.742,-6.02 0,0 0,0 Z" /></g><g
           transform="translate(212.2868,336.3281)"
           id="g276"><path
             id="path278"
             style="fill:#ffffff;fill-opacity:1;fill-rule:nonzero;stroke:none"
             d="m 0,0 c 0,0 0.436,-12.137 2.385,-15.458 1.95,-3.319 27.768,-13.406 40.881,-10.568 13.112,2.837 34.447,14.514 37.046,23.095 2.6,8.582 -4.158,22.086 -10.518,28.58 -6.359,6.494 -9.148,7.781 -9.148,7.781 0,0 -15.58,-20.764 -34.964,-27.638 C 6.298,-1.082 0,0 0,0" /></g><g
           transform="translate(212.2868,336.3281)"
           id="g280"><path
             id="path282"
             style="fill:none;stroke:#1a2e35;stroke-width:1;stroke-linecap:butt;stroke-linejoin:miter;stroke-miterlimit:10;stroke-dasharray:none;stroke-opacity:1"
             d="m 0,0 c 0,0 0.436,-12.137 2.385,-15.458 1.95,-3.319 27.768,-13.406 40.881,-10.568 13.112,2.837 34.447,14.514 37.046,23.095 2.6,8.582 -4.158,22.086 -10.518,28.58 -6.359,6.494 -9.148,7.781 -9.148,7.781 0,0 -15.58,-20.764 -34.964,-27.638 C 6.298,-1.082 0,0 0,0 Z" /></g><g
           transform="translate(315.214,305.6577)"
           id="g284"><path
             id="path286"
             style="fill:#ffffff;fill-opacity:1;fill-rule:nonzero;stroke:none"
             d="m 0,0 c 0,0 13.72,5.375 19.198,2.085 5.479,-3.289 9.667,-10.958 12.546,-22.829 2.879,-11.872 -5.537,-20.556 -12.807,-20.286 -7.269,0.27 -6.016,4.997 -8.835,9.812 -2.819,4.815 -6.301,7.615 -6.533,8.119 C 3.338,-22.594 6.807,-7.384 0,0" /></g><g
           transform="translate(315.214,305.6577)"
           id="g288"><path
             id="path290"
             style="fill:none;stroke:#1a2e35;stroke-width:1;stroke-linecap:butt;stroke-linejoin:miter;stroke-miterlimit:10;stroke-dasharray:none;stroke-opacity:1"
             d="m 0,0 c 0,0 13.72,5.375 19.198,2.085 5.479,-3.289 9.667,-10.958 12.546,-22.829 2.879,-11.872 -5.537,-20.556 -12.807,-20.286 -7.269,0.27 -6.016,4.997 -8.835,9.812 -2.819,4.815 -6.301,7.615 -6.533,8.119 C 3.338,-22.594 6.807,-7.384 0,0 Z" /></g><g
           transform="translate(334.4122,307.7432)"
           id="g292"><path
             id="path294"
             style="fill:#ffffff;fill-opacity:1;fill-rule:nonzero;stroke:none"
             d="m 0,0 c -1.464,0.879 -3.519,1.136 -5.74,1.045 2.774,-2.054 8.261,-7.074 11.847,-16.628 4.97,-13.233 2.723,-20.188 0.177,-22.76 -2.546,-2.573 -7.918,-3.509 -10.244,-3.232 -0.381,0.045 -0.827,0.098 -1.302,0.155 0.996,-0.977 2.491,-1.602 5.001,-1.696 7.27,-0.27 15.686,8.414 12.807,20.286 C 9.667,-10.958 5.479,-3.29 0,0" /></g><g
           transform="translate(334.4122,307.7432)"
           id="g296"><path
             id="path298"
             style="fill:none;stroke:#1a2e35;stroke-width:1;stroke-linecap:butt;stroke-linejoin:miter;stroke-miterlimit:10;stroke-dasharray:none;stroke-opacity:1"
             d="m 0,0 c -1.464,0.879 -3.519,1.136 -5.74,1.045 2.774,-2.054 8.261,-7.074 11.847,-16.628 4.97,-13.233 2.723,-20.188 0.177,-22.76 -2.546,-2.573 -7.918,-3.509 -10.244,-3.232 -0.381,0.045 -0.827,0.098 -1.302,0.155 0.996,-0.977 2.491,-1.602 5.001,-1.696 7.27,-0.27 15.686,8.414 12.807,20.286 C 9.667,-10.958 5.479,-3.29 0,0 Z" /></g><g
           transform="translate(286.2062,271.957)"
           id="g300"><path
             id="path302"
             style="fill:#ffffff;fill-opacity:1;fill-rule:nonzero;stroke:none"
             d="M 0,0 C 0,0 12.941,-3.715 24.954,1.121 36.966,5.958 44.043,13.967 41.392,23.744 38.74,33.522 33.758,33.864 22.823,33.735 11.889,33.607 9.696,32.663 9.696,32.663 9.696,32.663 9.338,5.076 0,0" /></g><g
           transform="translate(286.2062,271.957)"
           id="g304"><path
             id="path306"
             style="fill:none;stroke:#1a2e35;stroke-width:1;stroke-linecap:butt;stroke-linejoin:miter;stroke-miterlimit:10;stroke-dasharray:none;stroke-opacity:1"
             d="M 0,0 C 0,0 12.941,-3.715 24.954,1.121 36.966,5.958 44.043,13.967 41.392,23.744 38.74,33.522 33.758,33.864 22.823,33.735 11.889,33.607 9.696,32.663 9.696,32.663 9.696,32.663 9.338,5.076 0,0 Z" /></g><g
           transform="translate(300.4479,318.7422)"
           id="g308"><path
             id="path310"
             style="fill:#5ae4a7;fill-opacity:1;fill-rule:nonzero;stroke:none"
             d="m 0,0 c -1.244,-13.176 -12.112,-22.926 -24.274,-21.778 -12.163,1.148 -21.014,12.76 -19.77,25.936 1.244,13.176 12.112,22.926 24.274,21.779 C -7.607,24.788 1.244,13.176 0,0" /></g><g
           transform="translate(300.4479,318.7422)"
           id="g312"><path
             id="path314"
             style="fill:none;stroke:#1a2e35;stroke-width:1;stroke-linecap:butt;stroke-linejoin:miter;stroke-miterlimit:10;stroke-dasharray:none;stroke-opacity:1"
             d="m 0,0 c -1.244,-13.176 -12.112,-22.926 -24.274,-21.778 -12.163,1.148 -21.014,12.76 -19.77,25.936 1.244,13.176 12.112,22.926 24.274,21.779 C -7.607,24.788 1.244,13.176 0,0 Z" /></g><g
           transform="translate(305.1378,291.0601)"
           id="g316"><path
             id="path318"
             style="fill:#5ae4a7;fill-opacity:1;fill-rule:nonzero;stroke:none"
             d="m 0,0 c -1.128,-11.952 -10.986,-20.796 -22.019,-19.754 -11.031,1.041 -19.06,11.574 -17.932,23.525 1.129,11.952 10.987,20.796 22.018,19.754 C -6.9,22.484 1.128,11.951 0,0" /></g><g
           transform="translate(305.1378,291.0601)"
           id="g320"><path
             id="path322"
             style="fill:none;stroke:#1a2e35;stroke-width:1;stroke-linecap:butt;stroke-linejoin:miter;stroke-miterlimit:10;stroke-dasharray:none;stroke-opacity:1"
             d="m 0,0 c -1.128,-11.952 -10.986,-20.796 -22.019,-19.754 -11.031,1.041 -19.06,11.574 -17.932,23.525 1.129,11.952 10.987,20.796 22.018,19.754 C -6.9,22.484 1.128,11.951 0,0 Z" /></g><g
           transform="translate(302.36,305.3208)"
           id="g324"><path
             id="path326"
             style="fill:#ffffff;fill-opacity:1;fill-rule:nonzero;stroke:none"
             d="m 0,0 c 0,0 0.9,19.346 -8.554,29.974 -9.454,10.628 -30.937,1.937 -34.504,-13.991 -3.567,-15.927 3.974,-39.83 13.827,-46 9.852,-6.17 18.203,-0.141 23.808,8.414 C 0.181,-13.048 0,0 0,0" /></g><g
           transform="translate(302.36,305.3208)"
           id="g328"><path
             id="path330"
             style="fill:none;stroke:#1a2e35;stroke-width:1;stroke-linecap:butt;stroke-linejoin:miter;stroke-miterlimit:10;stroke-dasharray:none;stroke-opacity:1"
             d="m 0,0 c 0,0 0.9,19.346 -8.554,29.974 -9.454,10.628 -30.937,1.937 -34.504,-13.991 -3.567,-15.927 3.974,-39.83 13.827,-46 9.852,-6.17 18.203,-0.141 23.808,8.414 C 0.181,-13.048 0,0 0,0 Z" /></g><g
           transform="translate(168.8463,359.5146)"
           id="g332"><path
             id="path334"
             style="fill:#dfdfdf;fill-opacity:1;fill-rule:nonzero;stroke:none"
             d="m 0,0 c 0,0 -7.48,-18.105 -9.321,-23.27 -1.841,-5.163 -3.771,-10.977 -3.727,-14.335 0.045,-3.358 2.109,-7.617 3.725,-7.762 1.617,-0.144 2.78,0.943 3.014,3.21 0.234,2.267 0.131,3.217 1.277,4.462 1.146,1.245 4.72,3.715 5.178,3.925 0.458,0.21 0.805,-1.514 -0.272,-3.392 -1.077,-1.879 -3.455,-3.578 -1.965,-5.498 1.489,-1.919 4.448,0.324 6.034,1.937 1.587,1.614 3.211,4.352 3.868,7.145 0.657,2.794 0.337,8.683 0.337,8.683 l 13.216,12.485 c 0,0 -17.522,2.099 -21.364,12.41" /></g><g
           transform="translate(168.8463,359.5146)"
           id="g336"><path
             id="path338"
             style="fill:none;stroke:#1a2e35;stroke-width:1;stroke-linecap:butt;stroke-linejoin:miter;stroke-miterlimit:10;stroke-dasharray:none;stroke-opacity:1"
             d="m 0,0 c 0,0 -7.48,-18.105 -9.321,-23.27 -1.841,-5.163 -3.771,-10.977 -3.727,-14.335 0.045,-3.358 2.109,-7.617 3.725,-7.762 1.617,-0.144 2.78,0.943 3.014,3.21 0.234,2.267 0.131,3.217 1.277,4.462 1.146,1.245 4.72,3.715 5.178,3.925 0.458,0.21 0.805,-1.514 -0.272,-3.392 -1.077,-1.879 -3.455,-3.578 -1.965,-5.498 1.489,-1.919 4.448,0.324 6.034,1.937 1.587,1.614 3.211,4.352 3.868,7.145 0.657,2.794 0.337,8.683 0.337,8.683 l 13.216,12.485 c 0,0 -17.522,2.099 -21.364,12.41 z" /></g><g
           transform="translate(169.673,323.8975)"
           id="g340"><path
             id="path342"
             style="fill:none;stroke:#1a2e35;stroke-width:1;stroke-linecap:butt;stroke-linejoin:miter;stroke-miterlimit:10;stroke-dasharray:none;stroke-opacity:1"
             d="M 0,0 C 0,0 -0.2,-2.584 4.617,-2.701" /></g><g
           transform="translate(156.9513,326.0381)"
           id="g344"><path
             id="path346"
             style="fill:none;stroke:#1a2e35;stroke-width:1;stroke-linecap:butt;stroke-linejoin:miter;stroke-miterlimit:10;stroke-dasharray:none;stroke-opacity:1"
             d="M 0,0 C 0,0 1.341,-4.979 6.863,-4.218" /></g><g
           transform="translate(156.5143,319.0967)"
           id="g348"><path
             id="path350"
             style="fill:none;stroke:#1a2e35;stroke-width:1;stroke-linecap:butt;stroke-linejoin:miter;stroke-miterlimit:10;stroke-dasharray:none;stroke-opacity:1"
             d="M 0,0 C 0,0 3.263,-2.53 5.747,0.212" /></g><g
           transform="translate(163.2941,343.9414)"
           id="g352"><path
             id="path354"
             style="fill:none;stroke:#1a2e35;stroke-width:1;stroke-linecap:butt;stroke-linejoin:miter;stroke-miterlimit:10;stroke-dasharray:none;stroke-opacity:1"
             d="M 0,0 C 0,0 -0.436,-9.921 13.701,-9.321" /></g><g
           transform="translate(172.5861,364.8848)"
           id="g356"><path
             id="path358"
             style="fill:#5ae4a7;fill-opacity:1;fill-rule:nonzero;stroke:none"
             d="m 0,0 c 0,0 -3.516,-0.062 -3.74,-5.37 -0.224,-5.308 4.028,-13.493 12.181,-14.849 8.154,-1.356 13.228,3.518 14.715,7.523 C 24.643,-8.691 5.581,3.168 0,0" /></g><g
           transform="translate(172.5861,364.8848)"
           id="g360"><path
             id="path362"
             style="fill:none;stroke:#1a2e35;stroke-width:1;stroke-linecap:butt;stroke-linejoin:miter;stroke-miterlimit:10;stroke-dasharray:none;stroke-opacity:1"
             d="m 0,0 c 0,0 -3.516,-0.062 -3.74,-5.37 -0.224,-5.308 4.028,-13.493 12.181,-14.849 8.154,-1.356 13.228,3.518 14.715,7.523 C 24.643,-8.691 5.581,3.168 0,0 Z" /></g><g
           transform="translate(181.7453,379.3301)"
           id="g364"><path
             id="path366"
             style="fill:#dfdfdf;fill-opacity:1;fill-rule:nonzero;stroke:none"
             d="m 0,0 c 0,0 -8.639,-10.386 -10.146,-15.673 -1.508,-5.288 2.266,-14.966 11.844,-16.167 9.577,-1.202 15.275,6.783 15.275,6.783 z" /></g><g
           transform="translate(181.7453,379.3301)"
           id="g368"><path
             id="path370"
             style="fill:none;stroke:#1a2e35;stroke-width:1;stroke-linecap:butt;stroke-linejoin:miter;stroke-miterlimit:10;stroke-dasharray:none;stroke-opacity:1"
             d="m 0,0 c 0,0 -8.639,-10.386 -10.146,-15.673 -1.508,-5.288 2.266,-14.966 11.844,-16.167 9.577,-1.202 15.275,6.783 15.275,6.783 z" /></g><g
           transform="translate(186.6906,387.7134)"
           id="g372"><path
             id="path374"
             style="fill:#5ae4a7;fill-opacity:1;fill-rule:nonzero;stroke:none"
             d="M 0,0 C 0,0 -6.174,-5.22 -6.602,-13.692 -7.03,-22.164 0.772,-31.932 10.951,-30.994 21.129,-30.057 8.383,0.405 0,0" /></g><g
           transform="translate(186.6906,387.7134)"
           id="g376"><path
             id="path378"
             style="fill:none;stroke:#1a2e35;stroke-width:1;stroke-linecap:butt;stroke-linejoin:miter;stroke-miterlimit:10;stroke-dasharray:none;stroke-opacity:1"
             d="M 0,0 C 0,0 -6.174,-5.22 -6.602,-13.692 -7.03,-22.164 0.772,-31.932 10.951,-30.994 21.129,-30.057 8.383,0.405 0,0 Z" /></g><g
           transform="translate(190.9454,381.437)"
           id="g380"><path
             id="path382"
             style="fill:#5ae4a7;fill-opacity:1;fill-rule:nonzero;stroke:none"
             d="m 0,0 c 0,0 -4.531,-5.456 -1.935,-14.621 2.597,-9.166 9.072,-14.227 9.072,-14.227 0,0 12.525,-18.014 17.792,-20.804 5.266,-2.79 14.566,-2.901 33.429,4.752 18.864,7.654 26.292,18.869 29.189,24.628 2.898,5.758 -14.072,32.257 -19.934,36.104 -5.862,3.846 -13.523,5.095 -19.062,4.494 -5.539,-0.602 -10.676,-1.961 -10.676,-1.961 z" /></g><g
           transform="translate(190.9454,381.437)"
           id="g384"><path
             id="path386"
             style="fill:none;stroke:#1a2e35;stroke-width:1;stroke-linecap:butt;stroke-linejoin:miter;stroke-miterlimit:10;stroke-dasharray:none;stroke-opacity:1"
             d="m 0,0 c 0,0 -4.531,-5.456 -1.935,-14.621 2.597,-9.166 9.072,-14.227 9.072,-14.227 0,0 12.525,-18.014 17.792,-20.804 5.266,-2.79 14.566,-2.901 33.429,4.752 18.864,7.654 26.292,18.869 29.189,24.628 2.898,5.758 -14.072,32.257 -19.934,36.104 -5.862,3.846 -13.523,5.095 -19.062,4.494 -5.539,-0.602 -10.676,-1.961 -10.676,-1.961 z" /></g><g
           transform="translate(187.5939,384.4492)"
           id="g388"><path
             id="path390"
             style="fill:#ffffff;fill-opacity:1;fill-rule:nonzero;stroke:none"
             d="m 0,0 c 0,0 -4.531,-5.456 -1.934,-14.622 2.597,-9.165 9.071,-14.226 9.071,-14.226 0,0 12.525,-18.014 17.792,-20.804 5.267,-2.791 14.566,-2.901 33.43,4.752 18.864,7.653 26.292,18.869 29.189,24.628 2.897,5.758 -14.072,32.257 -19.934,36.103 -5.863,3.847 -13.524,5.096 -19.063,4.495 -5.539,-0.602 -10.676,-1.961 -10.676,-1.961 z" /></g><g
           transform="translate(187.5939,384.4492)"
           id="g392"><path
             id="path394"
             style="fill:none;stroke:#1a2e35;stroke-width:1;stroke-linecap:butt;stroke-linejoin:miter;stroke-miterlimit:10;stroke-dasharray:none;stroke-opacity:1"
             d="m 0,0 c 0,0 -4.531,-5.456 -1.934,-14.622 2.597,-9.165 9.071,-14.226 9.071,-14.226 0,0 12.525,-18.014 17.792,-20.804 5.267,-2.791 14.566,-2.901 33.43,4.752 18.864,7.653 26.292,18.869 29.189,24.628 2.897,5.758 -14.072,32.257 -19.934,36.103 -5.863,3.847 -13.524,5.096 -19.063,4.495 -5.539,-0.602 -10.676,-1.961 -10.676,-1.961 z" /></g><g
           transform="translate(233.8097,405.6245)"
           id="g396"><path
             id="path398"
             style="fill:#5ae4a7;fill-opacity:1;fill-rule:nonzero;stroke:none"
             d="m 0,0 c 1.699,-15.642 -9.604,-29.7 -25.246,-31.399 -15.642,-1.699 -29.699,9.604 -31.399,25.246 -1.699,15.642 9.604,29.699 25.246,31.399 C -15.757,26.945 -1.699,15.642 0,0" /></g><g
           transform="translate(233.8097,405.6245)"
           id="g400"><path
             id="path402"
             style="fill:none;stroke:#1a2e35;stroke-width:1;stroke-linecap:butt;stroke-linejoin:miter;stroke-miterlimit:10;stroke-dasharray:none;stroke-opacity:1"
             d="m 0,0 c 1.699,-15.642 -9.604,-29.7 -25.246,-31.399 -15.642,-1.699 -29.699,9.604 -31.399,25.246 -1.699,15.642 9.604,29.699 25.246,31.399 C -15.757,26.945 -1.699,15.642 0,0 Z" /></g><g
           transform="translate(233.3727,413.4385)"
           id="g404"><path
             id="path406"
             style="fill:#adadad;fill-opacity:1;fill-rule:nonzero;stroke:none"
             d="m 0,0 c 1.918,-17.663 -10.845,-33.537 -28.507,-35.456 -17.663,-1.919 -33.537,10.845 -35.456,28.507 -1.919,17.663 10.844,33.537 28.507,35.456 C -17.793,30.426 -1.919,17.663 0,0" /></g><g
           transform="translate(233.3727,413.4385)"
           id="g408"><path
             id="path410"
             style="fill:none;stroke:#1a2e35;stroke-width:1;stroke-linecap:butt;stroke-linejoin:miter;stroke-miterlimit:10;stroke-dasharray:none;stroke-opacity:1"
             d="m 0,0 c 1.918,-17.663 -10.845,-33.537 -28.507,-35.456 -17.663,-1.919 -33.537,10.845 -35.456,28.507 -1.919,17.663 10.844,33.537 28.507,35.456 C -17.793,30.426 -1.919,17.663 0,0 Z" /></g><g
           transform="translate(223.4577,405.4141)"
           id="g412"><path
             id="path414"
             style="fill:#1a2e35;fill-opacity:1;fill-rule:nonzero;stroke:none"
             d="m 0,0 c 0.333,0.67 0.763,1.86 0.638,3.391 -0.197,2.415 -2.907,6.873 -4.037,8.08 -1.131,1.207 -2.864,-0.216 -2.864,-0.216 l -1.999,3.592 c -4.82,8.662 -15.749,11.776 -24.411,6.956 -8.662,-4.82 -11.776,-15.75 -6.956,-24.411 l 4.145,-7.448 -2.321,3.758 c 0,0 -2.123,-0.722 -1.693,-2.319 0.43,-1.597 2.79,-6.251 4.739,-7.691 1.384,-1.023 2.764,-1.226 3.455,-1.26 l 5.469,-9.827 c 2.358,-0.276 4.782,-0.304 7.243,-0.036 10.827,1.176 19.805,7.6 24.697,16.461 z" /></g><g
           transform="translate(223.4577,405.4141)"
           id="g416"><path
             id="path418"
             style="fill:none;stroke:#1a2e35;stroke-width:1;stroke-linecap:butt;stroke-linejoin:miter;stroke-miterlimit:10;stroke-dasharray:none;stroke-opacity:1"
             d="m 0,0 c 0.333,0.67 0.763,1.86 0.638,3.391 -0.197,2.415 -2.907,6.873 -4.037,8.08 -1.131,1.207 -2.864,-0.216 -2.864,-0.216 l -1.999,3.592 c -4.82,8.662 -15.749,11.776 -24.411,6.956 -8.662,-4.82 -11.776,-15.75 -6.956,-24.411 l 4.145,-7.448 -2.321,3.758 c 0,0 -2.123,-0.722 -1.693,-2.319 0.43,-1.597 2.79,-6.251 4.739,-7.691 1.384,-1.023 2.764,-1.226 3.455,-1.26 l 5.469,-9.827 c 2.358,-0.276 4.782,-0.304 7.243,-0.036 10.827,1.176 19.805,7.6 24.697,16.461 z" /></g><g
           transform="translate(215.0377,414.4072)"
           id="g420"><path
             id="path422"
             style="fill:#ffffff;fill-opacity:1;fill-rule:nonzero;stroke:none"
             d="m 0,0 c -3.642,6.544 -11.9,8.897 -18.445,5.255 l -2.45,-1.363 c -6.544,-3.642 -8.897,-11.9 -5.256,-18.445 l 12.275,-22.056 c 1.222,-0.01 2.458,0.049 3.704,0.185 9.609,1.043 17.755,6.227 22.888,13.574 z" /></g><g
           transform="translate(215.0377,414.4072)"
           id="g424"><path
             id="path426"
             style="fill:none;stroke:#1a2e35;stroke-width:1;stroke-linecap:butt;stroke-linejoin:miter;stroke-miterlimit:10;stroke-dasharray:none;stroke-opacity:1"
             d="m 0,0 c -3.642,6.544 -11.9,8.897 -18.445,5.255 l -2.45,-1.363 c -6.544,-3.642 -8.897,-11.9 -5.256,-18.445 l 12.275,-22.056 c 1.222,-0.01 2.458,0.049 3.704,0.185 9.609,1.043 17.755,6.227 22.888,13.574 z" /></g><g
           transform="translate(199.9533,401.0498)"
           id="g428"><path
             id="path430"
             style="fill:#1a2e35;fill-opacity:1;fill-rule:nonzero;stroke:none"
             d="m 0,0 c 0.461,-0.828 0.429,-1.726 -0.072,-2.004 -0.5,-0.278 -1.28,0.167 -1.74,0.995 -0.461,0.828 -0.429,1.726 0.071,2.004 C -1.24,1.273 -0.461,0.828 0,0" /></g><g
           transform="translate(210.1168,406.7056)"
           id="g432"><path
             id="path434"
             style="fill:#1a2e35;fill-opacity:1;fill-rule:nonzero;stroke:none"
             d="m 0,0 c 0.461,-0.828 0.429,-1.725 -0.072,-2.004 -0.5,-0.278 -1.28,0.168 -1.74,0.996 -0.461,0.828 -0.429,1.725 0.071,2.003 C -1.24,1.274 -0.461,0.828 0,0" /></g><g
           transform="translate(205.1266,405.3628)"
           id="g436"><path
             id="path438"
             style="fill:none;stroke:#1a2e35;stroke-width:1;stroke-linecap:butt;stroke-linejoin:miter;stroke-miterlimit:10;stroke-dasharray:none;stroke-opacity:1"
             d="M 0,0 5.225,-6.502 0.474,-8.687" /></g><g
           transform="translate(212.8776,393.4966)"
           id="g440"><path
             id="path442"
             style="fill:#1a2e35;fill-opacity:1;fill-rule:nonzero;stroke:none"
             d="m 0,0 c 0.458,-0.823 0.162,-1.861 -0.661,-2.318 -0.822,-0.458 -1.86,-0.162 -2.318,0.66 -0.458,0.823 -0.162,1.861 0.661,2.319 C -1.496,1.118 -0.458,0.823 0,0" /></g><g
           transform="translate(192.8771,402.2183)"
           id="g444"><path
             id="path446"
             style="fill:none;stroke:#1a2e35;stroke-width:1;stroke-linecap:butt;stroke-linejoin:miter;stroke-miterlimit:10;stroke-dasharray:none;stroke-opacity:1"
             d="M 0,0 C 0,0 0.757,3.175 4.964,3.451" /></g><g
           transform="translate(204.403,409.5503)"
           id="g448"><path
             id="path450"
             style="fill:none;stroke:#1a2e35;stroke-width:1;stroke-linecap:butt;stroke-linejoin:miter;stroke-miterlimit:10;stroke-dasharray:none;stroke-opacity:1"
             d="M 0,0 C 0,0 1.107,3.371 5.549,2.4" /></g><g
           transform="translate(207.3825,382.7505)"
           id="g452"><path
             id="path454"
             style="fill:none;stroke:#1a2e35;stroke-width:1;stroke-linecap:butt;stroke-linejoin:miter;stroke-miterlimit:10;stroke-dasharray:none;stroke-opacity:1"
             d="m 0,0 c 0,0 3.546,-1.01 6.039,-0.541 2.493,0.469 4.498,1.814 5.432,3.023 0.934,1.208 2.197,5.124 2.197,5.124" /></g><g
           transform="translate(177.7228,391.3804)"
           id="g456"><path
             id="path458"
             style="fill:#ffffff;fill-opacity:1;fill-rule:nonzero;stroke:none"
             d="M 0,0 C -1.918,17.663 10.845,33.537 28.507,35.456 38.71,36.564 48.309,32.767 54.973,25.963 51.316,41.559 36.524,52.339 20.194,50.565 2.531,48.646 -10.232,32.772 -8.313,15.109 -7.503,7.649 -4.196,1.07 0.677,-3.905 0.378,-2.633 0.145,-1.333 0,0" /></g><g
           transform="translate(177.7228,391.3804)"
           id="g460"><path
             id="path462"
             style="fill:none;stroke:#1a2e35;stroke-width:1;stroke-linecap:butt;stroke-linejoin:miter;stroke-miterlimit:10;stroke-dasharray:none;stroke-opacity:1"
             d="M 0,0 C -1.918,17.663 10.845,33.537 28.507,35.456 38.71,36.564 48.309,32.767 54.973,25.963 51.316,41.559 36.524,52.339 20.194,50.565 2.531,48.646 -10.232,32.772 -8.313,15.109 -7.503,7.649 -4.196,1.07 0.677,-3.905 0.378,-2.633 0.145,-1.333 0,0 Z" /></g><g
           transform="translate(267.1012,390.2593)"
           id="g464"><path
             id="path466"
             style="fill:#5ae4a7;fill-opacity:1;fill-rule:nonzero;stroke:none"
             d="m 0,0 c 0.976,-8.985 -4.679,-16.969 -12.632,-17.833 -7.952,-0.864 -15.191,5.72 -16.167,14.705 -0.976,8.984 4.68,16.968 12.633,17.832 C -8.214,15.568 -0.976,8.985 0,0" /></g><g
           transform="translate(267.1012,390.2593)"
           id="g468"><path
             id="path470"
             style="fill:none;stroke:#1a2e35;stroke-width:1;stroke-linecap:butt;stroke-linejoin:miter;stroke-miterlimit:10;stroke-dasharray:none;stroke-opacity:1"
             d="m 0,0 c 0.976,-8.985 -4.679,-16.969 -12.632,-17.833 -7.952,-0.864 -15.191,5.72 -16.167,14.705 -0.976,8.984 4.68,16.968 12.633,17.832 C -8.214,15.568 -0.976,8.985 0,0 Z" /></g><g
           transform="translate(286.0387,401.6323)"
           id="g472"><path
             id="path474"
             style="fill:#ffffff;fill-opacity:1;fill-rule:nonzero;stroke:none"
             d="m 0,0 c 0,0 -7.792,2.095 -20.434,2.403 -12.642,0.308 -20.073,-0.92 -22.472,-7.204 -2.4,-6.284 -1.855,-16.452 5.934,-19.808 4.348,-1.874 10.733,-0.796 15.381,0.269 4.647,1.066 16.04,5.805 19.622,11.518 C 1.613,-7.109 1.686,-2.619 0,0" /></g><g
           transform="translate(286.0387,401.6323)"
           id="g476"><path
             id="path478"
             style="fill:none;stroke:#1a2e35;stroke-width:1;stroke-linecap:butt;stroke-linejoin:miter;stroke-miterlimit:10;stroke-dasharray:none;stroke-opacity:1"
             d="m 0,0 c 0,0 -7.792,2.095 -20.434,2.403 -12.642,0.308 -20.073,-0.92 -22.472,-7.204 -2.4,-6.284 -1.855,-16.452 5.934,-19.808 4.348,-1.874 10.733,-0.796 15.381,0.269 4.647,1.066 16.04,5.805 19.622,11.518 C 1.613,-7.109 1.686,-2.619 0,0 Z" /></g><g
           transform="translate(299.2726,392.0029)"
           id="g480"><path
             id="path482"
             style="fill:#5ae4a7;fill-opacity:1;fill-rule:nonzero;stroke:none"
             d="m 0,0 c 0,0 -4.18,7.531 -11.973,9.626 -7.792,2.096 -14.941,-3.023 -18.183,-7.999 -3.242,-4.975 -1.801,-6.64 -1.801,-6.64 0,0 11.427,5.724 17.335,6.786 C -8.713,2.836 0,0 0,0" /></g><g
           transform="translate(299.2726,392.0029)"
           id="g484"><path
             id="path486"
             style="fill:none;stroke:#1a2e35;stroke-width:1;stroke-linecap:butt;stroke-linejoin:miter;stroke-miterlimit:10;stroke-dasharray:none;stroke-opacity:1"
             d="m 0,0 c 0,0 -4.18,7.531 -11.973,9.626 -7.792,2.096 -14.941,-3.023 -18.183,-7.999 -3.242,-4.975 -1.801,-6.64 -1.801,-6.64 0,0 11.427,5.724 17.335,6.786 C -8.713,2.836 0,0 0,0 Z" /></g><g
           transform="translate(267.027,381.9155)"
           id="g488"><path
             id="path490"
             style="fill:#ffffff;fill-opacity:1;fill-rule:nonzero;stroke:none"
             d="m 0,0 c 0,0 -1.833,5.265 5.551,12.09 7.384,6.827 20.958,4.379 25.377,-0.185 4.418,-4.563 3.89,-12.605 0.39,-16.488 -3.501,-3.882 -7.01,-5.104 -7.01,-5.104 0,0 -6.877,11.721 -24.308,9.687" /></g><g
           transform="translate(267.027,381.9155)"
           id="g492"><path
             id="path494"
             style="fill:none;stroke:#1a2e35;stroke-width:1;stroke-linecap:butt;stroke-linejoin:miter;stroke-miterlimit:10;stroke-dasharray:none;stroke-opacity:1"
             d="m 0,0 c 0,0 -1.833,5.265 5.551,12.09 7.384,6.827 20.958,4.379 25.377,-0.185 4.418,-4.563 3.89,-12.605 0.39,-16.488 -3.501,-3.882 -7.01,-5.104 -7.01,-5.104 0,0 -6.877,11.721 -24.308,9.687 z" /></g><g
           transform="translate(260.8654,371.5801)"
           id="g496"><path
             id="path498"
             style="fill:#ffffff;fill-opacity:1;fill-rule:nonzero;stroke:none"
             d="m 0,0 c 0,0 2.833,7.452 6.162,10.335 3.329,2.884 13.283,4.105 20.705,1.549 7.422,-2.555 6.109,-11.103 4.718,-13.776 -1.39,-2.673 -5.64,-4.816 -5.64,-4.816 z" /></g><g
           transform="translate(260.8654,371.5801)"
           id="g500"><path
             id="path502"
             style="fill:none;stroke:#1a2e35;stroke-width:1;stroke-linecap:butt;stroke-linejoin:miter;stroke-miterlimit:10;stroke-dasharray:none;stroke-opacity:1"
             d="m 0,0 c 0,0 2.833,7.452 6.162,10.335 3.329,2.884 13.283,4.105 20.705,1.549 7.422,-2.555 6.109,-11.103 4.718,-13.776 -1.39,-2.673 -5.64,-4.816 -5.64,-4.816 z" /></g><g
           transform="translate(261.714,372.793)"
           id="g504"><path
             id="path506"
             style="fill:#ffffff;fill-opacity:1;fill-rule:nonzero;stroke:none"
             d="m 0,0 c 0,0 -1.508,-0.304 -3.019,-1.869 -1.511,-1.565 -1.99,-2.318 -5.024,-4.048 -3.034,-1.73 -6.248,-1.799 -5.057,-5.032 1.192,-3.233 5.622,-2.752 7.808,-2.234 2.185,0.517 3.079,1.315 4.759,2.619 1.679,1.303 2.947,10.266 3.04,10.696 C 2.601,0.562 0,0 0,0" /></g><g
           transform="translate(261.714,372.793)"
           id="g508"><path
             id="path510"
             style="fill:none;stroke:#1a2e35;stroke-width:1;stroke-linecap:butt;stroke-linejoin:miter;stroke-miterlimit:10;stroke-dasharray:none;stroke-opacity:1"
             d="m 0,0 c 0,0 -1.508,-0.304 -3.019,-1.869 -1.511,-1.565 -1.99,-2.318 -5.024,-4.048 -3.034,-1.73 -6.248,-1.799 -5.057,-5.032 1.192,-3.233 5.622,-2.752 7.808,-2.234 2.185,0.517 3.079,1.315 4.759,2.619 1.679,1.303 2.947,10.266 3.04,10.696 C 2.601,0.562 0,0 0,0 Z" /></g><g
           transform="translate(269.6573,375.7573)"
           id="g512"><path
             id="path514"
             style="fill:#ffffff;fill-opacity:1;fill-rule:nonzero;stroke:none"
             d="m 0,0 c 0,0 -4.458,1.057 -6.646,-0.722 -2.188,-1.778 -2.005,-8.623 -1.831,-12.807 0.175,-4.184 1.658,-7.525 3.256,-8.052 1.598,-0.526 3.245,-0.208 3.877,0.421 0.633,0.629 -0.03,6.722 0.413,11.673 C -0.488,-4.536 0,0 0,0" /></g><g
           transform="translate(269.6573,375.7573)"
           id="g516"><path
             id="path518"
             style="fill:none;stroke:#1a2e35;stroke-width:1;stroke-linecap:butt;stroke-linejoin:miter;stroke-miterlimit:10;stroke-dasharray:none;stroke-opacity:1"
             d="m 0,0 c 0,0 -4.458,1.057 -6.646,-0.722 -2.188,-1.778 -2.005,-8.623 -1.831,-12.807 0.175,-4.184 1.658,-7.525 3.256,-8.052 1.598,-0.526 3.245,-0.208 3.877,0.421 0.633,0.629 -0.03,6.722 0.413,11.673 C -0.488,-4.536 0,0 0,0 Z" /></g><g
           transform="translate(269.6573,375.7573)"
           id="g520"><path
             id="path522"
             style="fill:#ffffff;fill-opacity:1;fill-rule:nonzero;stroke:none"
             d="m 0,0 c 0,0 -1.996,-4.84 -2.577,-9.806 -0.581,-4.966 2.109,-11.679 3.154,-12.266 1.044,-0.587 3.966,-0.409 4.647,1.066 0.68,1.474 0.183,6.486 0.26,9.425 0.078,2.939 1.493,9.257 1.282,11.195 C 6.556,1.553 2.188,1.779 0,0" /></g><g
           transform="translate(269.6573,375.7573)"
           id="g524"><path
             id="path526"
             style="fill:none;stroke:#1a2e35;stroke-width:1;stroke-linecap:butt;stroke-linejoin:miter;stroke-miterlimit:10;stroke-dasharray:none;stroke-opacity:1"
             d="m 0,0 c 0,0 -1.996,-4.84 -2.577,-9.806 -0.581,-4.966 2.109,-11.679 3.154,-12.266 1.044,-0.587 3.966,-0.409 4.647,1.066 0.68,1.474 0.183,6.486 0.26,9.425 0.078,2.939 1.493,9.257 1.282,11.195 C 6.556,1.553 2.188,1.779 0,0 Z" /></g><g
           transform="translate(276.4235,375.3716)"
           id="g528"><path
             id="path530"
             style="fill:#ffffff;fill-opacity:1;fill-rule:nonzero;stroke:none"
             d="m 0,0 c 0,0 2.664,1.27 4.599,0.219 1.936,-1.05 2.39,-3.943 2.125,-5.372 -0.265,-1.43 -1.162,-9.933 -1.783,-11.962 -0.62,-2.028 -2.191,-3.039 -3.467,-2.898 -1.276,0.142 -2.149,1.728 -2.345,3.528 -0.195,1.8 -0.411,5.29 -0.411,5.29 z" /></g><g
           transform="translate(276.4235,375.3716)"
           id="g532"><path
             id="path534"
             style="fill:none;stroke:#1a2e35;stroke-width:1;stroke-linecap:butt;stroke-linejoin:miter;stroke-miterlimit:10;stroke-dasharray:none;stroke-opacity:1"
             d="m 0,0 c 0,0 2.664,1.27 4.599,0.219 1.936,-1.05 2.39,-3.943 2.125,-5.372 -0.265,-1.43 -1.162,-9.933 -1.783,-11.962 -0.62,-2.028 -2.191,-3.039 -3.467,-2.898 -1.276,0.142 -2.149,1.728 -2.345,3.528 -0.195,1.8 -0.411,5.29 -0.411,5.29 z" /></g><g
           transform="translate(283.1383,372.8789)"
           id="g536"><path
             id="path538"
             style="fill:#ffffff;fill-opacity:1;fill-rule:nonzero;stroke:none"
             d="M 0,0 C 0,0 3.597,-0.87 4.656,-1.595 5.716,-2.321 6.11,-4.66 5.378,-8.241 4.646,-11.823 3.611,-13.897 1.95,-14.077 0.288,-14.258 -1.06,-12.163 -1.057,-10.902 -1.054,-9.641 0.316,-2.908 0,0" /></g><g
           transform="translate(283.1383,372.8789)"
           id="g540"><path
             id="path542"
             style="fill:none;stroke:#1a2e35;stroke-width:1;stroke-linecap:butt;stroke-linejoin:miter;stroke-miterlimit:10;stroke-dasharray:none;stroke-opacity:1"
             d="M 0,0 C 0,0 3.597,-0.87 4.656,-1.595 5.716,-2.321 6.11,-4.66 5.378,-8.241 4.646,-11.823 3.611,-13.897 1.95,-14.077 0.288,-14.258 -1.06,-12.163 -1.057,-10.902 -1.054,-9.641 0.316,-2.908 0,0 Z" /></g><g
           transform="translate(235.6754,370.1724)"
           id="g544"><path
             id="path546"
             style="fill:#5ae4a7;fill-opacity:1;fill-rule:nonzero;stroke:none"
             d="m 0,0 c 2.251,-3.636 1.455,-8.206 -1.777,-10.207 -3.233,-2.001 -7.678,-0.675 -9.929,2.961 -2.251,3.637 -1.455,8.207 1.777,10.208 C -6.696,4.962 -2.251,3.637 0,0" /></g><g
           transform="translate(235.6754,370.1724)"
           id="g548"><path
             id="path550"
             style="fill:none;stroke:#1a2e35;stroke-width:1;stroke-linecap:butt;stroke-linejoin:miter;stroke-miterlimit:10;stroke-dasharray:none;stroke-opacity:1"
             d="m 0,0 c 2.251,-3.636 1.455,-8.206 -1.777,-10.207 -3.233,-2.001 -7.678,-0.675 -9.929,2.961 -2.251,3.637 -1.455,8.207 1.777,10.208 C -6.696,4.962 -2.251,3.637 0,0 Z" /></g><g
           transform="translate(217.9538,357.9302)"
           id="g552"><path
             id="path554"
             style="fill:#1a2e35;fill-opacity:1;fill-rule:nonzero;stroke:none"
             d="M 0,0 C 1.578,-2.549 1.02,-5.752 -1.246,-7.155 -3.511,-8.558 -6.627,-7.628 -8.205,-5.079 -9.783,-2.53 -9.226,0.673 -6.959,2.076 -4.694,3.479 -1.578,2.549 0,0" /></g><g
           transform="translate(232.463,351.8408)"
           id="g556"><path
             id="path558"
             style="fill:#adadad;fill-opacity:1;fill-rule:nonzero;stroke:none"
             d="M 0,0 C 1.578,-2.549 1.02,-5.752 -1.246,-7.155 -3.511,-8.558 -6.627,-7.628 -8.205,-5.079 -9.783,-2.53 -9.226,0.673 -6.959,2.076 -4.694,3.479 -1.578,2.549 0,0" /></g><g
           transform="translate(232.463,351.8408)"
           id="g560"><path
             id="path562"
             style="fill:none;stroke:#1a2e35;stroke-width:1;stroke-linecap:butt;stroke-linejoin:miter;stroke-miterlimit:10;stroke-dasharray:none;stroke-opacity:1"
             d="M 0,0 C 1.578,-2.549 1.02,-5.752 -1.246,-7.155 -3.511,-8.558 -6.627,-7.628 -8.205,-5.079 -9.783,-2.53 -9.226,0.673 -6.959,2.076 -4.694,3.479 -1.578,2.549 0,0 Z" /></g></g></g></g></svg>