<?xml version="1.0" encoding="UTF-8" standalone="no"?>
<svg
   xmlns:dc="http://purl.org/dc/elements/1.1/"
   xmlns:cc="http://creativecommons.org/ns#"
   xmlns:rdf="http://www.w3.org/1999/02/22-rdf-syntax-ns#"
   xmlns:svg="http://www.w3.org/2000/svg"
   xmlns="http://www.w3.org/2000/svg"
   viewBox="0 0 666.66669 666.66669"
   height="666.66669"
   width="666.66669"
   xml:space="preserve"
   id="svg2"
   version="1.1"><metadata
     id="metadata8"><rdf:RDF><cc:Work
         rdf:about=""><dc:format>image/svg+xml</dc:format><dc:type
           rdf:resource="http://purl.org/dc/dcmitype/StillImage" /></cc:Work></rdf:RDF></metadata><defs
     id="defs6"><clipPath
       id="clipPath18"
       clipPathUnits="userSpaceOnUse"><path
         id="path16"
         d="M 0,500 H 500 V 0 H 0 Z" /></clipPath><clipPath
       id="clipPath30"
       clipPathUnits="userSpaceOnUse"><path
         id="path28"
         d="M 15.0023,464.806 H 475.437 V 48.7015 H 15.0023 Z" /></clipPath><clipPath
       id="clipPath58"
       clipPathUnits="userSpaceOnUse"><path
         id="path56"
         d="M 0,500 H 500 V 0 H 0 Z" /></clipPath><clipPath
       id="clipPath614"
       clipPathUnits="userSpaceOnUse"><path
         id="path612"
         d="M 0,500 H 500 V 0 H 0 Z" /></clipPath><clipPath
       id="clipPath798"
       clipPathUnits="userSpaceOnUse"><path
         id="path796"
         d="M 0,500 H 500 V 0 H 0 Z" /></clipPath><clipPath
       id="clipPath854"
       clipPathUnits="userSpaceOnUse"><path
         id="path852"
         d="M 0,500 H 500 V 0 H 0 Z" /></clipPath></defs><g
     transform="matrix(1.3333333,0,0,-1.3333333,0,666.66667)"
     id="g10"><g
       id="g12"><g
         clip-path="url(#clipPath18)"
         id="g14"><g
           transform="translate(437.3966,185.0693)"
           id="g20"><path
             id="path22"
             style="fill:#5ae4a7;fill-opacity:1;fill-rule:nonzero;stroke:none"
             d="m 0,0 c 0,0 51.097,57.416 34.851,157.333 -16.246,99.917 -99.668,136.723 -155.028,117.487 -55.36,-19.236 -67.814,-52.695 -113.031,-71.843 -45.218,-19.149 -131.063,-5.989 -174.009,-70.283 -42.946,-64.293 11.876,-170.828 81.668,-237.629 C -255.758,-171.734 -77.597,-129.905 0,0" /></g><g
           id="g24"><g
             id="g26" /><g
             id="g38"><g
               style="opacity:0.69999701"
               id="g36"
               clip-path="url(#clipPath30)"><g
                 id="g34"
                 transform="translate(437.3966,185.0693)"><path
                   id="path32"
                   style="fill:#ffffff;fill-opacity:1;fill-rule:nonzero;stroke:none"
                   d="m 0,0 c 0,0 51.097,57.416 34.851,157.333 -16.246,99.917 -99.668,136.723 -155.028,117.487 -55.36,-19.236 -67.814,-52.695 -113.031,-71.843 -45.218,-19.149 -131.063,-5.989 -174.009,-70.283 -42.946,-64.293 11.876,-170.828 81.668,-237.629 C -255.758,-171.734 -77.597,-129.905 0,0" /></g></g></g></g></g></g><g
       transform="translate(61.5802,23.75)"
       id="g40"><path
         id="path42"
         style="fill:none;stroke:#1a2e35;stroke-width:1;stroke-linecap:butt;stroke-linejoin:miter;stroke-miterlimit:10;stroke-dasharray:none;stroke-opacity:1"
         d="M 0,0 H 400.153" /></g><g
       transform="translate(123.6725,175.7373)"
       id="g44"><path
         id="path46"
         style="fill:none;stroke:#1a2e35;stroke-width:2;stroke-linecap:butt;stroke-linejoin:miter;stroke-miterlimit:10;stroke-dasharray:none;stroke-opacity:1"
         d="M 0,0 15.88,-151.792" /></g><g
       transform="translate(136.7335,55.0898)"
       id="g48"><path
         id="path50"
         style="fill:none;stroke:#1a2e35;stroke-width:2;stroke-linecap:butt;stroke-linejoin:miter;stroke-miterlimit:10;stroke-dasharray:none;stroke-opacity:1"
         d="M 0,0 -7.059,7.456" /></g><g
       id="g52"><g
         clip-path="url(#clipPath58)"
         id="g54"><g
           transform="translate(131.8195,60.3115)"
           id="g60"><path
             id="path62"
             style="fill:#5ae4a7;fill-opacity:1;fill-rule:nonzero;stroke:none"
             d="M 0,0 C 0,0 0.202,3.299 -2.81,5.988 -4.622,7.606 -14.157,11.618 -15.062,8.26 -16.046,4.606 -6.286,-2.567 0,0" /></g><g
           transform="translate(131.8195,60.3115)"
           id="g64"><path
             id="path66"
             style="fill:none;stroke:#1a2e35;stroke-width:1;stroke-linecap:butt;stroke-linejoin:miter;stroke-miterlimit:10;stroke-dasharray:none;stroke-opacity:1"
             d="M 0,0 C 0,0 0.202,3.299 -2.81,5.988 -4.622,7.606 -14.157,11.618 -15.062,8.26 -16.046,4.606 -6.286,-2.567 0,0 Z" /></g><g
           transform="translate(131.8195,60.3115)"
           id="g68"><path
             id="path70"
             style="fill:none;stroke:#1a2e35;stroke-width:0.5;stroke-linecap:butt;stroke-linejoin:miter;stroke-miterlimit:10;stroke-dasharray:none;stroke-opacity:1"
             d="M 0,0 -9.078,5.657" /></g><g
           transform="translate(138.5045,38.1221)"
           id="g72"><path
             id="path74"
             style="fill:none;stroke:#1a2e35;stroke-width:2;stroke-linecap:butt;stroke-linejoin:miter;stroke-miterlimit:10;stroke-dasharray:none;stroke-opacity:1"
             d="M 0,0 -7.059,7.456" /></g><g
           transform="translate(133.59,43.3438)"
           id="g76"><path
             id="path78"
             style="fill:#5ae4a7;fill-opacity:1;fill-rule:nonzero;stroke:none"
             d="M 0,0 C 0,0 0.202,3.298 -2.809,5.987 -4.621,7.605 -14.157,11.617 -15.062,8.259 -16.046,4.606 -6.286,-2.567 0,0" /></g><g
           transform="translate(133.59,43.3438)"
           id="g80"><path
             id="path82"
             style="fill:none;stroke:#1a2e35;stroke-width:1;stroke-linecap:butt;stroke-linejoin:miter;stroke-miterlimit:10;stroke-dasharray:none;stroke-opacity:1"
             d="M 0,0 C 0,0 0.202,3.298 -2.809,5.987 -4.621,7.605 -14.157,11.617 -15.062,8.259 -16.046,4.606 -6.286,-2.567 0,0 Z" /></g><g
           transform="translate(133.59,43.3438)"
           id="g84"><path
             id="path86"
             style="fill:none;stroke:#1a2e35;stroke-width:0.5;stroke-linecap:butt;stroke-linejoin:miter;stroke-miterlimit:10;stroke-dasharray:none;stroke-opacity:1"
             d="M 0,0 -9.078,5.657" /></g><g
           transform="translate(132.4122,96.4961)"
           id="g88"><path
             id="path90"
             style="fill:none;stroke:#1a2e35;stroke-width:2;stroke-linecap:butt;stroke-linejoin:miter;stroke-miterlimit:10;stroke-dasharray:none;stroke-opacity:1"
             d="M 0,0 -7.059,7.456" /></g><g
           transform="translate(127.4982,101.7178)"
           id="g92"><path
             id="path94"
             style="fill:#5ae4a7;fill-opacity:1;fill-rule:nonzero;stroke:none"
             d="M 0,0 C 0,0 0.202,3.298 -2.81,5.987 -4.622,7.605 -14.157,11.617 -15.062,8.259 -16.046,4.606 -6.286,-2.567 0,0" /></g><g
           transform="translate(127.4982,101.7178)"
           id="g96"><path
             id="path98"
             style="fill:none;stroke:#1a2e35;stroke-width:1;stroke-linecap:butt;stroke-linejoin:miter;stroke-miterlimit:10;stroke-dasharray:none;stroke-opacity:1"
             d="M 0,0 C 0,0 0.202,3.298 -2.81,5.987 -4.622,7.605 -14.157,11.617 -15.062,8.259 -16.046,4.606 -6.286,-2.567 0,0 Z" /></g><g
           transform="translate(127.4982,101.7178)"
           id="g100"><path
             id="path102"
             style="fill:none;stroke:#1a2e35;stroke-width:0.5;stroke-linecap:butt;stroke-linejoin:miter;stroke-miterlimit:10;stroke-dasharray:none;stroke-opacity:1"
             d="M 0,0 -9.078,5.657" /></g><g
           transform="translate(134.1832,79.5283)"
           id="g104"><path
             id="path106"
             style="fill:none;stroke:#1a2e35;stroke-width:2;stroke-linecap:butt;stroke-linejoin:miter;stroke-miterlimit:10;stroke-dasharray:none;stroke-opacity:1"
             d="M 0,0 -7.059,7.455" /></g><g
           transform="translate(129.2692,84.749)"
           id="g108"><path
             id="path110"
             style="fill:#5ae4a7;fill-opacity:1;fill-rule:nonzero;stroke:none"
             d="M 0,0 C 0,0 0.202,3.299 -2.81,5.988 -4.622,7.606 -14.157,11.618 -15.062,8.259 -16.046,4.606 -6.286,-2.567 0,0" /></g><g
           transform="translate(129.2692,84.749)"
           id="g112"><path
             id="path114"
             style="fill:none;stroke:#1a2e35;stroke-width:1;stroke-linecap:butt;stroke-linejoin:miter;stroke-miterlimit:10;stroke-dasharray:none;stroke-opacity:1"
             d="M 0,0 C 0,0 0.202,3.299 -2.81,5.988 -4.622,7.606 -14.157,11.618 -15.062,8.259 -16.046,4.606 -6.286,-2.567 0,0 Z" /></g><g
           transform="translate(129.2692,84.749)"
           id="g116"><path
             id="path118"
             style="fill:none;stroke:#1a2e35;stroke-width:0.5;stroke-linecap:butt;stroke-linejoin:miter;stroke-miterlimit:10;stroke-dasharray:none;stroke-opacity:1"
             d="M 0,0 -9.078,5.657" /></g><g
           transform="translate(129.5358,124.0596)"
           id="g120"><path
             id="path122"
             style="fill:none;stroke:#1a2e35;stroke-width:2;stroke-linecap:butt;stroke-linejoin:miter;stroke-miterlimit:10;stroke-dasharray:none;stroke-opacity:1"
             d="M 0,0 -7.059,7.456" /></g><g
           transform="translate(124.6217,129.2812)"
           id="g124"><path
             id="path126"
             style="fill:#5ae4a7;fill-opacity:1;fill-rule:nonzero;stroke:none"
             d="M 0,0 C 0,0 0.202,3.298 -2.81,5.987 -4.622,7.605 -14.157,11.617 -15.062,8.259 -16.046,4.606 -6.286,-2.567 0,0" /></g><g
           transform="translate(124.6217,129.2812)"
           id="g128"><path
             id="path130"
             style="fill:none;stroke:#1a2e35;stroke-width:1;stroke-linecap:butt;stroke-linejoin:miter;stroke-miterlimit:10;stroke-dasharray:none;stroke-opacity:1"
             d="M 0,0 C 0,0 0.202,3.298 -2.81,5.987 -4.622,7.605 -14.157,11.617 -15.062,8.259 -16.046,4.606 -6.286,-2.567 0,0 Z" /></g><g
           transform="translate(124.6217,129.2812)"
           id="g132"><path
             id="path134"
             style="fill:none;stroke:#1a2e35;stroke-width:0.5;stroke-linecap:butt;stroke-linejoin:miter;stroke-miterlimit:10;stroke-dasharray:none;stroke-opacity:1"
             d="M 0,0 -9.078,5.657" /></g><g
           transform="translate(126.6466,151.7441)"
           id="g136"><path
             id="path138"
             style="fill:none;stroke:#1a2e35;stroke-width:2;stroke-linecap:butt;stroke-linejoin:miter;stroke-miterlimit:10;stroke-dasharray:none;stroke-opacity:1"
             d="M 0,0 -7.059,7.455" /></g><g
           transform="translate(121.7326,156.9658)"
           id="g140"><path
             id="path142"
             style="fill:#5ae4a7;fill-opacity:1;fill-rule:nonzero;stroke:none"
             d="M 0,0 C 0,0 0.202,3.298 -2.81,5.987 -4.622,7.605 -14.157,11.617 -15.062,8.259 -16.046,4.605 -6.286,-2.567 0,0" /></g><g
           transform="translate(121.7326,156.9658)"
           id="g144"><path
             id="path146"
             style="fill:none;stroke:#1a2e35;stroke-width:1;stroke-linecap:butt;stroke-linejoin:miter;stroke-miterlimit:10;stroke-dasharray:none;stroke-opacity:1"
             d="M 0,0 C 0,0 0.202,3.298 -2.81,5.987 -4.622,7.605 -14.157,11.617 -15.062,8.259 -16.046,4.605 -6.286,-2.567 0,0 Z" /></g><g
           transform="translate(121.7326,156.9658)"
           id="g148"><path
             id="path150"
             style="fill:none;stroke:#1a2e35;stroke-width:0.5;stroke-linecap:butt;stroke-linejoin:miter;stroke-miterlimit:10;stroke-dasharray:none;stroke-opacity:1"
             d="M 0,0 -9.078,5.657" /></g><g
           transform="translate(135.547,65.1299)"
           id="g152"><path
             id="path154"
             style="fill:none;stroke:#1a2e35;stroke-width:2;stroke-linecap:butt;stroke-linejoin:miter;stroke-miterlimit:10;stroke-dasharray:none;stroke-opacity:1"
             d="M 0,0 5.367,8.753" /></g><g
           transform="translate(139.277,71.2539)"
           id="g156"><path
             id="path158"
             style="fill:#5ae4a7;fill-opacity:1;fill-rule:nonzero;stroke:none"
             d="M 0,0 C 0,0 -0.878,3.186 1.513,6.438 2.952,8.396 11.454,14.29 13.032,11.19 14.75,7.82 6.681,-1.215 0,0" /></g><g
           transform="translate(139.277,71.2539)"
           id="g160"><path
             id="path162"
             style="fill:none;stroke:#1a2e35;stroke-width:1;stroke-linecap:butt;stroke-linejoin:miter;stroke-miterlimit:10;stroke-dasharray:none;stroke-opacity:1"
             d="M 0,0 C 0,0 -0.878,3.186 1.513,6.438 2.952,8.396 11.454,14.29 13.032,11.19 14.75,7.82 6.681,-1.215 0,0 Z" /></g><g
           transform="translate(139.277,71.2539)"
           id="g164"><path
             id="path166"
             style="fill:none;stroke:#1a2e35;stroke-width:0.5;stroke-linecap:butt;stroke-linejoin:miter;stroke-miterlimit:10;stroke-dasharray:none;stroke-opacity:1"
             d="M 0,0 8.174,7.812" /></g><g
           transform="translate(130.8873,109.7822)"
           id="g168"><path
             id="path170"
             style="fill:none;stroke:#1a2e35;stroke-width:2;stroke-linecap:butt;stroke-linejoin:miter;stroke-miterlimit:10;stroke-dasharray:none;stroke-opacity:1"
             d="M 0,0 5.367,8.753" /></g><g
           transform="translate(134.6173,115.9063)"
           id="g172"><path
             id="path174"
             style="fill:#5ae4a7;fill-opacity:1;fill-rule:nonzero;stroke:none"
             d="M 0,0 C 0,0 -0.879,3.185 1.513,6.438 2.951,8.396 11.453,14.29 13.032,11.19 14.749,7.82 6.681,-1.215 0,0" /></g><g
           transform="translate(134.6173,115.9063)"
           id="g176"><path
             id="path178"
             style="fill:none;stroke:#1a2e35;stroke-width:1;stroke-linecap:butt;stroke-linejoin:miter;stroke-miterlimit:10;stroke-dasharray:none;stroke-opacity:1"
             d="M 0,0 C 0,0 -0.879,3.185 1.513,6.438 2.951,8.396 11.453,14.29 13.032,11.19 14.749,7.82 6.681,-1.215 0,0 Z" /></g><g
           transform="translate(134.6173,115.9063)"
           id="g180"><path
             id="path182"
             style="fill:none;stroke:#1a2e35;stroke-width:0.5;stroke-linecap:butt;stroke-linejoin:miter;stroke-miterlimit:10;stroke-dasharray:none;stroke-opacity:1"
             d="M 0,0 8.174,7.812" /></g><g
           transform="translate(128.839,129.4053)"
           id="g184"><path
             id="path186"
             style="fill:none;stroke:#1a2e35;stroke-width:2;stroke-linecap:butt;stroke-linejoin:miter;stroke-miterlimit:10;stroke-dasharray:none;stroke-opacity:1"
             d="M 0,0 5.368,8.752" /></g><g
           transform="translate(132.5695,135.5293)"
           id="g188"><path
             id="path190"
             style="fill:#5ae4a7;fill-opacity:1;fill-rule:nonzero;stroke:none"
             d="M 0,0 C 0,0 -0.879,3.185 1.512,6.438 2.951,8.396 11.453,14.29 13.032,11.19 14.749,7.819 6.681,-1.215 0,0" /></g><g
           transform="translate(132.5695,135.5293)"
           id="g192"><path
             id="path194"
             style="fill:none;stroke:#1a2e35;stroke-width:1;stroke-linecap:butt;stroke-linejoin:miter;stroke-miterlimit:10;stroke-dasharray:none;stroke-opacity:1"
             d="M 0,0 C 0,0 -0.879,3.185 1.512,6.438 2.951,8.396 11.453,14.29 13.032,11.19 14.749,7.819 6.681,-1.215 0,0 Z" /></g><g
           transform="translate(132.5695,135.5293)"
           id="g196"><path
             id="path198"
             style="fill:none;stroke:#1a2e35;stroke-width:0.5;stroke-linecap:butt;stroke-linejoin:miter;stroke-miterlimit:10;stroke-dasharray:none;stroke-opacity:1"
             d="M 0,0 8.174,7.812" /></g><g
           transform="translate(125.8371,158.1729)"
           id="g200"><path
             id="path202"
             style="fill:none;stroke:#1a2e35;stroke-width:2;stroke-linecap:butt;stroke-linejoin:miter;stroke-miterlimit:10;stroke-dasharray:none;stroke-opacity:1"
             d="M 0,0 5.367,8.752" /></g><g
           transform="translate(129.567,164.2969)"
           id="g204"><path
             id="path206"
             style="fill:#5ae4a7;fill-opacity:1;fill-rule:nonzero;stroke:none"
             d="M 0,0 C 0,0 -0.878,3.185 1.513,6.438 2.952,8.396 11.454,14.289 13.032,11.19 14.75,7.819 6.681,-1.215 0,0" /></g><g
           transform="translate(129.567,164.2969)"
           id="g208"><path
             id="path210"
             style="fill:none;stroke:#1a2e35;stroke-width:1;stroke-linecap:butt;stroke-linejoin:miter;stroke-miterlimit:10;stroke-dasharray:none;stroke-opacity:1"
             d="M 0,0 C 0,0 -0.878,3.185 1.513,6.438 2.952,8.396 11.454,14.289 13.032,11.19 14.75,7.819 6.681,-1.215 0,0 Z" /></g><g
           transform="translate(129.567,164.2969)"
           id="g212"><path
             id="path214"
             style="fill:none;stroke:#1a2e35;stroke-width:0.5;stroke-linecap:butt;stroke-linejoin:miter;stroke-miterlimit:10;stroke-dasharray:none;stroke-opacity:1"
             d="M 0,0 8.174,7.812" /></g><g
           transform="translate(123.5412,176.5654)"
           id="g216"><path
             id="path218"
             style="fill:#5ae4a7;fill-opacity:1;fill-rule:nonzero;stroke:none"
             d="M 0,0 C 0,0 -0.878,3.185 1.513,6.438 2.952,8.396 11.454,14.29 13.032,11.19 14.75,7.82 6.681,-1.215 0,0" /></g><g
           transform="translate(123.5412,176.5654)"
           id="g220"><path
             id="path222"
             style="fill:none;stroke:#1a2e35;stroke-width:1;stroke-linecap:butt;stroke-linejoin:miter;stroke-miterlimit:10;stroke-dasharray:none;stroke-opacity:1"
             d="M 0,0 C 0,0 -0.878,3.185 1.513,6.438 2.952,8.396 11.454,14.29 13.032,11.19 14.75,7.82 6.681,-1.215 0,0 Z" /></g><g
           transform="translate(123.5412,176.5654)"
           id="g224"><path
             id="path226"
             style="fill:none;stroke:#1a2e35;stroke-width:0.5;stroke-linecap:butt;stroke-linejoin:miter;stroke-miterlimit:10;stroke-dasharray:none;stroke-opacity:1"
             d="M 0,0 8.174,7.812" /></g><g
           transform="translate(124.0148,176.2285)"
           id="g228"><path
             id="path230"
             style="fill:#5ae4a7;fill-opacity:1;fill-rule:nonzero;stroke:none"
             d="M 0,0 C 0,0 -3.26,-0.54 -6.244,2.179 -8.04,3.815 -13.01,12.889 -9.762,14.134 -6.23,15.487 1.909,6.516 0,0" /></g><g
           transform="translate(124.0148,176.2285)"
           id="g232"><path
             id="path234"
             style="fill:none;stroke:#1a2e35;stroke-width:1;stroke-linecap:butt;stroke-linejoin:miter;stroke-miterlimit:10;stroke-dasharray:none;stroke-opacity:1"
             d="M 0,0 C 0,0 -3.26,-0.54 -6.244,2.179 -8.04,3.815 -13.01,12.889 -9.762,14.134 -6.23,15.487 1.909,6.516 0,0 Z" /></g><g
           transform="translate(124.0148,176.2285)"
           id="g236"><path
             id="path238"
             style="fill:none;stroke:#1a2e35;stroke-width:0.5;stroke-linecap:butt;stroke-linejoin:miter;stroke-miterlimit:10;stroke-dasharray:none;stroke-opacity:1"
             d="M 0,0 -6.913,8.948" /></g><g
           transform="translate(164.7404,155.1895)"
           id="g240"><path
             id="path242"
             style="fill:none;stroke:#1a2e35;stroke-width:2;stroke-linecap:butt;stroke-linejoin:miter;stroke-miterlimit:10;stroke-dasharray:none;stroke-opacity:1"
             d="M 0,0 -13.133,-131.244" /></g><g
           transform="translate(152.6808,34.4385)"
           id="g244"><path
             id="path246"
             style="fill:none;stroke:#1a2e35;stroke-width:2;stroke-linecap:butt;stroke-linejoin:miter;stroke-miterlimit:10;stroke-dasharray:none;stroke-opacity:1"
             d="M 0,0 -5.372,8.75" /></g><g
           transform="translate(148.9469,40.5605)"
           id="g248"><path
             id="path250"
             style="fill:#5ae4a7;fill-opacity:1;fill-rule:nonzero;stroke:none"
             d="m 0,0 c 0,0 0.877,3.186 -1.516,6.437 -1.44,1.958 -9.945,7.846 -11.522,4.747 C -14.753,7.812 -6.68,-1.218 0,0" /></g><g
           transform="translate(148.9469,40.5605)"
           id="g252"><path
             id="path254"
             style="fill:none;stroke:#1a2e35;stroke-width:1;stroke-linecap:butt;stroke-linejoin:miter;stroke-miterlimit:10;stroke-dasharray:none;stroke-opacity:1"
             d="m 0,0 c 0,0 0.877,3.186 -1.516,6.437 -1.44,1.958 -9.945,7.846 -11.522,4.747 C -14.753,7.812 -6.68,-1.218 0,0 Z" /></g><g
           transform="translate(148.9469,40.5605)"
           id="g256"><path
             id="path258"
             style="fill:none;stroke:#1a2e35;stroke-width:0.5;stroke-linecap:butt;stroke-linejoin:miter;stroke-miterlimit:10;stroke-dasharray:none;stroke-opacity:1"
             d="M 0,0 -7.718,7.405" /></g><g
           transform="translate(156.9777,75.8467)"
           id="g260"><path
             id="path262"
             style="fill:none;stroke:#1a2e35;stroke-width:2;stroke-linecap:butt;stroke-linejoin:miter;stroke-miterlimit:10;stroke-dasharray:none;stroke-opacity:1"
             d="M 0,0 -5.373,8.75" /></g><g
           transform="translate(153.2438,81.9688)"
           id="g264"><path
             id="path266"
             style="fill:#5ae4a7;fill-opacity:1;fill-rule:nonzero;stroke:none"
             d="m 0,0 c 0,0 0.877,3.186 -1.516,6.437 -1.44,1.958 -9.945,7.846 -11.523,4.747 C -14.754,7.812 -6.68,-1.218 0,0" /></g><g
           transform="translate(153.2438,81.9688)"
           id="g268"><path
             id="path270"
             style="fill:none;stroke:#1a2e35;stroke-width:1;stroke-linecap:butt;stroke-linejoin:miter;stroke-miterlimit:10;stroke-dasharray:none;stroke-opacity:1"
             d="m 0,0 c 0,0 0.877,3.186 -1.516,6.437 -1.44,1.958 -9.945,7.846 -11.523,4.747 C -14.754,7.812 -6.68,-1.218 0,0 Z" /></g><g
           transform="translate(153.2438,81.9688)"
           id="g272"><path
             id="path274"
             style="fill:none;stroke:#1a2e35;stroke-width:0.5;stroke-linecap:butt;stroke-linejoin:miter;stroke-miterlimit:10;stroke-dasharray:none;stroke-opacity:1"
             d="M 0,0 -7.718,7.405" /></g><g
           transform="translate(155.2169,58.8779)"
           id="g276"><path
             id="path278"
             style="fill:none;stroke:#1a2e35;stroke-width:2;stroke-linecap:butt;stroke-linejoin:miter;stroke-miterlimit:10;stroke-dasharray:none;stroke-opacity:1"
             d="M 0,0 -5.373,8.749" /></g><g
           transform="translate(151.483,64.999)"
           id="g280"><path
             id="path282"
             style="fill:#5ae4a7;fill-opacity:1;fill-rule:nonzero;stroke:none"
             d="m 0,0 c 0,0 0.877,3.187 -1.516,6.438 -1.44,1.957 -9.945,7.845 -11.523,4.746 C -14.753,7.812 -6.68,-1.218 0,0" /></g><g
           transform="translate(151.483,64.999)"
           id="g284"><path
             id="path286"
             style="fill:none;stroke:#1a2e35;stroke-width:1;stroke-linecap:butt;stroke-linejoin:miter;stroke-miterlimit:10;stroke-dasharray:none;stroke-opacity:1"
             d="m 0,0 c 0,0 0.877,3.187 -1.516,6.438 -1.44,1.957 -9.945,7.845 -11.523,4.746 C -14.753,7.812 -6.68,-1.218 0,0 Z" /></g><g
           transform="translate(151.483,64.999)"
           id="g288"><path
             id="path290"
             style="fill:none;stroke:#1a2e35;stroke-width:0.5;stroke-linecap:butt;stroke-linejoin:miter;stroke-miterlimit:10;stroke-dasharray:none;stroke-opacity:1"
             d="M 0,0 -7.719,7.405" /></g><g
           transform="translate(159.838,103.4121)"
           id="g292"><path
             id="path294"
             style="fill:none;stroke:#1a2e35;stroke-width:2;stroke-linecap:butt;stroke-linejoin:miter;stroke-miterlimit:10;stroke-dasharray:none;stroke-opacity:1"
             d="M 0,0 -5.373,8.75" /></g><g
           transform="translate(156.1041,109.5342)"
           id="g296"><path
             id="path298"
             style="fill:#5ae4a7;fill-opacity:1;fill-rule:nonzero;stroke:none"
             d="m 0,0 c 0,0 0.877,3.186 -1.516,6.437 -1.44,1.958 -9.945,7.846 -11.523,4.746 C -14.753,7.812 -6.68,-1.219 0,0" /></g><g
           transform="translate(156.1041,109.5342)"
           id="g300"><path
             id="path302"
             style="fill:none;stroke:#1a2e35;stroke-width:1;stroke-linecap:butt;stroke-linejoin:miter;stroke-miterlimit:10;stroke-dasharray:none;stroke-opacity:1"
             d="m 0,0 c 0,0 0.877,3.186 -1.516,6.437 -1.44,1.958 -9.945,7.846 -11.523,4.746 C -14.753,7.812 -6.68,-1.219 0,0 Z" /></g><g
           transform="translate(156.1041,109.5342)"
           id="g304"><path
             id="path306"
             style="fill:none;stroke:#1a2e35;stroke-width:0.5;stroke-linecap:butt;stroke-linejoin:miter;stroke-miterlimit:10;stroke-dasharray:none;stroke-opacity:1"
             d="M 0,0 -7.719,7.405" /></g><g
           transform="translate(162.7106,131.0986)"
           id="g308"><path
             id="path310"
             style="fill:none;stroke:#1a2e35;stroke-width:2;stroke-linecap:butt;stroke-linejoin:miter;stroke-miterlimit:10;stroke-dasharray:none;stroke-opacity:1"
             d="M 0,0 -5.372,8.749" /></g><g
           transform="translate(158.9772,137.2197)"
           id="g312"><path
             id="path314"
             style="fill:#5ae4a7;fill-opacity:1;fill-rule:nonzero;stroke:none"
             d="m 0,0 c 0,0 0.876,3.186 -1.517,6.437 -1.439,1.958 -9.945,7.846 -11.522,4.747 C -14.754,7.812 -6.68,-1.218 0,0" /></g><g
           transform="translate(158.9772,137.2197)"
           id="g316"><path
             id="path318"
             style="fill:none;stroke:#1a2e35;stroke-width:1;stroke-linecap:butt;stroke-linejoin:miter;stroke-miterlimit:10;stroke-dasharray:none;stroke-opacity:1"
             d="m 0,0 c 0,0 0.876,3.186 -1.517,6.437 -1.439,1.958 -9.945,7.846 -11.522,4.747 C -14.754,7.812 -6.68,-1.218 0,0 Z" /></g><g
           transform="translate(158.9772,137.2197)"
           id="g320"><path
             id="path322"
             style="fill:none;stroke:#1a2e35;stroke-width:0.5;stroke-linecap:butt;stroke-linejoin:miter;stroke-miterlimit:10;stroke-dasharray:none;stroke-opacity:1"
             d="M 0,0 -7.719,7.405" /></g><g
           transform="translate(153.5871,44.5078)"
           id="g324"><path
             id="path326"
             style="fill:none;stroke:#1a2e35;stroke-width:2;stroke-linecap:butt;stroke-linejoin:miter;stroke-miterlimit:10;stroke-dasharray:none;stroke-opacity:1"
             d="M 0,0 7.055,7.46" /></g><g
           transform="translate(158.4982,49.7324)"
           id="g328"><path
             id="path330"
             style="fill:#5ae4a7;fill-opacity:1;fill-rule:nonzero;stroke:none"
             d="M 0,0 C 0,0 -0.204,3.298 2.806,5.989 4.617,7.608 14.15,11.626 15.057,8.268 16.043,4.615 6.288,-2.563 0,0" /></g><g
           transform="translate(158.4982,49.7324)"
           id="g332"><path
             id="path334"
             style="fill:none;stroke:#1a2e35;stroke-width:1;stroke-linecap:butt;stroke-linejoin:miter;stroke-miterlimit:10;stroke-dasharray:none;stroke-opacity:1"
             d="M 0,0 C 0,0 -0.204,3.298 2.806,5.989 4.617,7.608 14.15,11.626 15.057,8.268 16.043,4.615 6.288,-2.563 0,0 Z" /></g><g
           transform="translate(158.4982,49.7324)"
           id="g336"><path
             id="path338"
             style="fill:none;stroke:#1a2e35;stroke-width:0.5;stroke-linecap:butt;stroke-linejoin:miter;stroke-miterlimit:10;stroke-dasharray:none;stroke-opacity:1"
             d="M 0,0 9.608,5.962" /></g><g
           transform="translate(158.2208,89.1631)"
           id="g340"><path
             id="path342"
             style="fill:none;stroke:#1a2e35;stroke-width:2;stroke-linecap:butt;stroke-linejoin:miter;stroke-miterlimit:10;stroke-dasharray:none;stroke-opacity:1"
             d="M 0,0 7.054,7.459" /></g><g
           transform="translate(163.132,94.3877)"
           id="g344"><path
             id="path346"
             style="fill:#5ae4a7;fill-opacity:1;fill-rule:nonzero;stroke:none"
             d="M 0,0 C 0,0 -0.204,3.298 2.806,5.989 4.617,7.608 14.15,11.625 15.057,8.268 16.043,4.615 6.287,-2.564 0,0" /></g><g
           transform="translate(163.132,94.3877)"
           id="g348"><path
             id="path350"
             style="fill:none;stroke:#1a2e35;stroke-width:1;stroke-linecap:butt;stroke-linejoin:miter;stroke-miterlimit:10;stroke-dasharray:none;stroke-opacity:1"
             d="M 0,0 C 0,0 -0.204,3.298 2.806,5.989 4.617,7.608 14.15,11.625 15.057,8.268 16.043,4.615 6.287,-2.564 0,0 Z" /></g><g
           transform="translate(163.132,94.3877)"
           id="g352"><path
             id="path354"
             style="fill:none;stroke:#1a2e35;stroke-width:0.5;stroke-linecap:butt;stroke-linejoin:miter;stroke-miterlimit:10;stroke-dasharray:none;stroke-opacity:1"
             d="M 0,0 9.608,5.962" /></g><g
           transform="translate(160.257,108.7871)"
           id="g356"><path
             id="path358"
             style="fill:none;stroke:#1a2e35;stroke-width:2;stroke-linecap:butt;stroke-linejoin:miter;stroke-miterlimit:10;stroke-dasharray:none;stroke-opacity:1"
             d="M 0,0 7.055,7.459" /></g><g
           transform="translate(165.1681,114.0117)"
           id="g360"><path
             id="path362"
             style="fill:#5ae4a7;fill-opacity:1;fill-rule:nonzero;stroke:none"
             d="M 0,0 C 0,0 -0.204,3.298 2.806,5.989 4.617,7.608 14.15,11.625 15.057,8.268 16.043,4.615 6.288,-2.564 0,0" /></g><g
           transform="translate(165.1681,114.0117)"
           id="g364"><path
             id="path366"
             style="fill:none;stroke:#1a2e35;stroke-width:1;stroke-linecap:butt;stroke-linejoin:miter;stroke-miterlimit:10;stroke-dasharray:none;stroke-opacity:1"
             d="M 0,0 C 0,0 -0.204,3.298 2.806,5.989 4.617,7.608 14.15,11.625 15.057,8.268 16.043,4.615 6.288,-2.564 0,0 Z" /></g><g
           transform="translate(165.1681,114.0117)"
           id="g368"><path
             id="path370"
             style="fill:none;stroke:#1a2e35;stroke-width:0.5;stroke-linecap:butt;stroke-linejoin:miter;stroke-miterlimit:10;stroke-dasharray:none;stroke-opacity:1"
             d="M 0,0 9.608,5.962" /></g><g
           transform="translate(163.2423,137.5557)"
           id="g372"><path
             id="path374"
             style="fill:none;stroke:#1a2e35;stroke-width:2;stroke-linecap:butt;stroke-linejoin:miter;stroke-miterlimit:10;stroke-dasharray:none;stroke-opacity:1"
             d="M 0,0 7.055,7.46" /></g><g
           transform="translate(168.1535,142.7803)"
           id="g376"><path
             id="path378"
             style="fill:#5ae4a7;fill-opacity:1;fill-rule:nonzero;stroke:none"
             d="M 0,0 C 0,0 -0.204,3.298 2.806,5.989 4.617,7.608 14.15,11.626 15.057,8.268 16.043,4.616 6.287,-2.563 0,0" /></g><g
           transform="translate(168.1535,142.7803)"
           id="g380"><path
             id="path382"
             style="fill:none;stroke:#1a2e35;stroke-width:1;stroke-linecap:butt;stroke-linejoin:miter;stroke-miterlimit:10;stroke-dasharray:none;stroke-opacity:1"
             d="M 0,0 C 0,0 -0.204,3.298 2.806,5.989 4.617,7.608 14.15,11.626 15.057,8.268 16.043,4.616 6.287,-2.563 0,0 Z" /></g><g
           transform="translate(168.1535,142.7803)"
           id="g384"><path
             id="path386"
             style="fill:none;stroke:#1a2e35;stroke-width:0.5;stroke-linecap:butt;stroke-linejoin:miter;stroke-miterlimit:10;stroke-dasharray:none;stroke-opacity:1"
             d="M 0,0 9.608,5.963" /></g><g
           transform="translate(164.7829,156.0273)"
           id="g388"><path
             id="path390"
             style="fill:#5ae4a7;fill-opacity:1;fill-rule:nonzero;stroke:none"
             d="M 0,0 C 0,0 -0.204,3.298 2.806,5.989 4.617,7.608 14.15,11.626 15.057,8.268 16.043,4.615 6.288,-2.563 0,0" /></g><g
           transform="translate(164.7829,156.0273)"
           id="g392"><path
             id="path394"
             style="fill:none;stroke:#1a2e35;stroke-width:1;stroke-linecap:butt;stroke-linejoin:miter;stroke-miterlimit:10;stroke-dasharray:none;stroke-opacity:1"
             d="M 0,0 C 0,0 -0.204,3.298 2.806,5.989 4.617,7.608 14.15,11.626 15.057,8.268 16.043,4.615 6.288,-2.563 0,0 Z" /></g><g
           transform="translate(164.7829,156.0273)"
           id="g396"><path
             id="path398"
             style="fill:none;stroke:#1a2e35;stroke-width:0.5;stroke-linecap:butt;stroke-linejoin:miter;stroke-miterlimit:10;stroke-dasharray:none;stroke-opacity:1"
             d="M 0,0 9.608,5.962" /></g><g
           transform="translate(165.1769,155.5996)"
           id="g400"><path
             id="path402"
             style="fill:#5ae4a7;fill-opacity:1;fill-rule:nonzero;stroke:none"
             d="M 0,0 C 0,0 -3.301,0.144 -5.662,3.419 -7.082,5.39 -10.077,15.291 -6.643,15.841 -2.908,16.439 3.209,5.984 0,0" /></g><g
           transform="translate(165.1769,155.5996)"
           id="g404"><path
             id="path406"
             style="fill:none;stroke:#1a2e35;stroke-width:1;stroke-linecap:butt;stroke-linejoin:miter;stroke-miterlimit:10;stroke-dasharray:none;stroke-opacity:1"
             d="M 0,0 C 0,0 -3.301,0.144 -5.662,3.419 -7.082,5.39 -10.077,15.291 -6.643,15.841 -2.908,16.439 3.209,5.984 0,0 Z" /></g><g
           transform="translate(165.1769,155.5996)"
           id="g408"><path
             id="path410"
             style="fill:none;stroke:#1a2e35;stroke-width:0.5;stroke-linecap:butt;stroke-linejoin:miter;stroke-miterlimit:10;stroke-dasharray:none;stroke-opacity:1"
             d="M 0,0 -4.922,10.181" /></g><g
           transform="translate(146.9977,215.9473)"
           id="g412"><path
             id="path414"
             style="fill:none;stroke:#1a2e35;stroke-width:2;stroke-linecap:butt;stroke-linejoin:miter;stroke-miterlimit:10;stroke-dasharray:none;stroke-opacity:1"
             d="M 0,0 -0.971,-192.226" /></g><g
           transform="translate(147.1481,55.6338)"
           id="g416"><path
             id="path418"
             style="fill:none;stroke:#1a2e35;stroke-width:2;stroke-linecap:butt;stroke-linejoin:miter;stroke-miterlimit:10;stroke-dasharray:none;stroke-opacity:1"
             d="M 0,0 -6.247,8.148" /></g><g
           transform="translate(142.8024,61.3379)"
           id="g420"><path
             id="path422"
             style="fill:#5ae4a7;fill-opacity:1;fill-rule:nonzero;stroke:none"
             d="m 0,0 c 0,0 0.543,3.259 -2.173,6.247 -1.634,1.797 -10.702,6.776 -11.95,3.53 C -15.481,6.247 -6.519,-1.901 0,0" /></g><g
           transform="translate(142.8024,61.3379)"
           id="g424"><path
             id="path426"
             style="fill:none;stroke:#1a2e35;stroke-width:1;stroke-linecap:butt;stroke-linejoin:miter;stroke-miterlimit:10;stroke-dasharray:none;stroke-opacity:1"
             d="m 0,0 c 0,0 0.543,3.259 -2.173,6.247 -1.634,1.797 -10.702,6.776 -11.95,3.53 C -15.481,6.247 -6.519,-1.901 0,0 Z" /></g><g
           transform="translate(142.8024,61.3379)"
           id="g428"><path
             id="path430"
             style="fill:none;stroke:#1a2e35;stroke-width:0.5;stroke-linecap:butt;stroke-linejoin:miter;stroke-miterlimit:10;stroke-dasharray:none;stroke-opacity:1"
             d="M 0,0 -8.442,6.568" /></g><g
           transform="translate(147.1481,91.0928)"
           id="g432"><path
             id="path434"
             style="fill:none;stroke:#1a2e35;stroke-width:2;stroke-linecap:butt;stroke-linejoin:miter;stroke-miterlimit:10;stroke-dasharray:none;stroke-opacity:1"
             d="M 0,0 -6.247,8.147" /></g><g
           transform="translate(142.8024,96.7959)"
           id="g436"><path
             id="path438"
             style="fill:#5ae4a7;fill-opacity:1;fill-rule:nonzero;stroke:none"
             d="M 0,0 C 0,0 0.543,3.26 -2.173,6.247 -3.807,8.045 -12.875,13.024 -14.123,9.778 -15.481,6.247 -6.519,-1.9 0,0" /></g><g
           transform="translate(142.8024,96.7959)"
           id="g440"><path
             id="path442"
             style="fill:none;stroke:#1a2e35;stroke-width:1;stroke-linecap:butt;stroke-linejoin:miter;stroke-miterlimit:10;stroke-dasharray:none;stroke-opacity:1"
             d="M 0,0 C 0,0 0.543,3.26 -2.173,6.247 -3.807,8.045 -12.875,13.024 -14.123,9.778 -15.481,6.247 -6.519,-1.9 0,0 Z" /></g><g
           transform="translate(142.8024,96.7959)"
           id="g444"><path
             id="path446"
             style="fill:none;stroke:#1a2e35;stroke-width:0.5;stroke-linecap:butt;stroke-linejoin:miter;stroke-miterlimit:10;stroke-dasharray:none;stroke-opacity:1"
             d="M 0,0 -8.442,6.569" /></g><g
           transform="translate(147.1481,132.7236)"
           id="g448"><path
             id="path450"
             style="fill:none;stroke:#1a2e35;stroke-width:2;stroke-linecap:butt;stroke-linejoin:miter;stroke-miterlimit:10;stroke-dasharray:none;stroke-opacity:1"
             d="M 0,0 -6.247,8.147" /></g><g
           transform="translate(142.8024,138.4268)"
           id="g452"><path
             id="path454"
             style="fill:#5ae4a7;fill-opacity:1;fill-rule:nonzero;stroke:none"
             d="M 0,0 C 0,0 0.543,3.26 -2.173,6.247 -3.807,8.045 -12.875,13.024 -14.123,9.778 -15.481,6.247 -6.519,-1.901 0,0" /></g><g
           transform="translate(142.8024,138.4268)"
           id="g456"><path
             id="path458"
             style="fill:none;stroke:#1a2e35;stroke-width:1;stroke-linecap:butt;stroke-linejoin:miter;stroke-miterlimit:10;stroke-dasharray:none;stroke-opacity:1"
             d="M 0,0 C 0,0 0.543,3.26 -2.173,6.247 -3.807,8.045 -12.875,13.024 -14.123,9.778 -15.481,6.247 -6.519,-1.901 0,0 Z" /></g><g
           transform="translate(142.8024,138.4268)"
           id="g460"><path
             id="path462"
             style="fill:none;stroke:#1a2e35;stroke-width:0.5;stroke-linecap:butt;stroke-linejoin:miter;stroke-miterlimit:10;stroke-dasharray:none;stroke-opacity:1"
             d="M 0,0 -8.442,6.569" /></g><g
           transform="translate(147.1481,160.4365)"
           id="g464"><path
             id="path466"
             style="fill:none;stroke:#1a2e35;stroke-width:2;stroke-linecap:butt;stroke-linejoin:miter;stroke-miterlimit:10;stroke-dasharray:none;stroke-opacity:1"
             d="M 0,0 -6.247,8.148" /></g><g
           transform="translate(142.8024,166.1406)"
           id="g468"><path
             id="path470"
             style="fill:#5ae4a7;fill-opacity:1;fill-rule:nonzero;stroke:none"
             d="M 0,0 C 0,0 0.543,3.259 -2.173,6.246 -3.807,8.044 -12.875,13.023 -14.123,9.777 -15.481,6.246 -6.519,-1.901 0,0" /></g><g
           transform="translate(142.8024,166.1406)"
           id="g472"><path
             id="path474"
             style="fill:none;stroke:#1a2e35;stroke-width:1;stroke-linecap:butt;stroke-linejoin:miter;stroke-miterlimit:10;stroke-dasharray:none;stroke-opacity:1"
             d="M 0,0 C 0,0 0.543,3.259 -2.173,6.246 -3.807,8.044 -12.875,13.023 -14.123,9.777 -15.481,6.246 -6.519,-1.901 0,0 Z" /></g><g
           transform="translate(142.8024,166.1406)"
           id="g476"><path
             id="path478"
             style="fill:none;stroke:#1a2e35;stroke-width:0.5;stroke-linecap:butt;stroke-linejoin:miter;stroke-miterlimit:10;stroke-dasharray:none;stroke-opacity:1"
             d="M 0,0 -8.442,6.568" /></g><g
           transform="translate(147.1481,188.2715)"
           id="g480"><path
             id="path482"
             style="fill:none;stroke:#1a2e35;stroke-width:2;stroke-linecap:butt;stroke-linejoin:miter;stroke-miterlimit:10;stroke-dasharray:none;stroke-opacity:1"
             d="M 0,0 -6.247,8.147" /></g><g
           transform="translate(142.8024,193.9746)"
           id="g484"><path
             id="path486"
             style="fill:#5ae4a7;fill-opacity:1;fill-rule:nonzero;stroke:none"
             d="m 0,0 c 0,0 0.543,3.26 -2.173,6.247 -1.634,1.798 -10.702,6.777 -11.95,3.53 C -15.481,6.247 -6.519,-1.901 0,0" /></g><g
           transform="translate(142.8024,193.9746)"
           id="g488"><path
             id="path490"
             style="fill:none;stroke:#1a2e35;stroke-width:1;stroke-linecap:butt;stroke-linejoin:miter;stroke-miterlimit:10;stroke-dasharray:none;stroke-opacity:1"
             d="m 0,0 c 0,0 0.543,3.26 -2.173,6.247 -1.634,1.798 -10.702,6.777 -11.95,3.53 C -15.481,6.247 -6.519,-1.901 0,0 Z" /></g><g
           transform="translate(142.8024,193.9746)"
           id="g492"><path
             id="path494"
             style="fill:none;stroke:#1a2e35;stroke-width:0.5;stroke-linecap:butt;stroke-linejoin:miter;stroke-miterlimit:10;stroke-dasharray:none;stroke-opacity:1"
             d="M 0,0 -8.442,6.569" /></g><g
           transform="translate(147.0099,44.8066)"
           id="g496"><path
             id="path498"
             style="fill:none;stroke:#1a2e35;stroke-width:2;stroke-linecap:butt;stroke-linejoin:miter;stroke-miterlimit:10;stroke-dasharray:none;stroke-opacity:1"
             d="M 0,0 6.247,8.147" /></g><g
           transform="translate(151.3556,50.5098)"
           id="g500"><path
             id="path502"
             style="fill:#5ae4a7;fill-opacity:1;fill-rule:nonzero;stroke:none"
             d="M 0,0 C 0,0 -0.543,3.26 2.173,6.247 3.807,8.045 12.875,13.024 14.124,9.777 15.481,6.247 6.519,-1.901 0,0" /></g><g
           transform="translate(151.3556,50.5098)"
           id="g504"><path
             id="path506"
             style="fill:none;stroke:#1a2e35;stroke-width:1;stroke-linecap:butt;stroke-linejoin:miter;stroke-miterlimit:10;stroke-dasharray:none;stroke-opacity:1"
             d="M 0,0 C 0,0 -0.543,3.26 2.173,6.247 3.807,8.045 12.875,13.024 14.124,9.777 15.481,6.247 6.519,-1.901 0,0 Z" /></g><g
           transform="translate(151.3556,50.5098)"
           id="g508"><path
             id="path510"
             style="fill:none;stroke:#1a2e35;stroke-width:0.5;stroke-linecap:butt;stroke-linejoin:miter;stroke-miterlimit:10;stroke-dasharray:none;stroke-opacity:1"
             d="M 0,0 8.941,6.923" /></g><g
           transform="translate(147.0099,101.2012)"
           id="g512"><path
             id="path514"
             style="fill:none;stroke:#1a2e35;stroke-width:2;stroke-linecap:butt;stroke-linejoin:miter;stroke-miterlimit:10;stroke-dasharray:none;stroke-opacity:1"
             d="M 0,0 6.247,8.148" /></g><g
           transform="translate(151.3556,106.9053)"
           id="g516"><path
             id="path518"
             style="fill:#5ae4a7;fill-opacity:1;fill-rule:nonzero;stroke:none"
             d="M 0,0 C 0,0 -0.543,3.259 2.173,6.246 3.807,8.044 12.875,13.023 14.124,9.777 15.481,6.246 6.519,-1.901 0,0" /></g><g
           transform="translate(151.3556,106.9053)"
           id="g520"><path
             id="path522"
             style="fill:none;stroke:#1a2e35;stroke-width:1;stroke-linecap:butt;stroke-linejoin:miter;stroke-miterlimit:10;stroke-dasharray:none;stroke-opacity:1"
             d="M 0,0 C 0,0 -0.543,3.259 2.173,6.246 3.807,8.044 12.875,13.023 14.124,9.777 15.481,6.246 6.519,-1.901 0,0 Z" /></g><g
           transform="translate(151.3556,106.9053)"
           id="g524"><path
             id="path526"
             style="fill:none;stroke:#1a2e35;stroke-width:0.5;stroke-linecap:butt;stroke-linejoin:miter;stroke-miterlimit:10;stroke-dasharray:none;stroke-opacity:1"
             d="M 0,0 8.941,6.922" /></g><g
           transform="translate(147.0099,129.0361)"
           id="g528"><path
             id="path530"
             style="fill:none;stroke:#1a2e35;stroke-width:2;stroke-linecap:butt;stroke-linejoin:miter;stroke-miterlimit:10;stroke-dasharray:none;stroke-opacity:1"
             d="M 0,0 6.247,8.147" /></g><g
           transform="translate(151.3556,134.7393)"
           id="g532"><path
             id="path534"
             style="fill:#5ae4a7;fill-opacity:1;fill-rule:nonzero;stroke:none"
             d="M 0,0 C 0,0 -0.543,3.259 2.173,6.247 3.807,8.044 12.875,13.024 14.124,9.777 15.481,6.247 6.519,-1.901 0,0" /></g><g
           transform="translate(151.3556,134.7393)"
           id="g536"><path
             id="path538"
             style="fill:none;stroke:#1a2e35;stroke-width:1;stroke-linecap:butt;stroke-linejoin:miter;stroke-miterlimit:10;stroke-dasharray:none;stroke-opacity:1"
             d="M 0,0 C 0,0 -0.543,3.259 2.173,6.247 3.807,8.044 12.875,13.024 14.124,9.777 15.481,6.247 6.519,-1.901 0,0 Z" /></g><g
           transform="translate(151.3556,134.7393)"
           id="g540"><path
             id="path542"
             style="fill:none;stroke:#1a2e35;stroke-width:0.5;stroke-linecap:butt;stroke-linejoin:miter;stroke-miterlimit:10;stroke-dasharray:none;stroke-opacity:1"
             d="M 0,0 8.941,6.922" /></g><g
           transform="translate(147.0099,165.8252)"
           id="g544"><path
             id="path546"
             style="fill:none;stroke:#1a2e35;stroke-width:2;stroke-linecap:butt;stroke-linejoin:miter;stroke-miterlimit:10;stroke-dasharray:none;stroke-opacity:1"
             d="M 0,0 6.247,8.148" /></g><g
           transform="translate(151.3556,171.5293)"
           id="g548"><path
             id="path550"
             style="fill:#5ae4a7;fill-opacity:1;fill-rule:nonzero;stroke:none"
             d="M 0,0 C 0,0 -0.543,3.259 2.173,6.247 3.807,8.044 12.875,13.023 14.124,9.777 15.481,6.247 6.519,-1.901 0,0" /></g><g
           transform="translate(151.3556,171.5293)"
           id="g552"><path
             id="path554"
             style="fill:none;stroke:#1a2e35;stroke-width:1;stroke-linecap:butt;stroke-linejoin:miter;stroke-miterlimit:10;stroke-dasharray:none;stroke-opacity:1"
             d="M 0,0 C 0,0 -0.543,3.259 2.173,6.247 3.807,8.044 12.875,13.023 14.124,9.777 15.481,6.247 6.519,-1.901 0,0 Z" /></g><g
           transform="translate(151.3556,171.5293)"
           id="g556"><path
             id="path558"
             style="fill:none;stroke:#1a2e35;stroke-width:0.5;stroke-linecap:butt;stroke-linejoin:miter;stroke-miterlimit:10;stroke-dasharray:none;stroke-opacity:1"
             d="M 0,0 8.941,6.922" /></g><g
           transform="translate(147.0099,194.749)"
           id="g560"><path
             id="path562"
             style="fill:none;stroke:#1a2e35;stroke-width:2;stroke-linecap:butt;stroke-linejoin:miter;stroke-miterlimit:10;stroke-dasharray:none;stroke-opacity:1"
             d="M 0,0 6.247,8.148" /></g><g
           transform="translate(151.3556,200.4531)"
           id="g564"><path
             id="path566"
             style="fill:#5ae4a7;fill-opacity:1;fill-rule:nonzero;stroke:none"
             d="M 0,0 C 0,0 -0.543,3.259 2.173,6.246 3.807,8.044 12.875,13.023 14.124,9.777 15.481,6.246 6.519,-1.901 0,0" /></g><g
           transform="translate(151.3556,200.4531)"
           id="g568"><path
             id="path570"
             style="fill:none;stroke:#1a2e35;stroke-width:1;stroke-linecap:butt;stroke-linejoin:miter;stroke-miterlimit:10;stroke-dasharray:none;stroke-opacity:1"
             d="M 0,0 C 0,0 -0.543,3.259 2.173,6.246 3.807,8.044 12.875,13.023 14.124,9.777 15.481,6.246 6.519,-1.901 0,0 Z" /></g><g
           transform="translate(151.3556,200.4531)"
           id="g572"><path
             id="path574"
             style="fill:none;stroke:#1a2e35;stroke-width:0.5;stroke-linecap:butt;stroke-linejoin:miter;stroke-miterlimit:10;stroke-dasharray:none;stroke-opacity:1"
             d="M 0,0 8.941,6.922" /></g><g
           transform="translate(146.6359,213.2812)"
           id="g576"><path
             id="path578"
             style="fill:#5ae4a7;fill-opacity:1;fill-rule:nonzero;stroke:none"
             d="M 0,0 C 0,0 -0.543,3.259 2.173,6.246 3.807,8.044 12.875,13.023 14.124,9.777 15.481,6.246 6.519,-1.901 0,0" /></g><g
           transform="translate(146.6359,213.2812)"
           id="g580"><path
             id="path582"
             style="fill:none;stroke:#1a2e35;stroke-width:1;stroke-linecap:butt;stroke-linejoin:miter;stroke-miterlimit:10;stroke-dasharray:none;stroke-opacity:1"
             d="M 0,0 C 0,0 -0.543,3.259 2.173,6.246 3.807,8.044 12.875,13.023 14.124,9.777 15.481,6.246 6.519,-1.901 0,0 Z" /></g><g
           transform="translate(146.6359,213.2812)"
           id="g584"><path
             id="path586"
             style="fill:none;stroke:#1a2e35;stroke-width:0.5;stroke-linecap:butt;stroke-linejoin:miter;stroke-miterlimit:10;stroke-dasharray:none;stroke-opacity:1"
             d="M 0,0 8.941,6.922" /></g><g
           transform="translate(147.0724,212.8965)"
           id="g588"><path
             id="path590"
             style="fill:#5ae4a7;fill-opacity:1;fill-rule:nonzero;stroke:none"
             d="M 0,0 C 0,0 -3.298,-0.198 -5.985,2.815 -7.601,4.63 -11.603,14.169 -8.243,15.07 -4.589,16.051 2.574,6.283 0,0" /></g><g
           transform="translate(147.0724,212.8965)"
           id="g592"><path
             id="path594"
             style="fill:none;stroke:#1a2e35;stroke-width:1;stroke-linecap:butt;stroke-linejoin:miter;stroke-miterlimit:10;stroke-dasharray:none;stroke-opacity:1"
             d="M 0,0 C 0,0 -3.298,-0.198 -5.985,2.815 -7.601,4.63 -11.603,14.169 -8.243,15.07 -4.589,16.051 2.574,6.283 0,0 Z" /></g><g
           transform="translate(147.0724,212.8965)"
           id="g596"><path
             id="path598"
             style="fill:none;stroke:#1a2e35;stroke-width:0.5;stroke-linecap:butt;stroke-linejoin:miter;stroke-miterlimit:10;stroke-dasharray:none;stroke-opacity:1"
             d="M 0,0 -5.947,9.617" /></g></g></g><g
       transform="translate(401.0382,23.75)"
       id="g600"><path
         id="path602"
         style="fill:#1a2e35;fill-opacity:1;fill-rule:nonzero;stroke:none"
         d="m 0,0 -5.781,66.627 h -136.85 L -150.185,0 Z" /></g><g
       transform="translate(401.0382,23.75)"
       id="g604"><path
         id="path606"
         style="fill:none;stroke:#1a2e35;stroke-width:1;stroke-linecap:butt;stroke-linejoin:miter;stroke-miterlimit:10;stroke-dasharray:none;stroke-opacity:1"
         d="m 0,0 -5.781,66.627 h -136.85 L -150.185,0 Z" /></g><g
       id="g608"><g
         clip-path="url(#clipPath614)"
         id="g610"><g
           transform="translate(317.215,292.3276)"
           id="g616"><path
             id="path618"
             style="fill:#5ae4a7;fill-opacity:1;fill-rule:nonzero;stroke:none"
             d="m 0,0 c 0,0 -40.024,-10.993 -57.499,-24.24 -17.476,-13.247 -29.596,-26.777 -26.777,-52.427 2.819,-25.649 21.14,-95.832 21.14,-95.832 0,0 -2.537,-28.467 -2.537,-30.159 0,-1.691 -0.282,-6.482 5.919,-6.764 6.201,-0.283 80.612,-3.383 97.242,-3.664 16.629,-0.283 38.615,1.409 41.152,3.381 2.536,1.974 3.946,5.075 4.227,8.456 0.282,3.383 3.101,44.816 3.101,44.816 l 0.282,18.603 c 0,0 18.32,60.882 19.448,80.613 1.127,19.73 -6.201,26.212 -14.375,32.413 C 83.149,-18.603 57.717,-8.105 43.971,-3.946 30.224,0.213 0,0 0,0" /></g><g
           transform="translate(317.215,292.3276)"
           id="g620"><path
             id="path622"
             style="fill:none;stroke:#1a2e35;stroke-width:1;stroke-linecap:butt;stroke-linejoin:miter;stroke-miterlimit:10;stroke-dasharray:none;stroke-opacity:1"
             d="m 0,0 c 0,0 -40.024,-10.993 -57.499,-24.24 -17.476,-13.247 -29.596,-26.777 -26.777,-52.427 2.819,-25.649 21.14,-95.832 21.14,-95.832 0,0 -2.537,-28.467 -2.537,-30.159 0,-1.691 -0.282,-6.482 5.919,-6.764 6.201,-0.283 80.612,-3.383 97.242,-3.664 16.629,-0.283 38.615,1.409 41.152,3.381 2.536,1.974 3.946,5.075 4.227,8.456 0.282,3.383 3.101,44.816 3.101,44.816 l 0.282,18.603 c 0,0 18.32,60.882 19.448,80.613 1.127,19.73 -6.201,26.212 -14.375,32.413 C 83.149,-18.603 57.717,-8.105 43.971,-3.946 30.224,0.213 0,0 0,0 Z" /></g><g
           transform="translate(327.087,197.7344)"
           id="g624"><path
             id="path626"
             style="fill:none;stroke:#1a2e35;stroke-width:1;stroke-linecap:butt;stroke-linejoin:miter;stroke-miterlimit:10;stroke-dasharray:none;stroke-opacity:1"
             d="m 0,0 c -2.035,-27.454 -5.653,-78.047 -5.332,-86.71 0.444,-11.996 -4.443,-15.551 -4.443,-19.994" /></g><g
           transform="translate(328.42,215.4414)"
           id="g628"><path
             id="path630"
             style="fill:none;stroke:#1a2e35;stroke-width:1;stroke-linecap:butt;stroke-linejoin:miter;stroke-miterlimit:10;stroke-dasharray:none;stroke-opacity:1"
             d="M 0,0 C 0,0 -0.36,-4.676 -0.912,-12.062" /></g><g
           transform="translate(346.2833,180.1758)"
           id="g632"><path
             id="path634"
             style="fill:#1a2e35;fill-opacity:1;fill-rule:nonzero;stroke:none"
             d="m 0,0 2.559,-30.2 14.332,1.024 z" /></g><g
           transform="translate(346.2833,180.1758)"
           id="g636"><path
             id="path638"
             style="fill:none;stroke:#1a2e35;stroke-width:1;stroke-linecap:butt;stroke-linejoin:miter;stroke-miterlimit:10;stroke-dasharray:none;stroke-opacity:1"
             d="m 0,0 2.559,-30.2 14.332,1.024 z" /></g><g
           transform="translate(332.7032,127.5176)"
           id="g640"><path
             id="path642"
             style="fill:#1a2e35;fill-opacity:1;fill-rule:nonzero;stroke:none"
             d="m 0,0 c 0,0 35.024,5.499 37.63,4.921 2.604,-0.579 20.551,-9.263 23.156,-9.842 2.606,-0.579 4.921,-1.737 4.921,-1.737 L 69.634,-9.943 68.313,0 c 0,0 -5.211,6.368 -16.79,10.999 C 39.945,15.631 34.156,13.025 31.551,12.157 28.946,11.289 0,0 0,0" /></g><g
           transform="translate(332.7032,127.5176)"
           id="g644"><path
             id="path646"
             style="fill:none;stroke:#1a2e35;stroke-width:1;stroke-linecap:butt;stroke-linejoin:miter;stroke-miterlimit:10;stroke-dasharray:none;stroke-opacity:1"
             d="m 0,0 c 0,0 35.024,5.499 37.63,4.921 2.604,-0.579 20.551,-9.263 23.156,-9.842 2.606,-0.579 4.921,-1.737 4.921,-1.737 L 69.634,-9.943 68.313,0 c 0,0 -5.211,6.368 -16.79,10.999 C 39.945,15.631 34.156,13.025 31.551,12.157 28.946,11.289 0,0 0,0 Z" /></g><g
           transform="translate(278.8824,153.9346)"
           id="g648"><path
             id="path650"
             style="fill:#ffffff;fill-opacity:1;fill-rule:nonzero;stroke:none"
             d="m 0,0 91.041,0.281 c 0,0 29.313,2.819 30.441,3.101 1.127,0.282 12.684,-2.819 13.81,-3.664 1.128,-0.846 1.128,-3.383 0.565,-5.919 l -0.565,-2.537 c 0,0 0.846,-4.51 0.846,-6.483 0,-1.973 -2.255,-2.537 -2.536,-3.383 -0.282,-0.845 1.69,-3.945 -0.564,-5.918 l -2.255,-1.973 c 0,0 -0.282,-5.356 -1.409,-6.765 -1.127,-1.409 -4.51,-3.946 -5.919,-3.1 -1.41,0.845 -0.846,3.1 -0.846,4.509 0,1.41 -0.564,2.819 -2.255,2.819 -1.69,0 -1.973,-1.409 -10.71,0.845 -8.738,2.255 -18.321,9.866 -19.167,10.147 -0.846,0.282 -77.229,-20.293 -99.778,-23.112 -22.549,-2.819 -24.522,0.282 -25.368,3.946 -0.846,3.664 -2.255,12.402 -2.255,12.402 L -40.87,-7.61 Z" /></g><g
           transform="translate(278.8824,153.9346)"
           id="g652"><path
             id="path654"
             style="fill:none;stroke:#1a2e35;stroke-width:1;stroke-linecap:butt;stroke-linejoin:miter;stroke-miterlimit:10;stroke-dasharray:none;stroke-opacity:1"
             d="m 0,0 91.041,0.281 c 0,0 29.313,2.819 30.441,3.101 1.127,0.282 12.684,-2.819 13.81,-3.664 1.128,-0.846 1.128,-3.383 0.565,-5.919 l -0.565,-2.537 c 0,0 0.846,-4.51 0.846,-6.483 0,-1.973 -2.255,-2.537 -2.536,-3.383 -0.282,-0.845 1.69,-3.945 -0.564,-5.918 l -2.255,-1.973 c 0,0 -0.282,-5.356 -1.409,-6.765 -1.127,-1.409 -4.51,-3.946 -5.919,-3.1 -1.41,0.845 -0.846,3.1 -0.846,4.509 0,1.41 -0.564,2.819 -2.255,2.819 -1.69,0 -1.973,-1.409 -10.71,0.845 -8.738,2.255 -18.321,9.866 -19.167,10.147 -0.846,0.282 -77.229,-20.293 -99.778,-23.112 -22.549,-2.819 -24.522,0.282 -25.368,3.946 -0.846,3.664 -2.255,12.402 -2.255,12.402 L -40.87,-7.61 Z" /></g><g
           transform="translate(338.0548,259.2939)"
           id="g656"><path
             id="path658"
             style="fill:#5ae4a7;fill-opacity:1;fill-rule:nonzero;stroke:none"
             d="m 0,0 c 0,0 4.702,4.949 7.672,2.722 2.969,-2.227 5.691,-14.106 9.403,-13.116 3.712,0.99 11.137,24.005 11.137,33.162 0,9.156 -6.435,14.6 -7.919,15.095 -1.485,0.495 -39.349,0.99 -43.803,-0.742 -4.455,-1.732 -6.187,-17.323 -7.919,-26.727 C -33.162,0.99 -29.202,-1.237 -26.728,0 -24.252,1.237 -14.601,5.197 -12.374,5.197 -10.146,5.197 0,0 0,0" /></g><g
           transform="translate(338.0548,259.2939)"
           id="g660"><path
             id="path662"
             style="fill:none;stroke:#1a2e35;stroke-width:1;stroke-linecap:butt;stroke-linejoin:miter;stroke-miterlimit:10;stroke-dasharray:none;stroke-opacity:1"
             d="m 0,0 c 0,0 4.702,4.949 7.672,2.722 2.969,-2.227 5.691,-14.106 9.403,-13.116 3.712,0.99 11.137,24.005 11.137,33.162 0,9.156 -6.435,14.6 -7.919,15.095 -1.485,0.495 -39.349,0.99 -43.803,-0.742 -4.455,-1.732 -6.187,-17.323 -7.919,-26.727 C -33.162,0.99 -29.202,-1.237 -26.728,0 -24.252,1.237 -14.601,5.197 -12.374,5.197 -10.146,5.197 0,0 0,0 Z" /></g><g
           transform="translate(363.3986,311.4561)"
           id="g664"><path
             id="path666"
             style="fill:#ffffff;fill-opacity:1;fill-rule:nonzero;stroke:none"
             d="m 0,0 c 0,0 -3.546,-17.536 -4.926,-21.871 -1.379,-4.335 -11.428,-17.536 -13.989,-20.295 -2.562,-2.758 -10.049,-16.354 -12.02,-16.748 -1.969,-0.394 -7.487,18.127 -7.487,18.127 0,0 -7.093,12.217 -8.473,15.37 -1.378,3.152 -3.546,12.413 -3.546,12.413 0,0 11.626,-10.049 24.039,-7.882 12.413,2.168 18.718,14.581 18.718,14.581 z" /></g><g
           transform="translate(363.3986,311.4561)"
           id="g668"><path
             id="path670"
             style="fill:none;stroke:#1a2e35;stroke-width:1;stroke-linecap:butt;stroke-linejoin:miter;stroke-miterlimit:10;stroke-dasharray:none;stroke-opacity:1"
             d="m 0,0 c 0,0 -3.546,-17.536 -4.926,-21.871 -1.379,-4.335 -11.428,-17.536 -13.989,-20.295 -2.562,-2.758 -10.049,-16.354 -12.02,-16.748 -1.969,-0.394 -7.487,18.127 -7.487,18.127 0,0 -7.093,12.217 -8.473,15.37 -1.378,3.152 -3.546,12.413 -3.546,12.413 0,0 11.626,-10.049 24.039,-7.882 12.413,2.168 18.718,14.581 18.718,14.581 z" /></g><g
           transform="translate(315.2872,346.4043)"
           id="g672"><path
             id="path674"
             style="fill:#ffffff;fill-opacity:1;fill-rule:nonzero;stroke:none"
             d="m 0,0 c 0,0 -3.465,3.712 -5.444,-1.98 -1.98,-5.692 1.979,-15.838 1.979,-15.838 z" /></g><g
           transform="translate(315.2872,346.4043)"
           id="g676"><path
             id="path678"
             style="fill:none;stroke:#1a2e35;stroke-width:1;stroke-linecap:butt;stroke-linejoin:miter;stroke-miterlimit:10;stroke-dasharray:none;stroke-opacity:1"
             d="m 0,0 c 0,0 -3.465,3.712 -5.444,-1.98 -1.98,-5.692 1.979,-15.838 1.979,-15.838 z" /></g><g
           transform="translate(315.9132,357.957)"
           id="g680"><path
             id="path682"
             style="fill:#ffffff;fill-opacity:1;fill-rule:nonzero;stroke:none"
             d="m 0,0 c 0,0 -5.714,-40.59 -5.714,-42.954 0,-2.365 -1.577,-10.246 0.788,-15.369 2.364,-5.123 9.458,-11.428 15.172,-12.216 5.714,-0.789 16.945,0.394 23.25,5.32 6.306,4.926 13.596,15.566 13.596,15.566 0,0 7.882,1.182 13.004,3.349 5.123,2.168 9.064,7.094 8.867,12.217 -0.197,5.123 -3.35,9.063 -3.35,9.063 l -2.956,5.517 7.882,14.778 c 0,0 -4.532,8.473 -19.112,16.551 C 36.846,19.9 23.842,22.462 17.733,22.462 11.625,22.462 3.94,19.9 1.773,14.975 -0.395,10.049 0,0 0,0" /></g><g
           transform="translate(315.9132,357.957)"
           id="g684"><path
             id="path686"
             style="fill:none;stroke:#1a2e35;stroke-width:1;stroke-linecap:butt;stroke-linejoin:miter;stroke-miterlimit:10;stroke-dasharray:none;stroke-opacity:1"
             d="m 0,0 c 0,0 -5.714,-40.59 -5.714,-42.954 0,-2.365 -1.577,-10.246 0.788,-15.369 2.364,-5.123 9.458,-11.428 15.172,-12.216 5.714,-0.789 16.945,0.394 23.25,5.32 6.306,4.926 13.596,15.566 13.596,15.566 0,0 7.882,1.182 13.004,3.349 5.123,2.168 9.064,7.094 8.867,12.217 -0.197,5.123 -3.35,9.063 -3.35,9.063 l -2.956,5.517 7.882,14.778 c 0,0 -4.532,8.473 -19.112,16.551 C 36.846,19.9 23.842,22.462 17.733,22.462 11.625,22.462 3.94,19.9 1.773,14.975 -0.395,10.049 0,0 0,0 Z" /></g><g
           transform="translate(334.632,377.8574)"
           id="g688"><path
             id="path690"
             style="fill:#1a2e35;fill-opacity:1;fill-rule:nonzero;stroke:none"
             d="m 0,0 c 0,0 11.23,-18.521 19.703,-17.733 8.473,0.788 11.034,4.729 11.034,4.729 l 5.714,-7.685 c 0,0 -6.107,-2.561 -4.926,-5.714 1.183,-3.152 6.502,-10.245 6.502,-10.245 L 33.693,-55.17 c 0,0 3.35,-0.591 3.941,0.591 0.591,1.182 3.547,8.473 3.547,8.473 0,0 1.181,0.788 2.561,1.182 1.379,0.394 3.153,0 3.153,0 0,0 2.167,7.29 2.955,7.487 0.788,0.197 8.67,2.365 11.626,10.049 2.955,7.684 -1.578,19.901 -11.823,29.555 -10.246,9.655 -31.92,12.217 -33.102,13.99 -1.183,1.774 5.516,-0.788 4.137,3.153 C 19.31,23.25 10.64,28.374 -0.395,22.856 -11.429,17.339 -9.853,11.231 -8.67,9.261 l 1.183,-1.97 c 0,0 -9.261,3.152 -15.764,-0.789 -6.502,-3.94 -9.654,-11.822 -6.699,-12.61 2.956,-0.788 6.699,0.985 6.699,0.985 0,0 -3.94,-6.502 -2.758,-7.881 1.182,-1.379 7.29,-6.896 7.29,-6.896 0,0 2.365,13.792 7.29,15.762 C -6.503,-2.167 0,0 0,0" /></g><g
           transform="translate(334.632,377.8574)"
           id="g692"><path
             id="path694"
             style="fill:none;stroke:#1a2e35;stroke-width:1;stroke-linecap:butt;stroke-linejoin:miter;stroke-miterlimit:10;stroke-dasharray:none;stroke-opacity:1"
             d="m 0,0 c 0,0 11.23,-18.521 19.703,-17.733 8.473,0.788 11.034,4.729 11.034,4.729 l 5.714,-7.685 c 0,0 -6.107,-2.561 -4.926,-5.714 1.183,-3.152 6.502,-10.245 6.502,-10.245 L 33.693,-55.17 c 0,0 3.35,-0.591 3.941,0.591 0.591,1.182 3.547,8.473 3.547,8.473 0,0 1.181,0.788 2.561,1.182 1.379,0.394 3.153,0 3.153,0 0,0 2.167,7.29 2.955,7.487 0.788,0.197 8.67,2.365 11.626,10.049 2.955,7.684 -1.578,19.901 -11.823,29.555 -10.246,9.655 -31.92,12.217 -33.102,13.99 -1.183,1.774 5.516,-0.788 4.137,3.153 C 19.31,23.25 10.64,28.374 -0.395,22.856 -11.429,17.339 -9.853,11.231 -8.67,9.261 l 1.183,-1.97 c 0,0 -9.261,3.152 -15.764,-0.789 -6.502,-3.94 -9.654,-11.822 -6.699,-12.61 2.956,-0.788 6.699,0.985 6.699,0.985 0,0 -3.94,-6.502 -2.758,-7.881 1.182,-1.379 7.29,-6.896 7.29,-6.896 0,0 2.365,13.792 7.29,15.762 C -6.503,-2.167 0,0 0,0 Z" /></g><g
           transform="translate(331.0851,351.2578)"
           id="g696"><path
             id="path698"
             style="fill:none;stroke:#1a2e35;stroke-width:1;stroke-linecap:butt;stroke-linejoin:miter;stroke-miterlimit:10;stroke-dasharray:none;stroke-opacity:1"
             d="M 0,0 1.773,-5.714 -8.275,-24.63 2.364,-28.768" /></g><g
           transform="translate(329.1144,353.4248)"
           id="g700"><path
             id="path702"
             style="fill:#1a2e35;fill-opacity:1;fill-rule:nonzero;stroke:none"
             d="M 0,0 C 0,0 -4.729,3.744 -8.669,2.759 -12.61,1.773 -10.246,1.183 -7.487,0.197 -4.729,-0.788 0.788,-3.35 0,0" /></g><g
           transform="translate(329.1144,353.4248)"
           id="g704"><path
             id="path706"
             style="fill:none;stroke:#1a2e35;stroke-width:1;stroke-linecap:butt;stroke-linejoin:miter;stroke-miterlimit:10;stroke-dasharray:none;stroke-opacity:1"
             d="M 0,0 C 0,0 -4.729,3.744 -8.669,2.759 -12.61,1.773 -10.246,1.183 -7.487,0.197 -4.729,-0.788 0.788,-3.35 0,0 Z" /></g><g
           transform="translate(343.6954,354.2134)"
           id="g708"><path
             id="path710"
             style="fill:#1a2e35;fill-opacity:1;fill-rule:nonzero;stroke:none"
             d="m 0,0 c 0,0 -4.532,-1.183 -2.364,-2.167 2.167,-0.986 8.669,0.984 11.23,0 2.562,-0.986 5.911,-4.335 5.715,-2.759 -0.197,1.576 -1.773,4.729 -5.32,5.911 C 5.714,2.167 0,0 0,0" /></g><g
           transform="translate(343.6954,354.2134)"
           id="g712"><path
             id="path714"
             style="fill:none;stroke:#1a2e35;stroke-width:1;stroke-linecap:butt;stroke-linejoin:miter;stroke-miterlimit:10;stroke-dasharray:none;stroke-opacity:1"
             d="m 0,0 c 0,0 -4.532,-1.183 -2.364,-2.167 2.167,-0.986 8.669,0.984 11.23,0 2.562,-0.986 5.911,-4.335 5.715,-2.759 -0.197,1.576 -1.773,4.729 -5.32,5.911 C 5.714,2.167 0,0 0,0 Z" /></g><g
           transform="translate(326.5089,344.6807)"
           id="g716"><path
             id="path718"
             style="fill:#1a2e35;fill-opacity:1;fill-rule:nonzero;stroke:none"
             d="m 0,0 c -0.345,-1.428 -1.311,-2.42 -2.157,-2.215 -0.846,0.204 -1.252,1.528 -0.907,2.956 0.345,1.427 1.311,2.42 2.157,2.215 C -0.061,2.751 0.346,1.428 0,0" /></g><g
           transform="translate(347.9865,339.0649)"
           id="g720"><path
             id="path722"
             style="fill:#1a2e35;fill-opacity:1;fill-rule:nonzero;stroke:none"
             d="m 0,0 c -0.346,-1.428 -1.312,-2.419 -2.157,-2.215 -0.847,0.205 -1.253,1.528 -0.907,2.956 0.344,1.428 1.31,2.42 2.157,2.215 C -0.062,2.751 0.345,1.428 0,0" /></g><g
           transform="translate(316.7013,320.126)"
           id="g724"><path
             id="path726"
             style="fill:none;stroke:#1a2e35;stroke-width:1;stroke-linecap:butt;stroke-linejoin:miter;stroke-miterlimit:10;stroke-dasharray:none;stroke-opacity:1"
             d="M 0,0 8.078,-5.32" /></g><g
           transform="translate(399.8009,272.3154)"
           id="g728"><path
             id="path730"
             style="fill:#5ae4a7;fill-opacity:1;fill-rule:nonzero;stroke:#1a2e35;stroke-width:1;stroke-linecap:butt;stroke-linejoin:miter;stroke-miterlimit:10;stroke-dasharray:none;stroke-opacity:1"
             d="m 0,0 c 0,0 27.903,-10.71 33.259,-26.776 5.355,-16.067 -1.409,-36.361 -4.228,-44.817 -2.818,-8.455 -20.294,-41.433 -23.112,-49.325 -2.819,-7.893 -7.047,-17.476 -7.047,-17.476 0,0 -3.946,23.677 -14.656,38.333 -10.711,14.658 -13.248,27.905 -13.248,27.905 0,0 19.448,34.386 24.522,45.097" /></g><g
           transform="translate(373.7277,206.1152)"
           id="g732"><path
             id="path734"
             style="fill:#5ae4a7;fill-opacity:1;fill-rule:nonzero;stroke:none"
             d="M 0,0 C 0,0 5.709,2.854 7.612,1.903 9.515,0.952 33.938,-12.053 37.11,-26.961 40.282,-41.868 35.524,-54.556 32.67,-59.948 29.815,-65.341 24.423,-75.808 20.3,-77.076 16.176,-78.345 12.687,-44.406 4.123,-26.644 -4.441,-8.881 0,0 0,0" /></g><g
           transform="translate(373.7277,206.1152)"
           id="g736"><path
             id="path738"
             style="fill:none;stroke:#1a2e35;stroke-width:1;stroke-linecap:butt;stroke-linejoin:miter;stroke-miterlimit:10;stroke-dasharray:none;stroke-opacity:1"
             d="M 0,0 C 0,0 5.709,2.854 7.612,1.903 9.515,0.952 33.938,-12.053 37.11,-26.961 40.282,-41.868 35.524,-54.556 32.67,-59.948 29.815,-65.341 24.423,-75.808 20.3,-77.076 16.176,-78.345 12.687,-44.406 4.123,-26.644 -4.441,-8.881 0,0 0,0 Z" /></g><g
           transform="translate(383.171,222.4258)"
           id="g740"><path
             id="path742"
             style="fill:none;stroke:#1a2e35;stroke-width:1;stroke-linecap:butt;stroke-linejoin:miter;stroke-miterlimit:10;stroke-dasharray:none;stroke-opacity:1"
             d="M 0,0 C 0,0 5.073,17.193 7.046,23.959" /></g><g
           transform="translate(332.2667,283.4771)"
           id="g744"><path
             id="path746"
             style="fill:#ffffff;fill-opacity:1;fill-rule:nonzero;stroke:none"
             d="m 0,0 c 0,0 -7.881,11.034 -13.989,18.324 -6.109,7.291 -12.413,11.626 -14.581,11.034 -2.167,-0.59 -2.955,-2.758 -1.576,-5.319 1.379,-2.562 7.881,-8.276 9.064,-9.852 1.182,-1.577 2.955,-7.291 2.955,-7.291 0,0 -5.714,-0.394 -6.699,-1.576 -0.986,-1.182 -2.364,-4.335 -2.364,-4.335 0,0 -1.971,-0.985 -2.956,-2.561 -0.985,-1.577 -0.985,-1.971 -1.182,-2.759 -0.197,-0.788 -2.956,-2.167 -2.759,-5.714 0.197,-3.547 3.547,-8.67 4.729,-11.034 1.182,-2.364 9.852,-12.807 11.428,-14.581 1.576,-1.773 10.64,-17.536 13.004,-22.856 2.364,-5.32 25.221,-66.992 31.92,-76.253 6.699,-9.261 19.113,-18.128 25.813,-21.28 6.699,-3.153 11.427,2.168 14.58,8.867 3.153,6.699 5.911,20.098 -0.197,35.466 -6.108,15.369 -18.127,28.57 -27.388,36.452 -9.261,7.882 -26.6,27.585 -28.571,31.132 -1.97,3.547 -4.531,11.428 -4.531,11.428 0,0 5.122,14.975 5.517,18.521 0.394,3.547 -1.576,9.852 -0.986,12.611 0.591,2.758 2.957,8.275 3.941,10.639 0.985,2.365 4.335,6.306 2.561,8.079 C 15.961,18.916 8.67,16.748 6.108,12.61 3.547,8.473 0,0 0,0" /></g><g
           transform="translate(332.2667,283.4771)"
           id="g748"><path
             id="path750"
             style="fill:none;stroke:#1a2e35;stroke-width:1;stroke-linecap:butt;stroke-linejoin:miter;stroke-miterlimit:10;stroke-dasharray:none;stroke-opacity:1"
             d="m 0,0 c 0,0 -7.881,11.034 -13.989,18.324 -6.109,7.291 -12.413,11.626 -14.581,11.034 -2.167,-0.59 -2.955,-2.758 -1.576,-5.319 1.379,-2.562 7.881,-8.276 9.064,-9.852 1.182,-1.577 2.955,-7.291 2.955,-7.291 0,0 -5.714,-0.394 -6.699,-1.576 -0.986,-1.182 -2.364,-4.335 -2.364,-4.335 0,0 -1.971,-0.985 -2.956,-2.561 -0.985,-1.577 -0.985,-1.971 -1.182,-2.759 -0.197,-0.788 -2.956,-2.167 -2.759,-5.714 0.197,-3.547 3.547,-8.67 4.729,-11.034 1.182,-2.364 9.852,-12.807 11.428,-14.581 1.576,-1.773 10.64,-17.536 13.004,-22.856 2.364,-5.32 25.221,-66.992 31.92,-76.253 6.699,-9.261 19.113,-18.128 25.813,-21.28 6.699,-3.153 11.427,2.168 14.58,8.867 3.153,6.699 5.911,20.098 -0.197,35.466 -6.108,15.369 -18.127,28.57 -27.388,36.452 -9.261,7.882 -26.6,27.585 -28.571,31.132 -1.97,3.547 -4.531,11.428 -4.531,11.428 0,0 5.122,14.975 5.517,18.521 0.394,3.547 -1.576,9.852 -0.986,12.611 0.591,2.758 2.957,8.275 3.941,10.639 0.985,2.365 4.335,6.306 2.561,8.079 C 15.961,18.916 8.67,16.748 6.108,12.61 3.547,8.473 0,0 0,0 Z" /></g><g
           transform="translate(271.3654,240.8057)"
           id="g752"><path
             id="path754"
             style="fill:#5ae4a7;fill-opacity:1;fill-rule:nonzero;stroke:#1a2e35;stroke-width:1;stroke-linecap:butt;stroke-linejoin:miter;stroke-miterlimit:10;stroke-dasharray:none;stroke-opacity:1"
             d="M 0,0 C 0.596,3.131 1.034,5.297 1.034,5.297" /></g><g
           transform="translate(269.5812,273.1611)"
           id="g756"><path
             id="path758"
             style="fill:#5ae4a7;fill-opacity:1;fill-rule:nonzero;stroke:#1a2e35;stroke-width:1;stroke-linecap:butt;stroke-linejoin:miter;stroke-miterlimit:10;stroke-dasharray:none;stroke-opacity:1"
             d="m 0,0 c 0,0 -14.939,-1.973 -30.441,-18.603 -15.502,-16.629 -8.738,-56.09 -7.329,-64.264 1.41,-8.174 3.665,-33.26 3.665,-33.26 l 39.742,13.248 c 0,0 -6.483,44.252 -7.047,48.198 -0.284,1.994 0.799,9.028 1.939,15.497" /></g><g
           transform="translate(231.5299,165.7725)"
           id="g760"><path
             id="path762"
             style="fill:#5ae4a7;fill-opacity:1;fill-rule:nonzero;stroke:none"
             d="m 0,0 c 0,0 3.946,-21.14 5.919,-22.268 1.973,-1.127 32.696,7.33 36.078,7.893 3.382,0.563 5.356,-0.282 5.356,2.537 0,2.818 -2.819,16.066 -4.51,18.32 C 41.151,8.737 4.51,3.946 1.409,3.101 -1.691,2.255 0,0 0,0" /></g><g
           transform="translate(231.5299,165.7725)"
           id="g764"><path
             id="path766"
             style="fill:none;stroke:#1a2e35;stroke-width:1;stroke-linecap:butt;stroke-linejoin:miter;stroke-miterlimit:10;stroke-dasharray:none;stroke-opacity:1"
             d="m 0,0 c 0,0 3.946,-21.14 5.919,-22.268 1.973,-1.127 32.696,7.33 36.078,7.893 3.382,0.563 5.356,-0.282 5.356,2.537 0,2.818 -2.819,16.066 -4.51,18.32 C 41.151,8.737 4.51,3.946 1.409,3.101 -1.691,2.255 0,0 0,0 Z" /></g><g
           transform="translate(254.0387,182.1104)"
           id="g768"><path
             id="path770"
             style="fill:none;stroke:#1a2e35;stroke-width:1;stroke-linecap:butt;stroke-linejoin:miter;stroke-miterlimit:10;stroke-dasharray:none;stroke-opacity:1"
             d="m 0,0 c 11.4,-4.537 20.334,-9.855 20.334,-9.855 0,0 -9.584,18.039 -13.529,21.703" /></g><g
           transform="translate(248.7233,184.0928)"
           id="g772"><path
             id="path774"
             style="fill:none;stroke:#1a2e35;stroke-width:1;stroke-linecap:butt;stroke-linejoin:miter;stroke-miterlimit:10;stroke-dasharray:none;stroke-opacity:1"
             d="M 0,0 C 1.131,-0.393 2.25,-0.8 3.349,-1.218" /></g><g
           transform="translate(341.1642,91.8213)"
           id="g776"><path
             id="path778"
             style="fill:none;stroke:#1a2e35;stroke-width:1;stroke-linecap:butt;stroke-linejoin:miter;stroke-miterlimit:10;stroke-dasharray:none;stroke-opacity:1"
             d="M 0,0 C 7.29,2.599 14,5.461 18.049,8.277" /></g><g
           transform="translate(306.7867,81.7773)"
           id="g780"><path
             id="path782"
             style="fill:none;stroke:#1a2e35;stroke-width:1;stroke-linecap:butt;stroke-linejoin:miter;stroke-miterlimit:10;stroke-dasharray:none;stroke-opacity:1"
             d="M 0,0 C 0,0 15.573,3.695 30.351,8.652" /></g><g
           transform="translate(372.2823,101.2705)"
           id="g784"><path
             id="path786"
             style="fill:none;stroke:#1a2e35;stroke-width:1;stroke-linecap:butt;stroke-linejoin:miter;stroke-miterlimit:10;stroke-dasharray:none;stroke-opacity:1"
             d="M 0,0 C -7.658,-3.816 -19.79,-9.405 -29.699,-11.883" /></g><g
           transform="translate(379.7882,105.1719)"
           id="g788"><path
             id="path790"
             style="fill:none;stroke:#1a2e35;stroke-width:1;stroke-linecap:butt;stroke-linejoin:miter;stroke-miterlimit:10;stroke-dasharray:none;stroke-opacity:1"
             d="M 0,0 C 0,0 -1.57,-0.867 -4.175,-2.212" /></g></g></g><g
       id="g792"><g
         clip-path="url(#clipPath798)"
         id="g794"><g
           transform="translate(116.1227,462.8613)"
           id="g800"><path
             id="path802"
             style="fill:#1a2e35;fill-opacity:1;fill-rule:nonzero;stroke:none"
             d="m 0,0 c -67.073,-32.308 -79.796,-127.176 -37.255,-184.195 8.892,-11.918 20.516,-21.967 34.282,-27.804 47.02,-19.937 84.67,19.7 107.582,56.115 36.58,58.135 41.153,72.507 40.5,62.708 -0.653,-9.798 16.33,-20.249 26.128,31.355 C 183.762,4.145 91.408,19.146 44.66,12.935 28.986,10.852 13.805,6.65 0,0" /></g><g
           transform="translate(116.1227,462.8613)"
           id="g804"><path
             id="path806"
             style="fill:none;stroke:#1a2e35;stroke-width:1;stroke-linecap:butt;stroke-linejoin:miter;stroke-miterlimit:10;stroke-dasharray:none;stroke-opacity:1"
             d="m 0,0 c -67.073,-32.308 -79.796,-127.176 -37.255,-184.195 8.892,-11.918 20.516,-21.967 34.282,-27.804 47.02,-19.937 84.67,19.7 107.582,56.115 36.58,58.135 41.153,72.507 40.5,62.708 -0.653,-9.798 16.33,-20.249 26.128,31.355 C 183.762,4.145 91.408,19.146 44.66,12.935 28.986,10.852 13.805,6.65 0,0 Z" /></g><g
           transform="translate(266.255,351.4224)"
           id="g808"><path
             id="path810"
             style="fill:#1a2e35;fill-opacity:1;fill-rule:nonzero;stroke:none"
             d="m 0,0 c -3.933,-7.101 -3.667,-14.77 0.593,-17.13 4.261,-2.359 10.903,1.484 14.835,8.585 3.933,7.101 3.668,14.77 -0.593,17.129 C 10.575,10.944 3.933,7.101 0,0" /></g><g
           transform="translate(266.255,351.4224)"
           id="g812"><path
             id="path814"
             style="fill:none;stroke:#1a2e35;stroke-width:1;stroke-linecap:butt;stroke-linejoin:miter;stroke-miterlimit:10;stroke-dasharray:none;stroke-opacity:1"
             d="m 0,0 c -3.933,-7.101 -3.667,-14.77 0.593,-17.13 4.261,-2.359 10.903,1.484 14.835,8.585 3.933,7.101 3.668,14.77 -0.593,17.129 C 10.575,10.944 3.933,7.101 0,0 Z" /></g><g
           transform="translate(288.6935,341.4214)"
           id="g816"><path
             id="path818"
             style="fill:#1a2e35;fill-opacity:1;fill-rule:nonzero;stroke:none"
             d="m 0,0 c -2.324,-4.196 -2.167,-8.729 0.351,-10.123 2.518,-1.395 6.442,0.877 8.767,5.073 2.324,4.196 2.167,8.729 -0.351,10.123 C 6.25,6.468 2.324,4.197 0,0" /></g><g
           transform="translate(288.6935,341.4214)"
           id="g820"><path
             id="path822"
             style="fill:none;stroke:#1a2e35;stroke-width:1;stroke-linecap:butt;stroke-linejoin:miter;stroke-miterlimit:10;stroke-dasharray:none;stroke-opacity:1"
             d="m 0,0 c -2.324,-4.196 -2.167,-8.729 0.351,-10.123 2.518,-1.395 6.442,0.877 8.767,5.073 2.324,4.196 2.167,8.729 -0.351,10.123 C 6.25,6.468 2.324,4.197 0,0 Z" /></g><g
           transform="translate(119.985,469.041)"
           id="g824"><path
             id="path826"
             style="fill:#ffffff;fill-opacity:1;fill-rule:nonzero;stroke:none"
             d="m 0,0 c -67.073,-32.308 -79.796,-127.176 -37.255,-184.195 8.892,-11.918 20.516,-21.967 34.282,-27.804 47.02,-19.937 84.67,19.7 107.582,56.115 36.58,58.135 41.153,72.507 40.5,62.708 -0.653,-9.798 16.33,-20.249 26.128,31.355 C 183.762,4.145 91.408,19.146 44.66,12.935 28.987,10.852 13.805,6.65 0,0" /></g><g
           transform="translate(119.985,469.041)"
           id="g828"><path
             id="path830"
             style="fill:none;stroke:#1a2e35;stroke-width:1;stroke-linecap:butt;stroke-linejoin:miter;stroke-miterlimit:10;stroke-dasharray:none;stroke-opacity:1"
             d="m 0,0 c -67.073,-32.308 -79.796,-127.176 -37.255,-184.195 8.892,-11.918 20.516,-21.967 34.282,-27.804 47.02,-19.937 84.67,19.7 107.582,56.115 36.58,58.135 41.153,72.507 40.5,62.708 -0.653,-9.798 16.33,-20.249 26.128,31.355 C 183.762,4.145 91.408,19.146 44.66,12.935 28.987,10.852 13.805,6.65 0,0 Z" /></g><g
           transform="translate(270.1173,357.6021)"
           id="g832"><path
             id="path834"
             style="fill:#ffffff;fill-opacity:1;fill-rule:nonzero;stroke:none"
             d="m 0,0 c -3.933,-7.101 -3.667,-14.77 0.593,-17.13 4.261,-2.359 10.903,1.484 14.835,8.585 3.933,7.101 3.668,14.77 -0.593,17.129 C 10.575,10.944 3.933,7.101 0,0" /></g><g
           transform="translate(270.1173,357.6021)"
           id="g836"><path
             id="path838"
             style="fill:none;stroke:#1a2e35;stroke-width:1;stroke-linecap:butt;stroke-linejoin:miter;stroke-miterlimit:10;stroke-dasharray:none;stroke-opacity:1"
             d="m 0,0 c -3.933,-7.101 -3.667,-14.77 0.593,-17.13 4.261,-2.359 10.903,1.484 14.835,8.585 3.933,7.101 3.668,14.77 -0.593,17.129 C 10.575,10.944 3.933,7.101 0,0 Z" /></g><g
           transform="translate(292.5558,347.6011)"
           id="g840"><path
             id="path842"
             style="fill:#ffffff;fill-opacity:1;fill-rule:nonzero;stroke:none"
             d="m 0,0 c -2.324,-4.196 -2.167,-8.729 0.351,-10.123 2.518,-1.395 6.443,0.877 8.767,5.073 2.324,4.196 2.167,8.729 -0.351,10.124 C 6.25,6.468 2.324,4.197 0,0" /></g><g
           transform="translate(292.5558,347.6011)"
           id="g844"><path
             id="path846"
             style="fill:none;stroke:#1a2e35;stroke-width:1;stroke-linecap:butt;stroke-linejoin:miter;stroke-miterlimit:10;stroke-dasharray:none;stroke-opacity:1"
             d="m 0,0 c -2.324,-4.196 -2.167,-8.729 0.351,-10.123 2.518,-1.395 6.443,0.877 8.767,5.073 2.324,4.196 2.167,8.729 -0.351,10.124 C 6.25,6.468 2.324,4.197 0,0 Z" /></g></g></g><g
       id="g848"><g
         clip-path="url(#clipPath854)"
         id="g850"><g
           transform="translate(130.0968,379.5293)"
           id="g856"><path
             id="path858"
             style="fill:#cdcdcd;fill-opacity:1;fill-rule:nonzero;stroke:none"
             d="m 0,0 c 13.593,0 24.613,11.02 24.613,24.613 0,13.594 -11.02,24.614 -24.613,24.614 -13.594,0 -24.614,-11.02 -24.614,-24.614 C -24.614,11.02 -13.594,0 0,0 m -45.527,18.018 v 13.21 h 8.045 c 0.387,2.211 0.956,4.361 1.708,6.423 l -6.952,4.014 6.605,11.44 6.968,-4.022 c 1.427,1.698 2.999,3.27 4.698,4.696 l -4.021,6.964 11.44,6.605 4.016,-6.955 c 2.063,0.752 4.212,1.319 6.424,1.706 v 8.041 h 13.21 v -8.044 c 2.212,-0.388 4.362,-0.957 6.424,-1.709 l 4.013,6.951 11.441,-6.605 -4.023,-6.967 c 1.698,-1.427 3.27,-2.999 4.697,-4.698 l 6.963,4.021 6.605,-11.441 -6.954,-4.015 c 0.751,-2.063 1.319,-4.212 1.705,-6.424 h 8.042 V 17.999 H 37.482 C 37.094,15.787 36.525,13.638 35.773,11.575 L 42.725,7.562 36.12,-3.878 29.153,0.144 c -1.427,-1.698 -2.999,-3.27 -4.698,-4.696 l 4.02,-6.965 -11.44,-6.605 -4.015,6.955 c -2.063,-0.75 -4.213,-1.318 -6.425,-1.705 v -8.042 h -13.21 v 8.045 c -2.211,0.388 -4.361,0.956 -6.424,1.708 l -4.013,-6.951 -11.44,6.605 4.023,6.967 c -1.699,1.428 -3.271,2.999 -4.697,4.699 l -6.964,-4.021 -6.605,11.44 6.955,4.015 c -0.751,2.064 -1.319,4.213 -1.706,6.425 z" /></g><g
           transform="translate(140.3258,305.2676)"
           id="g860"><path
             id="path862"
             style="fill:#cdcdcd;fill-opacity:1;fill-rule:nonzero;stroke:none"
             d="M 0,0 C 11.051,0 20.009,8.958 20.009,20.01 20.009,31.061 11.051,40.019 0,40.019 -11.051,40.019 -20.009,31.061 -20.009,20.01 -20.009,8.958 -11.051,0 0,0 m -37.011,14.648 v 10.739 h 6.54 c 0.315,1.798 0.778,3.545 1.389,5.222 l -5.651,3.263 5.369,9.299 5.664,-3.27 c 1.16,1.381 2.438,2.659 3.82,3.818 l -3.269,5.662 9.3,5.369 3.265,-5.653 c 1.676,0.61 3.424,1.072 5.222,1.386 V 57.02 H 5.377 v -6.54 c 1.798,-0.315 3.545,-0.777 5.222,-1.389 l 3.263,5.652 9.3,-5.37 -3.27,-5.664 c 1.38,-1.16 2.658,-2.438 3.817,-3.819 l 5.662,3.268 5.37,-9.3 -5.654,-3.264 c 0.61,-1.677 1.072,-3.425 1.386,-5.223 H 37.01 V 14.632 H 30.47 C 30.155,12.834 29.693,11.087 29.082,9.41 l 5.651,-3.263 -5.37,-9.299 -5.664,3.27 C 22.539,-1.263 21.261,-2.541 19.88,-3.7 l 3.268,-5.662 -9.3,-5.369 -3.264,5.653 C 8.907,-9.688 7.16,-10.149 5.361,-10.464 v -6.537 H -5.377 v 6.54 c -1.798,0.315 -3.546,0.777 -5.223,1.389 l -3.262,-5.652 -9.3,5.37 3.27,5.664 c -1.381,1.16 -2.659,2.438 -3.818,3.819 l -5.662,-3.268 -5.369,9.3 5.654,3.264 c -0.611,1.678 -1.072,3.425 -1.387,5.223 z" /></g><g
           transform="translate(199.7399,333.3052)"
           id="g864"><path
             id="path866"
             style="fill:#cdcdcd;fill-opacity:1;fill-rule:nonzero;stroke:none"
             d="m 0,0 c 8.417,0 15.241,6.824 15.241,15.241 0,8.418 -6.824,15.242 -15.241,15.242 -8.417,0 -15.241,-6.824 -15.241,-15.242 C -15.241,6.824 -8.417,0 0,0 m -28.191,11.157 v 8.18 h 4.982 c 0.24,1.37 0.592,2.701 1.057,3.978 l -4.304,2.485 4.09,7.084 4.314,-2.49 c 0.884,1.051 1.857,2.024 2.909,2.907 l -2.489,4.313 7.084,4.09 2.486,-4.307 c 1.277,0.465 2.608,0.817 3.978,1.056 v 4.98 h 8.18 v -4.982 c 1.369,-0.24 2.7,-0.592 3.978,-1.057 l 2.485,4.304 7.084,-4.09 -2.491,-4.315 c 1.052,-0.883 2.025,-1.856 2.908,-2.909 l 4.313,2.49 4.089,-7.084 -4.306,-2.486 c 0.465,-1.278 0.817,-2.609 1.056,-3.978 h 4.979 v -8.18 H 23.21 C 22.97,9.776 22.618,8.445 22.152,7.168 l 4.305,-2.485 -4.09,-7.084 -4.315,2.491 c -0.884,-1.052 -1.857,-2.026 -2.909,-2.908 l 2.49,-4.313 -7.084,-4.09 -2.487,4.307 C 6.785,-7.379 5.454,-7.731 4.084,-7.97 v -4.98 h -8.18 v 4.982 c -1.369,0.24 -2.7,0.592 -3.977,1.058 l -2.486,-4.305 -7.084,4.09 2.491,4.314 c -1.052,0.884 -2.025,1.857 -2.908,2.91 l -4.312,-2.49 -4.09,7.084 4.306,2.486 c -0.465,1.278 -0.816,2.609 -1.056,3.978 z" /></g><g
           transform="translate(228.8737,408.9751)"
           id="g868"><path
             id="path870"
             style="fill:#cdcdcd;fill-opacity:1;fill-rule:nonzero;stroke:none"
             d="m 0,0 c 8.418,0 15.242,6.824 15.242,15.241 0,8.418 -6.824,15.241 -15.242,15.241 -8.417,0 -15.241,-6.823 -15.241,-15.241 C -15.241,6.824 -8.417,0 0,0 m -28.191,11.157 v 8.18 h 4.982 c 0.24,1.37 0.592,2.7 1.057,3.977 l -4.304,2.486 4.09,7.084 4.314,-2.491 c 0.884,1.052 1.857,2.025 2.909,2.908 l -2.489,4.312 7.084,4.09 2.486,-4.307 c 1.277,0.466 2.608,0.817 3.978,1.057 v 4.979 h 8.18 v -4.981 c 1.369,-0.241 2.7,-0.593 3.978,-1.058 l 2.485,4.304 7.084,-4.09 -2.491,-4.314 c 1.052,-0.884 2.025,-1.857 2.908,-2.909 l 4.313,2.49 4.089,-7.084 -4.306,-2.487 c 0.465,-1.277 0.817,-2.608 1.056,-3.978 h 4.979 v -8.18 H 23.21 c -0.24,-1.37 -0.592,-2.7 -1.058,-3.978 l 4.305,-2.485 -4.09,-7.084 -4.315,2.491 c -0.884,-1.051 -1.857,-2.025 -2.909,-2.908 l 2.49,-4.312 -7.084,-4.09 -2.486,4.306 C 6.785,-7.38 5.454,-7.731 4.084,-7.971 v -4.979 h -8.18 v 4.981 c -1.369,0.24 -2.7,0.593 -3.977,1.058 l -2.486,-4.304 -7.084,4.09 2.492,4.314 c -1.053,0.884 -2.026,1.857 -2.909,2.909 l -4.312,-2.49 -4.09,7.084 4.307,2.487 c -0.466,1.278 -0.817,2.608 -1.056,3.978 z" /></g></g></g></g></svg>