<svg width="1272" height="1120" viewBox="0 0 1272 1120" fill="none" xmlns="http://www.w3.org/2000/svg">
<path d="M1106.02 693.5C1106.02 903.719 896.123 1074.14 637.199 1074.14C378.275 1074.14 168.378 903.719 168.378 693.5C168.378 483.281 378.275 312.866 637.199 312.866C896.123 312.866 1106.02 483.281 1106.02 693.5Z" fill="#FBEBEC"/>
<path d="M392.993 1015.81C392.993 1015.81 367.721 953.144 298.345 916.636C228.969 880.13 226.443 829.484 285.161 825.124C343.88 820.765 404.17 939.277 414.591 1009.3L392.993 1015.81Z" fill="#43B293"/>
<path d="M298.345 916.636C367.721 953.144 392.993 1015.81 392.993 1015.81L403.677 1012.59C377.752 908.202 284.536 858.874 246.971 842.906C235.716 861.924 252.269 892.39 298.345 916.636Z" fill="#369E7E"/>
<path d="M441.873 1014.28C441.873 1014.28 451.627 955.07 506.434 914.337C561.241 873.605 553.036 827.796 499.357 830.579C445.678 833.363 415.998 946.765 421.112 1010.89L441.873 1014.28Z" fill="#43B293"/>
<path d="M506.435 914.337C451.627 955.07 441.873 1014.28 441.873 1014.28L431.604 1012.6C433.316 915.82 506.901 860.843 537.362 842.202C551.411 858.012 542.834 887.286 506.435 914.337Z" fill="#369E7E"/>
<path d="M455.963 1014.28C455.963 1014.28 482.549 978.166 531.676 962.435C580.802 946.704 591.271 915.779 555.898 907.392C520.524 899.004 462.555 966.089 443.817 1008.17L455.963 1014.28Z" fill="#43B293"/>
<path d="M531.676 962.435C482.548 978.165 455.963 1014.28 455.963 1014.28L449.955 1011.26C484.286 949.529 550.342 928.224 576.275 922.044C579.854 934.844 564.302 951.988 531.676 962.435Z" fill="#369E7E"/>
<path d="M915.061 1015.81C915.061 1015.81 900.604 979.967 860.922 959.085C821.24 938.203 819.794 909.234 853.381 906.741C886.968 904.248 921.453 972.034 927.414 1012.08L915.061 1015.81Z" fill="#43B293"/>
<path d="M860.922 959.085C900.604 979.967 915.061 1015.81 915.061 1015.81L921.171 1013.97C906.342 954.259 853.023 926.045 831.536 916.911C825.098 927.789 834.567 945.217 860.922 959.085Z" fill="#369E7E"/>
<path d="M943.019 1014.94C943.019 1014.94 948.597 981.068 979.947 957.77C1011.3 934.471 1006.61 908.269 975.9 909.861C945.196 911.453 928.219 976.318 931.144 1013L943.019 1014.94Z" fill="#43B293"/>
<path d="M979.947 957.769C948.598 981.068 943.019 1014.94 943.019 1014.94L937.146 1013.98C938.124 958.617 980.214 927.171 997.637 916.509C1005.67 925.552 1000.77 942.295 979.947 957.769Z" fill="#369E7E"/>
<path d="M951.078 1014.94C951.078 1014.94 966.286 994.278 994.385 985.281C1022.49 976.283 1028.47 958.594 1008.24 953.796C988.007 948.998 954.849 987.372 944.131 1011.44L951.078 1014.94Z" fill="#43B293"/>
<path d="M994.385 985.281C966.284 994.279 951.078 1014.94 951.078 1014.94L947.642 1013.21C967.278 977.9 1005.06 965.712 1019.9 962.178C1021.94 969.499 1013.05 979.305 994.385 985.281Z" fill="#369E7E"/>
<path d="M593.109 403.159C593.109 372.215 592.557 341.562 588.851 310.908C587.969 303.616 588.87 291.452 585.093 285.008C582.823 281.131 578.085 278.928 573.365 278.344C568.646 277.759 563.867 278.555 559.183 279.348C544.941 281.758 525.519 281.886 513.909 290.861C501.485 300.467 499.801 315.256 490.886 326.663C487.759 330.662 480.674 335.479 489.28 339.722C494.651 342.37 503.566 337.398 506.76 333.643C514.198 324.897 516.658 339.314 517.138 344.689C518.167 356.147 516.644 368.371 515.762 379.816C513.885 404.162 510.125 428.385 504.508 452.234C502.137 462.302 499.423 472.395 499.162 482.697C498.903 492.999 501.338 503.728 508.265 511.791C509.512 513.242 510.987 514.65 512.9 515.198C519.976 517.223 524.08 507.149 531.13 505.052C533.404 504.376 535.873 504.598 538.221 504.187C542.652 503.409 546.232 500.484 549.57 497.676C559.955 488.934 570.481 480.037 577.869 468.986C590.789 449.663 592.787 425.887 593.109 403.159Z" fill="#012C81"/>
<path d="M795.32 927.782C795.559 927.711 795.798 927.633 796.041 927.547C810.046 922.546 799.445 902.412 797.189 893.144C791.107 868.131 767.919 856.49 742.484 851.223C740.699 850.853 738.723 850.64 737.13 851.473C735.446 852.357 734.633 854.181 734.147 855.918C731.938 863.799 734.075 872.292 738.17 879.496C746.785 894.651 759.577 909.124 774.318 919.358C780.224 923.457 787.226 930.147 795.32 927.782Z" fill="#0E1A40"/>
<path d="M750.751 849.116C736.269 858.073 738.238 866.203 747.3 876.701C756.72 887.611 783.738 923.494 801.628 923.145C818.924 922.808 813.791 884.065 803.07 870.858C798.462 865.18 795.77 858.286 789.57 854.104C777.75 846.137 763.995 840.924 750.751 849.116Z" fill="#2B2C33"/>
<path d="M806.663 171.292C806.422 170.994 806.192 170.69 805.978 170.382C802.598 165.499 803.096 158.713 803.235 153.149C803.381 147.234 803.893 141.301 803.252 135.394C803.188 134.799 803.102 134.177 802.736 133.684C802.37 133.19 801.639 132.878 801.059 133.142C800.614 133.347 800.394 133.808 800.216 134.238C799.201 136.68 798.437 139.21 797.935 141.785C797.75 142.741 797.567 143.767 796.852 144.478C794.474 146.841 792.494 142.424 792.251 140.837C791.864 138.306 792.81 135.766 792.858 133.241C792.935 129.094 795.349 123.749 794.44 119.749C794.217 118.762 793.173 117.858 792.117 118.105C791.3 118.296 790.811 119.053 790.437 119.753C788.581 123.238 787.903 127.42 786.828 131.19C786.17 133.497 786.364 136.911 784.796 138.878C782.407 141.874 780.8 138.787 780.609 136.343C780.397 133.636 780.238 130.754 780.888 128.089C781.447 125.806 783.091 123.548 782.399 121.119C781.874 119.266 778.775 116.324 776.874 118.589C776.446 119.098 776.319 119.764 776.204 120.399C775.502 124.266 774.738 128.133 774.215 132.021C773.642 136.259 774.693 141.465 771.601 145.078C770.794 146.018 769.279 146.555 768.164 145.944C767.685 145.684 767.344 145.255 767.053 144.82C765.594 142.649 765.183 140.431 764.676 137.985C763.812 133.818 764.027 129.477 763.419 125.226C763.355 124.778 763.28 124.309 762.994 123.941C762.709 123.574 762.143 123.35 761.715 123.569C761.504 123.676 761.361 123.869 761.233 124.059C757.02 130.296 760.317 141.141 761.705 147.964C762.352 151.153 763.141 154.319 764.063 157.45C764.836 160.073 766.473 163.214 766.239 165.941C766.075 167.851 764.69 169.797 762.649 170.117C759.521 170.61 756.927 167.316 753.759 167.454C753.07 167.484 752.345 167.714 751.956 168.241C751.597 168.731 751.595 169.374 751.689 169.961C752.139 172.781 754.377 175.07 756.794 176.832C762.665 181.113 769.876 183.25 776.363 186.545C782.719 189.774 788.231 194.477 795.95 194.291C799.779 194.198 803.473 192.983 806.962 191.515C809.614 190.4 812.318 189.023 813.828 186.716C817.818 179.812 810.648 176.236 806.663 171.292Z" fill="#F49069"/>
<path d="M762.403 282.402C751.111 291.295 736.405 299.249 721.707 301.968C709.694 304.189 699.184 301.074 689.612 310.776C674.462 326.136 688.088 350.166 698.825 364.503C711.942 382.018 721.541 381.448 743.266 379.176C764.049 377.002 784.506 372.14 803.837 364.738C817.96 359.33 832.47 351.628 838.479 338.61C841.414 332.252 842.015 325.212 842.58 318.316C844.985 288.927 847.382 259.222 843.715 229.83C843.068 224.637 841.437 214.061 838.194 203.398C833.209 187.008 824.412 170.41 809.513 172.834C799.706 174.429 790.216 177.69 781.66 182.409C764.811 191.697 757.936 208.848 760.839 226.009C763.167 239.774 765.494 253.538 767.822 267.304C768.353 270.443 768.862 273.77 767.545 276.702C766.508 279.01 764.459 280.782 762.403 282.402Z" fill="#D87231"/>
<g opacity="0.610001">
<path d="M838.479 338.611C841.414 332.253 842.015 325.212 842.58 318.315C844.986 288.926 847.382 259.221 843.716 229.83C843.067 224.636 841.438 214.062 838.194 203.398C834.836 192.357 829.736 181.246 822.217 175.894C827.543 188.898 844.883 237.908 819.135 271.268C789.228 310.018 855.832 321.715 783.318 334.029C739.526 341.466 730.799 318.767 730.746 299.615C727.75 300.58 724.732 301.408 721.708 301.969C709.695 304.19 699.183 301.074 689.613 310.776C679.128 321.407 682.427 336.188 689.012 349.037C699.168 357.715 714.932 369.661 729.836 380.269C733.79 380.133 738.187 379.707 743.266 379.177C764.049 377.002 784.505 372.141 803.837 364.738C817.962 359.33 832.469 351.628 838.479 338.611Z" fill="#C15A21"/>
</g>
<path d="M573.053 235.608C573.092 236.32 573.056 237.027 572.877 237.728C572.046 240.988 568.547 242.912 565.574 244.816C562.599 246.72 559.581 249.702 560.441 252.955C560.919 254.765 562.534 256.184 562.968 258.003C563.763 261.351 560.434 264.176 557.625 266.409C554.817 268.641 551.986 272.214 553.847 275.178C554.781 276.66 556.774 277.638 556.954 279.347C557.123 280.952 555.595 282.209 554.68 283.581C552.457 286.921 553.934 291.412 556.58 294.476C559.227 297.539 562.869 299.73 565.74 302.615C566.371 303.251 566.981 303.947 567.227 304.779C567.897 307.036 565.784 309.073 564.563 311.122C561.51 316.239 564.925 322.638 570.025 325.31C576.419 328.664 580.085 326.956 582.109 335.001C582.961 338.391 585.169 342.479 588.909 342.144C592.84 341.793 594.21 336.879 597.706 335.179C602.709 332.747 608.792 337.973 614.2 336.459C616.243 335.886 617.878 334.407 619.918 333.822C623.426 332.815 627.257 334.649 630.852 333.952C632.88 333.558 634.633 332.393 636.59 331.764C640.066 330.647 643.872 331.284 647.552 331.202C661.075 330.902 667.659 318.746 674.352 309.866C675.918 307.79 677.556 305.456 677.223 302.944C676.814 299.836 673.458 297.348 673.814 294.235C674.26 290.324 680.386 287.324 678.45 283.824C677.446 282.007 674.784 281.612 673.305 280.099C669.699 276.413 674.744 271.842 673.737 267.922C672.443 262.887 668.361 262.974 669.222 256.522C670.136 249.655 672.089 235.428 682.764 238.998C685.457 239.898 688.165 241.279 690.999 240.896C692.475 240.698 693.826 240.029 695.084 239.285C704.902 233.47 705.573 200.955 688.618 202.081C685.785 202.27 682.91 203.614 680.224 202.756C676.227 201.48 675.333 196.258 671.613 194.397C666.577 191.879 660.79 197.017 655.075 196.727C652.156 196.579 649.564 195.014 646.75 194.277C640.526 192.646 634.549 189.571 627.906 189.175C626.518 189.092 625.015 189.128 623.889 189.889C622.498 190.826 622.109 192.548 621.439 194.017C619.569 198.118 614.595 200.798 609.823 200.279C606.451 199.911 602.598 198.254 600 200.278C596.327 203.137 599.439 208.912 596.632 212.529C594.033 215.88 586.629 218.325 582.718 219.839C578.059 221.643 572.943 224.499 572.386 229.15C572.13 231.296 572.936 233.473 573.053 235.608Z" fill="#2B0600"/>
<path d="M719.803 268.133C719.589 264.483 716.898 260.893 713.051 259.874C719.203 256.784 719.198 247.04 713.043 243.956C710.398 242.632 706.714 242.067 705.84 239.403C705.257 237.626 706.313 235.668 705.806 233.87C705.021 231.089 701.288 230.319 698.339 229.42C694.236 228.17 690.639 225.773 686.585 224.389C682.531 223.004 677.468 222.865 674.397 225.682C672.989 226.973 671.922 228.893 669.96 229.165C668.856 229.318 667.705 228.876 666.628 229.15C664.807 229.613 664.254 231.713 664.021 233.45C663.463 237.631 663.625 243.028 667.846 244.596C669.742 245.3 671.872 244.919 673.911 244.779C690.061 243.669 697.243 256.959 698.335 270.007C698.738 274.821 698.748 281.977 694.55 285.517C690.087 289.277 681.342 288.38 678.991 294.621C678.376 296.253 678.584 298.085 677.889 299.688C676.97 301.808 674.578 303.284 674.15 305.532C673.813 307.304 674.803 309.036 675.15 310.806C675.801 314.112 674.201 317.562 674.994 320.842C675.873 324.478 679.406 326.954 682.697 329.102C688.217 332.707 695.186 337.255 701.1 340.09C707.916 343.356 712.957 337.94 716.184 332.201C716.533 331.579 716.873 330.921 717.464 330.484C718.887 329.431 720.954 330.094 722.775 330.077C725.65 330.048 728.336 327.922 728.814 325.296C729.291 322.671 727.506 319.846 724.801 318.948C723.664 318.569 722.349 318.469 721.484 317.689C720.617 316.909 720.934 315.099 722.137 315.19C719.684 314.324 716.946 313.198 716.108 310.892C715.521 309.277 716.052 307.501 715.82 305.811C715.553 303.855 714.29 302.148 713.653 300.267C712.483 296.814 715.283 293.984 717.618 291.612C719.263 289.942 720.923 287.936 720.693 285.686C720.386 282.685 716.833 280.571 716.709 277.559C716.62 275.397 718.328 273.576 719.206 271.571C719.687 270.473 719.872 269.3 719.803 268.133" fill="#2B0600"/>
<path d="M347.516 554.481C351.198 556.144 363.527 537.522 365.506 534.348C366.469 532.802 367.314 530.877 366.417 529.299C365.475 527.642 362.946 527.252 361.089 527.987C359.229 528.721 357.909 530.265 356.734 531.788C354.2 535.076 340.44 551.275 347.516 554.481Z" fill="#7C4237"/>
<path d="M705.21 560.352C709.794 561.131 714.449 559.629 718.755 557.975C744.719 548.003 767.701 531.464 784.553 510.627C787.768 506.65 790.912 501.906 789.838 497.04C789.129 493.835 786.707 491.235 784.635 488.586C771.267 471.479 771.379 449.626 770.758 429.434C770.055 406.599 766.205 388.964 755.446 368.443C752.302 362.445 749.157 356.447 746.012 350.447C739.725 338.458 730.647 327.032 718.907 319.032C710.178 313.082 698.999 311.396 688.286 309.883C688.829 317.669 696.266 323.297 700.238 330.18C704.061 336.806 704.612 344.593 704.766 352.105C705.186 372.478 703.453 393.309 700.833 413.483C698.175 433.956 695.388 454.418 692.86 474.905C690.259 495.97 686.475 526.932 692.213 547.586C693.876 553.569 698.648 559.238 705.21 560.352Z" fill="#C15A21"/>
<path d="M789.837 497.039C789.13 493.834 786.706 491.235 784.636 488.585C771.268 471.479 771.38 449.625 770.759 429.434C770.667 426.508 770.522 423.671 770.321 420.897C769.89 443.136 775.434 464.721 760.287 478.241C745.13 491.771 739.068 476.964 745.13 431.778C751.193 386.591 737.113 365.912 737.113 365.912L704.197 343.066C704.567 346.063 704.704 349.105 704.766 352.105C705.187 372.479 703.452 393.309 700.833 413.483C698.175 433.956 695.388 454.418 692.86 474.904C690.26 495.97 686.476 526.933 692.214 547.586C693.877 553.57 698.649 559.238 705.209 560.352C709.796 561.132 714.449 559.629 718.755 557.975C744.719 548.003 767.701 531.464 784.552 510.627C787.767 506.65 790.912 501.906 789.837 497.039Z" fill="#AA4918"/>
<path d="M674.212 325.395C676.392 326.778 678.928 327.427 681.426 328.051C683.479 328.562 685.559 329.065 687.676 329.164C685.893 326.188 683.938 323.425 681.711 321.165C680.892 320.332 679.947 319.586 679.331 318.613C678.562 317.401 678.377 315.941 678.454 314.537C679.006 304.391 691.725 297.969 691.115 287.757C685.6 287.236 680.76 281.773 674.698 284.358C672.928 285.112 671.557 286.493 670.423 287.961C666.944 292.465 665.322 297.929 663.595 303.237C664.393 308.81 666.189 314.247 668.551 319.262C669.704 321.711 671.991 323.987 674.212 325.395Z" fill="#E08063"/>
<path d="M689.51 239.606C685.873 237.398 681.472 236.659 676.224 238.697C672.711 240.06 670.694 243.535 669.731 246.95C668.667 250.715 667.086 254.243 665.931 257.679C664.994 260.462 665.314 266.084 662.664 267.981C659.711 270.085 657.045 268.74 656.169 273.217C655.603 276.121 657.727 279.052 659.704 281.08C661.446 282.867 664.604 284.074 665.565 286.311C666.901 289.416 667.712 292.711 669.171 295.811C670.478 298.583 673.068 301.16 675.581 302.755C678.049 304.321 680.923 305.057 683.752 305.762C686.523 306.453 689.333 307.137 692.21 307.038C695.088 306.94 698.086 305.968 700.173 303.78C701.43 302.463 702.289 300.791 703.034 299.104C709.563 284.336 707.148 270.006 701.251 255.582C698.964 249.987 695.155 243.03 689.51 239.606Z" fill="#F49069"/>
<path d="M687.195 262.711C687.278 262.682 687.361 262.651 687.443 262.62C688.316 262.294 688.297 261.591 687.462 261.214C687.153 261.073 686.805 261.024 686.464 260.977C685.947 260.904 685.603 260.98 685.116 261.061C684.711 261.129 684.29 261.061 683.871 261.112C683.528 261.152 683.196 261.251 682.867 261.352C682.174 261.565 681.486 261.787 680.802 262.018C679.104 262.588 677.708 263.585 676.412 264.724C676.18 264.928 675.948 265.134 675.776 265.382C675.454 265.845 675.374 266.411 675.302 266.955C675.243 267.395 675.203 267.893 675.518 268.225C676.344 269.102 676.961 267.78 677.403 267.327C678.094 266.62 678.89 266.005 679.757 265.494C682.115 264.234 684.689 263.623 687.195 262.711Z" fill="#2B0600"/>
<path d="M708.004 262.443C707.976 262.369 707.936 262.299 707.879 262.244C707.597 261.975 707.333 261.851 707.086 261.525C706.511 260.767 705.786 260.181 704.884 259.772C703.681 259.226 701.577 258.517 700.264 258.971C699.808 259.128 699.401 259.386 698.998 259.641C698.625 259.88 698.325 260.456 698.565 260.882C698.706 261.135 699.074 261.172 699.382 261.178C701.212 261.215 703.04 261.334 704.86 261.532C706.086 261.667 706.729 262.064 707.643 262.823C707.975 263.1 708.108 262.738 708.004 262.443Z" fill="#2B0600"/>
<path d="M705.126 284.693C705.093 284.632 705.041 284.58 704.964 284.54C704.675 284.393 704.017 284.695 703.727 284.777C702.796 285.044 701.862 285.297 700.923 285.533C699.083 285.994 697.226 286.389 695.354 286.685C693.542 286.974 691.724 287.143 689.904 287.352C688.954 287.46 686.16 287.789 685.911 289.031C685.714 290.015 687.14 291.054 687.76 291.627C688.647 292.448 689.665 293.137 690.771 293.648C692.993 294.674 695.56 294.934 697.949 294.189C700.478 293.399 702.314 291.494 703.532 289.226C704.126 288.122 704.68 286.901 705.002 285.692C705.086 285.382 705.27 284.954 705.126 284.693Z" fill="white"/>
<path d="M697.056 347.507C694.148 342.021 691.266 335.152 687.677 329.164C685.558 329.065 683.48 328.562 681.427 328.051C678.929 327.427 676.391 326.778 674.213 325.395C671.992 323.987 669.704 321.711 668.551 319.262C666.188 314.247 664.392 308.811 663.596 303.237C663.553 303.37 663.509 303.502 663.467 303.634C662.637 306.176 661.696 308.799 659.711 310.714C650.81 319.292 632.518 312.682 621.994 311.993C619.035 311.798 615.935 311.72 613.249 312.885C609.927 314.326 607.837 317.389 605.95 320.303C601.539 327.121 597.093 334.45 597.232 342.399C597.329 347.984 599.702 353.3 602.22 358.375C610.013 374.075 620.98 390.141 638.563 395.915C647.03 398.695 656.272 398.775 665.201 397.861C679.394 396.408 695.054 391.095 700.368 378.818C704.392 369.525 701.718 356.302 697.056 347.507Z" fill="#F49069"/>
<path d="M679.33 318.614C679.947 319.586 680.892 320.333 681.711 321.165C683.937 323.426 685.893 326.188 687.677 329.163C691.266 335.153 694.148 342.022 697.056 347.508C697.2 347.778 697.336 348.067 697.475 348.346C699.465 343.99 700.88 339.431 701.272 334.728C702.088 324.91 694.007 303.462 679.554 312.376C679.234 312.572 678.935 312.791 678.636 313.01C678.548 313.51 678.48 314.018 678.454 314.537C678.376 315.94 678.562 317.402 679.33 318.614Z" fill="#AD6D57"/>
<path d="M350.329 482.916C349.334 486.631 350.794 490.355 352.408 493.552C360.309 509.192 372.71 521.811 378.046 538.91C378.965 541.857 379.784 545.105 382.04 546.897C384.61 548.94 388.447 548.41 391.35 546.439C394.252 544.468 396.375 541.311 398.156 538.092C405.326 525.125 408.143 508.914 403.42 495.645C398.749 482.52 388.06 477.855 376.664 473.913C369.419 471.406 353.326 471.721 350.329 482.916Z" fill="#BF5E34"/>
<path d="M320.079 555.629C318.297 557.652 305.333 569.919 303.273 563.947C302.981 563.102 303.169 562.182 303.441 561.332C304.49 558.053 307.098 554.643 309.527 552.096C312.522 548.956 316.267 546.523 319.973 544.122C321.287 543.271 332.468 536.964 325.554 536.229C321.795 535.829 318.063 537.217 314.833 539.044C310.641 541.419 307.085 544.28 303.332 547.124C301.709 548.356 296.816 550.773 294.986 548.566C292.634 545.73 300.198 539.637 302.123 537.877C307.173 533.26 314.37 531.173 319.603 526.715C320.184 526.219 320.762 525.67 320.987 524.968C321.212 524.267 320.961 523.382 320.24 523.079C319.883 522.93 319.473 522.942 319.083 522.988C313.54 523.64 309.234 528.791 304.007 530.532C301.822 531.259 291.36 535.227 290.233 531.395C289.721 529.657 291.459 528.107 293.027 527.045C300.743 521.813 308.934 517.183 317.482 513.211C321.772 511.219 336.43 506.692 330.846 499.587C329.459 497.823 326.9 497.31 324.567 497.005C322.062 496.633 319.903 495.524 317.595 494.559C316.159 493.958 314.672 493.324 313.653 492.211C312.633 491.097 312.224 489.36 313.144 488.175C314.121 486.92 316.138 486.789 317.718 487.29C319.297 487.791 320.646 488.772 322.178 489.387C327.234 491.419 332.994 489.184 338.503 489.051C344.356 488.91 349.813 491.127 355.407 492.369C360.198 493.432 365.23 493.548 370.09 492.944C380.032 491.706 389.002 489.393 395.868 498.248C399.651 503.127 399.836 509.567 399.876 515.573C399.933 524.262 392.596 528.29 384.958 531.501C380.993 533.169 379.272 535.91 376.267 538.804C372.875 542.068 368.976 544.881 364.718 547.112C359.58 549.806 353.977 551.645 348.664 554.031C342.879 556.626 338.114 560.265 332.722 563.388C329.598 565.196 323.255 568.603 320.189 565.297C317.182 562.057 327.028 554.582 329.828 552.314C331.586 550.891 333.517 549.413 334.133 547.327C331.839 546.649 329.414 547.843 327.466 549.156C324.718 551.008 322.228 553.189 320.079 555.629Z" fill="#F49069"/>
<path d="M846.978 812.599C855.775 794.258 863.637 775.548 869.048 756.103C876.198 730.409 884.921 697.49 872.974 672.439C867.699 661.376 859.956 653.444 852.168 643.888C843.02 632.668 831.742 623.108 820.068 614.199C809.367 606.031 799.116 598.061 787.794 590.51C775.765 582.488 763.69 574.524 751.521 566.686C727.194 551.021 702.477 535.854 677.045 521.769C674.27 520.231 671.332 518.664 668.102 518.559C660.975 518.326 656.082 524.899 652.62 530.675C649.015 536.692 645.286 543.4 646.841 550.132C648.617 557.809 651.848 561.355 652.355 569.605C652.863 577.878 653.935 585.984 656.194 594.02C669.675 642.012 687.512 681.722 733.726 710.903C741.018 715.507 748.849 719.905 753.704 726.73C761.873 738.213 753.774 748.983 749.195 760.019C739.058 784.457 733.659 810.28 727.041 835.785C726.029 839.679 725.01 843.665 725.455 847.649C726.164 854.013 730.607 859.631 736.16 863.437C741.713 867.244 748.319 869.476 754.897 871.429C763.635 874.024 772.513 876.215 781.487 877.992C789.63 879.604 798.197 880.863 806.193 878.711C820.47 874.872 823.618 858.448 829.363 847.402C835.353 835.889 841.356 824.32 846.978 812.599Z" fill="#079E97"/>
<path d="M803.156 716.654C749.967 687.963 830.78 674.756 776.544 672.479C722.308 670.202 755.876 694.178 748.189 617.831C744.03 576.533 751.667 569.591 759.553 571.916C756.875 570.174 754.208 568.417 751.521 566.686C727.193 551.021 702.479 535.854 677.046 521.769C674.271 520.232 671.333 518.665 668.102 518.559C660.974 518.325 656.081 524.898 652.621 530.674C649.016 536.693 645.287 543.401 646.842 550.132C648.617 557.809 651.85 561.356 652.356 569.606C652.862 577.877 653.936 585.984 656.193 594.02C669.676 642.013 687.511 681.722 733.727 710.902C741.018 715.507 748.848 719.904 753.704 726.73C761.874 738.213 753.775 748.982 749.196 760.019C739.058 784.457 733.66 810.279 727.04 835.785C726.029 839.68 725.011 843.665 725.456 847.649C726.165 854.013 730.608 859.632 736.161 863.438C741.714 867.245 748.319 869.477 754.897 871.43C757.467 872.192 760.051 872.909 762.647 873.602C696.582 838.401 804.724 825.029 803.156 765.382C801.587 705.724 856.344 745.344 803.156 716.654Z" fill="#048279"/>
<path d="M768.857 577.973C771.405 580.378 773.123 582.537 773.123 582.537L773.729 581.192C772.105 580.119 770.485 579.042 768.857 577.973Z" fill="#048279"/>
<path d="M704.074 993.836C691.838 989.015 679.504 983.624 668.745 976.493C668.894 977.437 669.143 978.363 669.553 979.25C670.628 981.578 672.621 983.423 674.639 985.13C694.223 1001.7 720.105 1010.6 746.144 1015.27C749.203 1015.82 752.543 1016.28 755.291 1014.92C756.514 1014.32 757.492 1013.4 758.253 1012.32C754.452 1011.31 750.683 1010.17 746.952 1008.99C732.461 1004.44 718.154 999.385 704.074 993.836Z" fill="#0E1A40"/>
<path d="M680.322 949.38C672.95 952.918 670.771 962.161 669.251 969.095C668.72 971.52 668.365 974.072 668.746 976.493C679.504 983.624 691.839 989.015 704.074 993.836C718.153 999.385 732.461 1004.44 746.952 1008.99C750.684 1010.17 754.452 1011.31 758.253 1012.32C758.899 1011.41 759.389 1010.38 759.714 1009.33C761.074 1004.95 760.009 1000.17 757.854 996.068C755.701 991.966 752.533 988.409 749.46 984.847C741.053 975.114 733.087 964.99 723.513 956.231C718.904 952.014 713.786 948.05 707.682 946.039C698.777 943.107 688.51 945.449 680.322 949.38Z" fill="#2B2C33"/>
<path d="M620.633 799.491C623.383 807.69 625.822 815.978 627.831 824.389C631.927 841.514 634.192 858.962 637.405 876.248C641.105 896.146 646.066 915.842 652.255 935.202C654.148 941.121 656.266 947.2 660.667 951.835C665.531 956.962 672.647 959.744 679.721 961.654C694.227 965.574 709.666 966.503 724.598 964.353C726.445 964.088 743.158 954.718 743.152 954.668C737.385 910.25 734.837 865.474 735.524 820.74C735.811 802.134 740.575 785.218 740.091 766.636C739.38 739.38 733.223 714.685 728.285 688.152C723.081 660.187 715.882 632.484 706.158 605.566C700.906 591.025 694.931 576.777 689.086 562.441C684.566 551.355 683.577 543.48 674.188 534.483C666.221 526.846 651.509 516.223 639.813 515.162C628.158 514.106 617.115 519.813 607.434 525.914C591.307 536.079 576.076 548.296 566.793 564.188C546.293 599.278 556.813 638.156 568.869 673.508C583.482 716.35 606.29 756.722 620.633 799.491Z" fill="#00B7B2"/>
<path d="M737.039 889.656C724.574 915.342 685.737 910.838 672.481 876.045C657.732 837.336 644.95 833.237 670.514 784.569C696.078 735.9 665.598 756.729 638.559 718.931C611.521 681.132 629.71 673.845 660.682 632.859C691.654 591.872 678.419 566.684 678.419 566.684L623.319 543.098C623.319 543.098 592.266 550.991 571.944 556.595C570.094 559.041 568.336 561.546 566.793 564.189C546.293 599.278 556.813 638.157 568.869 673.507C583.483 716.35 606.29 756.721 620.633 799.49C623.383 807.69 625.821 815.978 627.832 824.389C631.927 841.514 634.192 858.962 637.406 876.247C641.105 896.146 646.067 915.842 652.255 935.202C654.148 941.122 656.267 947.199 660.667 951.836C665.533 956.963 672.647 959.744 679.722 961.655C694.228 965.575 709.666 966.503 724.598 964.354C726.445 964.089 743.158 954.718 743.152 954.667C740.347 933.067 738.318 911.38 737.039 889.656Z" fill="#079E97"/>
<path d="M614.731 419.137C614.594 419.118 614.464 419.063 614.352 418.973C614.032 418.716 613.997 418.267 614.275 417.972L618.552 413.397C606.217 414.003 593.569 412.451 581.853 408.879C581.452 408.757 581.233 408.356 581.366 407.983C581.499 407.61 581.931 407.407 582.334 407.53C594.442 411.219 607.56 412.722 620.272 411.874C620.583 411.855 620.875 412.008 621.015 412.264C621.152 412.521 621.11 412.831 620.908 413.048L615.432 418.902C615.254 419.094 614.985 419.176 614.731 419.137Z" fill="#BF5E34"/>
<path d="M543.692 377.049C539.877 371.8 536.307 366.671 533.814 360.778C532.037 356.578 529.411 352.752 531.122 348.206C535.121 337.58 547.594 330.333 556.671 323.606C568.396 314.913 581.255 307.485 594.909 301.563C600.392 299.184 606.149 297.012 612.226 296.737C618.3 296.463 624.812 298.4 628.426 302.882C632.952 308.497 631.865 316.159 631.818 323.111C631.77 330.063 634.231 338.427 641.559 340.371C646.944 341.8 652.785 339.017 658.236 340.214C665.353 341.777 668.651 349.048 671.509 355.2C673.146 358.729 675.365 362.51 679.33 363.769C683.354 365.048 687.91 363.15 690.659 360.201C693.407 357.253 694.741 353.448 696.012 349.75C698.373 342.876 700.762 335.829 700.415 328.618C700.07 321.408 696.44 313.878 689.449 310.475C696.767 316.749 704.087 323.023 711.406 329.299C718.657 335.513 725.995 341.827 731.2 349.558C739.138 361.35 741.515 375.66 740.81 389.45C740.449 396.483 739.979 404.408 737.439 411.08C733.657 421.017 734.833 430.599 732.966 440.791C730.681 453.259 728.461 465.74 726.503 478.259C725.181 486.701 723.977 495.162 722.951 503.639C722.053 511.058 722.109 518.195 719.696 525.333C719.123 527.025 718.468 528.747 717.202 530.086C715.683 531.69 713.461 532.569 711.293 533.332C688.154 541.476 661.909 542.142 638.228 535.184C634.546 534.102 630.803 532.773 628.072 530.268C624.064 526.592 622.967 521.136 621.805 516.069C619.5 506.015 616.185 496.149 611.922 486.634C607.587 476.955 601.698 468.607 595.92 459.619C578.292 432.201 562.943 403.546 543.692 377.049Z" fill="#ECCAAF"/>
<path d="M726.503 478.258C728.463 465.74 730.681 453.26 732.966 440.79C732.973 440.752 732.975 440.714 732.983 440.674C731.298 443.708 729.865 448.915 728.891 456.841C722.572 508.241 641.466 513.187 662.326 474.135C683.184 435.082 674.652 425.668 646.481 418.336C618.307 411.004 612.354 338.472 612.354 338.472L554.977 393.474C569.252 415.168 581.878 437.778 595.919 459.619C601.697 468.607 607.587 476.955 611.923 486.633C616.185 496.148 619.501 506.014 621.805 516.069C622.967 521.135 624.064 526.593 628.073 530.268C630.804 532.772 634.546 534.103 638.227 535.184C661.91 542.142 688.155 541.477 711.294 533.331C713.461 532.567 715.685 531.69 717.203 530.085C718.468 528.746 719.124 527.025 719.697 525.333C722.109 518.194 722.053 511.057 722.951 503.64C723.977 495.16 725.182 486.701 726.503 478.258Z" fill="#E0B79B"/>
<path d="M712.701 532.81C712.701 532.81 716.626 541.755 715.367 545.588C695.933 552.923 666.651 556.341 648.359 555.385C630.066 554.426 632.046 536.923 632.046 536.923C632.046 536.923 703.345 538.477 712.701 532.81" fill="#012C81"/>
<path d="M389.145 547.747C451.244 509.959 515.277 481.538 562.258 425.576C564.81 455.009 543.183 481.114 534.827 509.611C532.426 517.799 531.501 527.553 537.662 533.833C539.936 536.151 542.999 537.764 545.016 540.287C556.611 554.831 516.24 571.324 535.241 590.658C539.857 595.356 546.475 597.85 552.93 599.995C565.672 604.229 578.713 607.682 591.944 610.327C601.701 612.277 611.782 613.789 621.626 612.265C642.531 609.026 680.451 580.363 679.693 558.791C679.418 551.002 673.865 544.344 668.569 538.289C665.673 534.979 662.735 531.632 659.034 529.105C656.472 527.357 653.593 526.035 651.067 524.245C644.563 519.634 642.089 512.257 636.228 507.28C630.209 502.166 624.632 498.366 622.608 490.42C616.885 467.962 642.414 448.607 635.47 424.436C632.84 415.278 627.366 407.049 623.929 398.123C613.955 372.216 621.726 342.355 610.281 316.976C606.909 309.501 600.868 302.005 592.2 300.93C587.693 300.37 583.175 301.656 578.892 303.068C556.391 310.492 533.376 321.391 518.348 338.723C511.27 346.885 501.378 353.328 493.848 361.464C483.899 372.212 477.039 383.286 465.649 393.014C453.889 403.059 441.369 412.305 428.671 421.306C403.223 439.348 376.831 456.42 353.585 476.954C352.926 477.535 352.249 478.15 351.933 478.941C349.983 483.844 371.419 496.609 374.776 499.961C381.25 506.431 386.377 514.145 388.964 522.675C390.214 526.793 393.985 544.801 389.145 547.747Z" fill="#D87231"/>
<path d="M602.035 570.171C646.15 528.389 563.942 523.28 587.294 487.018C610.644 450.755 589.251 412.825 597.229 371.932C597.233 342.399 581.327 320.888 581.327 320.888C581.327 320.888 582.814 371.533 551.786 391.29C520.758 411.047 516.92 388.616 476.295 448.131C438.554 503.422 376.556 499.924 371.017 462.556C365.061 467.195 359.227 471.97 353.585 476.953C352.925 477.536 352.248 478.149 351.934 478.942C349.983 483.844 371.42 496.61 374.777 499.961C381.249 506.431 386.376 514.146 388.965 522.675C390.213 526.794 393.986 544.801 389.146 547.747C451.245 509.96 515.276 481.538 562.259 425.575C564.81 455.01 543.183 481.115 534.827 509.61C532.425 517.799 531.501 527.553 537.661 533.832C539.935 536.15 542.998 537.764 545.015 540.288C556.612 554.831 516.241 571.323 535.24 590.659C539.857 595.356 546.476 597.85 552.93 599.995C565.671 604.23 578.713 607.683 591.945 610.328C601.7 612.276 611.782 613.788 621.626 612.264C630.34 610.915 642.008 605.138 652.601 597.307C631.984 599.831 564.381 605.832 602.035 570.171Z" fill="#C15A21"/>
<path d="M562.313 426.04C562.26 426.032 562.209 426.003 562.169 425.954C562.055 425.814 562.06 425.564 562.177 425.392C564.306 422.313 566.283 418.988 568.054 415.509C572.371 407.021 575.483 397.589 578.491 388.469C578.56 388.258 578.736 388.142 578.884 388.21C579.035 388.276 579.099 388.501 579.029 388.711C576.008 397.871 572.883 407.342 568.53 415.9C566.74 419.419 564.741 422.781 562.588 425.895C562.512 426.004 562.408 426.054 562.313 426.04Z" fill="#7F3916"/>
<path d="M537.489 579.126C537.461 579.122 537.434 579.117 537.406 579.112C536.888 579.015 536.53 578.677 536.492 578.247C536.455 577.805 536.755 577.277 537.322 577.16C537.725 577.077 538.144 577.225 538.396 577.539C538.443 577.476 538.489 577.407 538.537 577.334C543.379 569.807 551.266 563.446 560.745 559.423C562.327 558.751 563.992 558.122 565.603 557.513C570.499 555.666 575.562 553.754 578.779 550.429C579.706 549.472 580.118 548.033 579.716 547.151C579.537 546.758 579.211 546.508 578.72 546.389C578.233 546.269 577.633 546.342 577.104 546.406L558.069 548.683C557.757 548.72 557.442 548.586 557.304 548.357C557.167 548.128 557.243 547.864 557.488 547.718L595.195 525.285C596.902 524.27 598.835 523.12 599.897 521.577C600.796 520.271 601.088 518.252 599.611 516.903C597.904 515.346 594.682 515.23 590.034 516.555L540.107 530.795C539.756 530.895 539.35 530.749 539.202 530.471C539.053 530.19 539.217 529.882 539.567 529.782L589.496 515.542C594.82 514.024 598.465 514.25 600.636 516.232C602.566 517.991 602.27 520.46 601.123 522.128C599.93 523.858 597.88 525.078 596.073 526.153L560.544 547.29L576.819 545.341C577.463 545.264 578.262 545.168 579.063 545.364C580.002 545.593 580.678 546.105 581.015 546.844C581.649 548.233 580.932 550.041 579.899 551.108C576.497 554.623 571.293 556.588 566.262 558.487C564.663 559.091 563.013 559.714 561.458 560.374C552.204 564.301 544.506 570.512 539.779 577.86C539.153 578.834 538.383 579.259 537.489 579.126Z" fill="#7F3916"/>
<path d="M653.398 573.471C652.81 573.331 652.161 572.767 652.063 571.002C651.126 554.33 640.935 541.061 629.67 527.818C617.776 513.836 607.84 500.881 606.728 483.908C606.071 473.901 608.847 462.755 614.545 452.527C615.228 451.302 615.951 450.06 616.682 448.802C621.052 441.303 625.569 433.549 623.299 426.308C621.274 419.847 615.022 417.422 608.405 414.854C601.867 412.319 595.109 409.696 592.756 402.784C591.149 398.059 592.184 392.764 593.184 387.641L593.306 387.008C596.662 369.737 596.882 356.356 593.996 344.896C590.375 330.521 581.134 319.613 569.875 316.427C569.513 316.325 569.322 315.913 569.449 315.508C569.577 315.102 569.974 314.857 570.335 314.959C582.022 318.266 591.602 329.538 595.339 344.377C598.284 356.07 598.07 369.675 594.666 387.191L594.543 387.827C593.583 392.738 592.592 397.816 594.067 402.149C596.217 408.475 602.414 410.877 608.973 413.423C615.574 415.984 622.399 418.633 624.618 425.707C627.102 433.627 622.179 442.076 617.839 449.529C617.111 450.775 616.393 452.009 615.717 453.224C610.178 463.166 607.478 473.979 608.115 483.666C609.196 500.185 618.997 512.945 630.729 526.737C642.153 540.168 652.486 553.641 653.45 570.775C653.455 570.862 653.462 570.943 653.47 571.019C653.848 570.728 654.23 570.787 654.462 570.945C654.939 571.274 654.996 572.096 654.775 572.67C654.558 573.235 654.082 573.561 653.564 573.5C653.51 573.494 653.455 573.484 653.398 573.471Z" fill="#7F3916"/>
<path d="M646.423 362.038C654.146 348.247 659.422 333.969 659.883 318.324C660.013 313.86 659.575 308.953 656.224 305.743C652.579 302.251 646.981 303.828 643.514 301.213C640.895 299.234 641.674 295.423 638.928 293.277C638.425 292.883 637.856 292.538 637.504 292.023C636.68 290.819 637.327 289.261 637.827 287.912C638.326 286.565 638.495 284.758 637.183 284.012C636.498 283.622 635.632 283.682 634.829 283.733C633.108 283.844 631.321 283.849 629.726 283.237C628.132 282.626 626.765 281.26 626.711 279.662C626.673 278.499 627.302 277.421 627.862 276.38C631.566 269.508 632.054 257.456 625.4 251.514C622.932 249.31 617.491 248.225 615.085 251.148C612.496 254.293 616.004 255.892 615.847 258.991C615.532 265.13 606.984 263.952 602.863 269.815C599.749 274.245 600.575 281.223 605.647 283.647C600.905 285.914 596.283 289.341 595.091 294.16C593.897 298.978 597.99 304.907 603.28 304.256C601.199 308.44 604.454 314.068 609.369 314.78C611.025 315.019 612.785 314.789 614.33 315.39C617.912 316.783 618.298 321.62 621.491 323.667C625.043 325.943 630.63 323.895 633.81 326.603C635.911 328.394 635.981 331.532 637.864 333.521C639.745 335.506 643.116 336.005 644.647 338.235C649.007 344.589 641.368 354.764 641.119 361.663C641.083 362.637 641.119 363.762 641.941 364.372C643.481 365.514 645.513 363.661 646.423 362.038Z" fill="#2B0600"/>
<path d="M646.376 237.397C644.81 238.874 642.334 239.351 640.178 240.095C633.798 242.296 628.872 249.24 631.642 255.001C627.998 258.505 624.251 262.161 622.515 266.753C620.777 271.345 621.641 277.162 625.92 279.982C623.175 283.65 621.072 288.209 622.367 292.506C623.664 296.805 629.725 299.838 633.567 297.147C631.28 301.852 636.894 307.924 642.264 306.553C643.348 310.067 647.149 312.102 650.183 314.436C656.273 319.12 659.541 334.706 650.462 338.472C655.734 336.284 659.258 331.413 660.9 326.283C663.288 318.828 662.282 312.416 660.729 305.104C660.344 303.296 659.949 301.46 659.017 299.832C657.747 297.618 655.443 295.562 655.864 293.085C656.063 291.915 656.876 290.878 656.986 289.698C657.099 288.482 656.456 287.33 655.966 286.197C652.716 278.69 655.878 270.249 659.027 262.706C665.491 260.381 668.291 256.069 673.352 252.39C678.104 248.935 679.659 250.878 685.898 250.626C687.145 250.576 688.629 250.388 689.173 249.348C689.361 248.987 689.402 248.568 689.622 248.223C690.233 247.268 691.728 247.403 692.889 247.121C694.566 246.713 695.784 245.074 695.597 243.475C696.868 244.854 699.43 243.127 699.509 241.316C699.586 239.505 698.419 237.85 698.124 236.058C697.897 234.667 698.172 233.127 697.349 231.943C696.254 230.369 693.501 229.886 693.2 228.035C693.118 227.535 693.25 227.017 693.119 226.527C692.473 224.073 687.622 225.848 686.002 223.817C685.398 223.06 685.484 222.021 685.167 221.127C684.391 218.947 681.288 218.142 678.94 218.876C676.72 219.57 674.781 221.377 673.224 222.872C670.551 220.544 662.103 221.248 658.056 220.468C654.132 219.713 649.162 220.236 647.466 223.598C645.405 227.687 649.707 233.099 646.914 236.797C646.75 237.013 646.57 237.213 646.376 237.397Z" fill="#2B0600"/>
<path d="M736.434 720.943C736.121 720.943 735.838 720.739 735.772 720.445C723.006 663.846 705.774 607.577 684.557 553.2C684.43 552.874 684.612 552.515 684.964 552.396C685.316 552.282 685.705 552.448 685.832 552.774C707.07 607.205 724.318 663.532 737.097 720.187C737.175 720.526 736.94 720.859 736.573 720.93C736.526 720.939 736.481 720.943 736.434 720.943Z" fill="#03544E"/>
<path d="M827.748 744.868C827.575 744.868 827.401 744.807 827.269 744.684C825.327 742.884 822.141 742.541 819.582 742.267C802.298 740.405 785.04 737.276 768.282 732.964C767.952 732.88 767.743 732.579 767.795 732.266C768.677 726.969 773.609 723.887 778.38 720.908C781.93 718.689 785.59 716.402 787.622 713.209L767.823 714.145C766.54 714.203 765.301 714.203 764.286 713.513C762.813 712.51 762.536 710.595 763.464 707.823L771.392 684.109C760.946 688.428 752.055 696.213 746.853 705.641C746.682 705.948 746.277 706.072 745.943 705.915C745.61 705.757 745.476 705.378 745.647 705.07C751.215 694.979 760.898 686.721 772.215 682.415C772.458 682.327 772.736 682.37 772.929 682.534C773.124 682.698 773.199 682.951 773.12 683.182L764.759 708.193C764.02 710.401 764.131 711.85 765.089 712.501C765.744 712.947 766.684 712.936 767.755 712.892L788.742 711.9C788.977 711.88 789.205 711.992 789.338 712.176C789.471 712.359 789.49 712.592 789.39 712.792C787.366 716.808 783.184 719.421 779.138 721.948C774.586 724.792 770.274 727.485 769.243 731.909C785.746 736.124 802.73 739.188 819.738 741.02C822.506 741.318 825.952 741.688 828.226 743.796C828.492 744.042 828.492 744.439 828.226 744.684C828.095 744.807 827.921 744.868 827.748 744.868Z" fill="#03544E"/>
<path d="M781.075 761.034C780.951 761.034 780.825 761.003 780.714 760.937C774.63 757.381 769.224 752.97 764.646 747.831C764.408 747.563 764.449 747.167 764.737 746.946C765.026 746.726 765.452 746.763 765.691 747.031C770.178 752.068 775.475 756.39 781.436 759.876C781.754 760.06 781.847 760.448 781.649 760.742C781.52 760.932 781.3 761.034 781.075 761.034Z" fill="#03544E"/>
<path d="M644.47 779.82C630.066 779.82 615.522 773.535 606.317 763.279C606.08 763.014 606.118 762.617 606.406 762.395C606.693 762.176 607.12 762.209 607.36 762.478C616.508 772.668 631.074 778.868 645.38 778.557C645.749 778.542 646.063 778.824 646.071 779.171C646.079 779.518 645.781 779.804 645.408 779.812C645.096 779.818 644.781 779.82 644.47 779.82Z" fill="#03544E"/>
<path d="M640.199 794.814C638.12 794.814 636.039 794.685 633.968 794.426C633.597 794.38 633.339 794.064 633.388 793.721C633.437 793.378 633.781 793.13 634.15 793.183C642.14 794.182 650.293 793.182 657.732 790.293C658.077 790.157 658.474 790.31 658.619 790.629C658.764 790.949 658.601 791.317 658.256 791.451C652.524 793.677 646.378 794.814 640.199 794.814Z" fill="#03544E"/>
<path d="M735.583 871.286C735.25 871.286 734.96 871.058 734.913 870.745C730.654 842.143 734.651 813.153 738.516 785.119C738.564 784.774 738.903 784.525 739.275 784.576C739.645 784.619 739.908 784.933 739.86 785.278C736.006 813.231 732.019 842.137 736.256 870.573C736.307 870.916 736.048 871.235 735.676 871.28C735.646 871.284 735.614 871.286 735.583 871.286Z" fill="#03544E"/>
<path d="M660.483 412.767C660.583 412.773 660.649 412.747 660.626 412.727C660.605 412.707 660.383 412.761 660.483 412.767Z" fill="#E0B999"/>
<path d="M712.165 439.149C712.168 439.162 712.171 439.178 712.173 439.2C712.196 439.36 712.209 439.441 712.215 439.477C712.212 439.467 712.212 439.461 712.209 439.448C712.181 439.253 712.161 439.12 712.165 439.149Z" fill="#E0B999"/>
<path d="M690.733 399.303C690.709 399.278 690.812 399.383 690.961 399.537C691.038 399.618 691.028 399.607 690.776 399.347C690.758 399.329 690.744 399.314 690.733 399.303Z" fill="#E0B999"/>
<path d="M575.642 322.63C589.317 337.95 594.588 358.798 592.544 378.586C590.499 398.373 581.639 417.159 569.778 433.724C558.509 449.461 543.965 464.69 542.161 483.501C576.011 453.898 597.042 412.047 599.7 368.994C600.502 355.978 599.646 342.667 594.813 330.422C589.981 318.178 580.821 307.041 568.18 301.311C564.762 299.761 560.918 298.601 557.182 299.275C553.445 299.95 549.997 302.976 550.201 306.498C550.53 312.172 557.792 310.954 561.669 312.349C567.242 314.357 571.889 318.425 575.642 322.63Z" fill="#082A60"/>
<path d="M724.853 173.317C726.228 175.363 734.25 176.938 736.852 176.975C738.077 176.994 739.234 176.491 740.34 176C774.382 160.904 808.983 146.886 844.062 133.983C846.432 133.111 847.569 130.637 846.619 128.445C837.069 106.419 829.011 83.8392 822.511 60.8802C822.323 60.2174 752.03 89.62 745.751 92.5808C734.374 97.9432 719.87 102.684 710.095 110.339C700.306 118.007 705.785 124.418 709.836 133.441C715.923 147.011 716.458 160.82 724.853 173.317Z" fill="#991934"/>
<path d="M729.817 148.281C736.253 148.822 742.893 146.214 749.095 143.984C761.424 139.549 774.267 136.484 787.076 133.43L829.241 123.374C830.288 123.124 831.397 122.875 832.433 123.159C833.445 123.434 834.217 124.17 834.975 124.848C836.573 126.28 842.094 131.767 844.13 128.753C845.145 127.248 840.118 118.706 839.38 116.923C836.036 108.84 831.433 100.083 829.626 91.578C827.476 81.4603 822.303 71.8561 821.214 61.6891C821.132 60.9239 821.04 60.1279 820.605 59.4713C820.288 58.9912 819.814 58.6222 819.346 58.263C816.192 55.8318 815.25 55.6281 812 58.3062C800.975 67.3884 783.692 71.7623 770.381 77.3345C760.93 81.2912 751.295 85.0394 742.047 89.3997C730.672 94.7621 716.166 99.5037 706.392 107.159C693.02 117.632 708.162 135.715 717.979 143.116C720.444 144.975 723.105 146.696 726.13 147.595C727.348 147.957 728.579 148.178 729.817 148.281Z" fill="#ECCAAF"/>
<path d="M719.043 168.972C720.418 171.02 722.251 173.279 724.853 173.318C726.079 173.335 727.235 172.833 728.341 172.341C763.773 156.629 802.918 141.85 839.468 128.515C829.152 105.238 817.403 81.5604 810.512 57.2215C810.324 56.56 740.032 85.9614 733.753 88.9221C722.376 94.2846 707.872 99.025 698.097 106.68C688.308 114.348 693.788 120.76 697.837 129.784C703.924 143.352 710.648 156.476 719.043 168.972Z" fill="#C42A41"/>
<path d="M779.749 180.16C779.676 179.96 779.596 179.764 779.512 179.574C778.455 177.17 776.822 174.862 774.372 173.599C767.03 169.814 759.57 169.392 754.731 161.945C753.223 159.625 752.184 157.008 750.215 155.007C749.05 153.824 746.828 152.964 745.754 154.218C745.299 154.751 745.255 155.485 745.26 156.167C745.323 164.718 749.745 171.691 756.795 176.833C760.375 179.443 775.248 189.053 779.36 184.823C780.547 183.601 780.339 181.757 779.749 180.16Z" fill="#F49069"/>
<path d="M732.526 146.5C732.695 146.686 732.873 146.877 733.111 146.978C733.729 147.243 734.416 146.818 734.953 146.432C738.153 144.137 741.84 142.429 745.739 141.432C740.956 137.409 738.124 131.822 735.442 126.378C733.272 121.969 731.117 117.552 728.986 113.128C729.124 113.417 718.178 117.631 717.491 118.561C715.572 121.149 718.28 123.022 719.549 125.521C723.361 133.029 726.672 140.052 732.526 146.5Z" fill="#ECCAAF"/>
<path d="M756.948 142.331C756.331 142.331 755.774 141.939 755.629 141.359C754.608 137.285 752.113 133.382 749.7 129.608C748.026 126.987 746.295 124.281 745.025 121.486L739.4 109.111C739.11 108.471 739.434 107.737 740.124 107.467C740.814 107.201 741.607 107.498 741.898 108.137L747.522 120.512C748.72 123.148 750.404 125.782 752.032 128.328C754.55 132.267 757.153 136.34 758.268 140.79C758.437 141.467 757.984 142.142 757.254 142.297C757.152 142.321 757.049 142.331 756.948 142.331Z" fill="#ECCAAF"/>
<path d="M764.772 138.189C764.155 138.189 763.599 137.798 763.453 137.218C762.432 133.144 759.937 129.24 757.525 125.466C755.85 122.846 754.119 120.139 752.85 117.344L747.225 104.969C746.934 104.33 747.258 103.595 747.947 103.325C748.637 103.06 749.431 103.356 749.721 103.995L755.346 116.37C756.544 119.006 758.228 121.64 759.856 124.186C762.373 128.126 764.977 132.198 766.093 136.649C766.262 137.325 765.808 138 765.079 138.156C764.976 138.179 764.874 138.189 764.772 138.189Z" fill="#ECCAAF"/>
<path d="M774.087 136.463C773.47 136.463 772.913 136.072 772.768 135.492C771.747 131.418 769.252 127.514 766.84 123.74C765.166 121.12 763.434 118.413 762.164 115.618L756.539 103.243C756.249 102.605 756.573 101.869 757.263 101.599C757.953 101.331 758.747 101.631 759.037 102.269L764.662 114.645C765.86 117.28 767.544 119.914 769.172 122.46C771.689 126.4 774.292 130.472 775.407 134.923C775.576 135.599 775.123 136.274 774.393 136.43C774.291 136.453 774.188 136.463 774.087 136.463Z" fill="#ECCAAF"/>
<path d="M691.105 231.382C691.963 228.541 691.264 225.334 689.281 223.024C688.526 222.144 687.57 221.341 687.265 220.252C686.872 218.851 687.629 217.189 686.731 216.004C685.552 214.448 682.99 215.244 680.954 215.475C673.62 216.31 667.961 207.598 660.638 208.52C657.494 208.914 654.949 211.044 651.972 212.055C649.743 212.813 647.331 212.924 644.975 213.199C642.618 213.472 640.19 213.954 638.317 215.307C636.445 216.658 635.3 219.094 636.206 221.128C636.69 222.217 637.679 223.056 638.196 224.132C639.21 226.249 638.111 228.826 636.251 230.376C634.394 231.924 631.934 232.673 629.547 233.361C627.159 234.049 624.693 234.75 622.773 236.234C619.613 238.676 618.566 242.69 617.699 246.419L612.711 267.876C612.231 269.942 611.95 272.527 613.806 273.755C615.363 274.787 617.653 274.148 618.991 272.879C620.329 271.609 620.987 269.875 621.77 268.256C622.555 266.638 623.607 264.987 625.346 264.241C627.867 263.159 630.775 264.344 633.324 265.371C635.871 266.397 639.07 267.206 641.228 265.585C642.952 264.292 643.4 261.812 645.345 260.824C646.677 260.148 648.317 260.387 649.808 260.111C652.309 259.646 654.226 257.758 655.536 255.73C656.844 253.703 657.726 251.448 659.167 249.499C661.84 245.887 666.444 243.569 671.17 243.458C673.563 243.402 676.089 243.87 678.342 242.885C680.341 242.01 681.495 240.147 683.259 238.968C686.503 236.803 689.921 235.299 691.105 231.382" fill="#330602"/>
<path d="M586.656 225.689C583.225 226.948 580.055 229.183 578.59 232.32C577.585 234.474 577.449 236.873 577.032 239.187C576.616 241.501 575.81 243.914 573.867 245.418C572.009 246.857 569.105 247.543 568.51 249.718C568.023 251.494 569.42 253.176 570.201 254.861C571.792 258.287 570.618 262.633 567.475 264.962C566.686 265.547 565.794 266.014 565.074 266.672C564.355 267.328 563.813 268.253 563.985 269.174C564.175 270.19 565.202 270.933 566.288 271.163C567.373 271.392 568.506 271.205 569.589 270.971C573.279 270.179 576.806 268.86 580.318 267.548C581.998 266.92 583.797 266.2 584.718 264.755C585.851 262.974 585.285 260.735 585.241 258.669C585.161 254.869 587.113 251.078 590.349 248.743C591.653 247.804 593.135 247.097 594.455 246.178C595.776 245.26 596.969 244.058 597.345 242.568C597.679 241.252 597.34 239.864 597.538 238.524C597.971 235.607 600.761 233.568 603.267 231.755C605.772 229.941 608.419 227.62 608.359 224.677C608.342 223.864 608.055 222.987 607.322 222.541C606.819 222.233 606.189 222.178 605.587 222.159C602.413 222.059 599.854 223.181 596.844 223.693C593.387 224.282 589.968 224.472 586.656 225.689Z" fill="#330602"/>
<path d="M611.443 203.48C610.514 203.48 609.572 203.48 608.675 203.701C607.777 203.922 606.913 204.393 606.444 205.135C605.69 206.33 606.135 207.87 606.862 209.078C607.591 210.285 608.591 211.377 608.999 212.709C609.393 213.996 609.216 215.464 610.01 216.583C611.022 218.008 613.224 218.26 615.001 217.815C617.555 217.175 619.673 215.432 621.075 213.353C622.478 211.276 623.233 208.878 623.752 206.475C623.863 205.956 623.966 205.42 623.857 204.899C623.422 202.81 620.467 203.486 618.826 203.485C616.364 203.482 613.905 203.481 611.443 203.48Z" fill="#330602"/>
<path d="M632.92 194.773C631.852 194.729 630.648 194.73 629.894 195.434C629.358 195.931 629.186 196.7 629.333 197.39C629.478 198.078 629.907 198.693 630.43 199.201C632.472 201.19 635.717 201.596 638.676 201.516C640.794 201.458 642.907 201.211 644.975 200.78C646.53 200.455 647.97 199.804 647.793 198.135C647.698 197.251 647.297 196.379 646.484 195.872C644.622 194.709 641.242 195.12 639.142 195.032C637.068 194.946 634.995 194.86 632.92 194.773Z" fill="#330602"/>
<path d="M660.901 326.283C663.289 318.828 662.283 312.416 660.729 305.104C660.344 303.296 659.949 301.46 659.017 299.833C657.748 297.618 655.443 295.562 655.865 293.085C656.064 291.915 656.876 290.878 656.987 289.698C657.099 288.482 656.457 287.33 655.966 286.197C654.551 282.93 654.393 279.483 654.878 276.014C651.934 280.562 650.753 286.1 651.814 291.321C652.341 293.929 653.388 296.478 653.362 299.13C653.334 301.783 651.824 304.703 649.045 305.345C647.473 305.708 645.64 305.325 644.341 306.221C641.55 308.15 644.818 312.666 642.997 315.417C641.792 317.236 638.826 317.325 636.817 316.281C634.808 315.238 633.447 313.414 631.897 311.833C630.349 310.255 628.312 308.796 626.013 308.908C624.572 308.978 623.217 309.666 621.777 309.642C618.784 309.596 616.888 306.661 616.012 304.009C615.134 301.356 614.466 298.315 611.969 296.786C609.17 295.071 605.446 296.079 602.293 297.147C600.086 297.893 597.88 298.646 595.676 299.4C597.003 302.371 599.884 304.674 603.281 304.255C601.199 308.44 604.455 314.068 609.37 314.779C611.024 315.02 612.786 314.789 614.331 315.39C617.911 316.782 618.297 321.62 621.492 323.667C625.044 325.943 630.63 323.895 633.81 326.604C635.911 328.393 635.982 331.532 637.865 333.52C639.746 335.507 643.115 336.005 644.647 338.235C649.008 344.589 641.368 354.765 641.118 361.662C641.083 362.637 641.118 363.763 641.941 364.371C643.481 365.514 645.513 363.662 646.423 362.039C651.859 352.331 656.038 342.372 658.223 331.876C659.38 330.137 660.278 328.229 660.901 326.283Z" fill="#1E0300"/>
<path d="M729.477 966.067C729.477 966.067 719.556 972.513 701.298 973.917C722.243 979.597 732.82 968.363 729.477 966.067Z" fill="white"/>
<path d="M737.79 974.129C737.79 974.129 727.868 980.575 709.61 981.979C730.554 987.659 741.132 976.426 737.79 974.129Z" fill="white"/>
<path d="M805.428 883.463C805.248 883.242 798.895 887.61 776.544 882.91C794.583 893.785 811.397 890.836 805.428 883.463Z" fill="white"/>
<path d="M713.149 746.803C741.649 748.463 728.289 664.403 710.815 642.696C693.339 620.988 681.259 638.891 675.945 666.641C670.63 694.391 683.193 745.058 713.149 746.803Z" fill="#09C9C0"/>
<path d="M866.072 724.636C876.755 712.52 880.81 680.964 854.959 652.989C829.11 625.016 794.31 593.685 781.753 600.175C769.196 606.665 788.281 649.409 808.816 659.48C829.351 669.55 812.763 700.434 828.425 711.398C844.088 722.365 834.666 760.251 866.072 724.636Z" fill="#00B7B2"/>
<path d="M539.138 330.986C521.299 331.528 497.922 366.547 476.165 391.291C454.409 416.033 412.046 428.214 399.876 447.925C387.704 467.637 446.758 469.409 472.34 429.1C497.922 388.791 486.447 383.919 520.875 369.524C555.303 355.127 565.198 330.193 539.138 330.986Z" fill="#E57638"/>
<path d="M775.016 194.757C760.059 204.313 767.323 220.479 773.599 257.798C779.873 295.118 796.272 276.869 808.419 241.36C820.565 205.851 817.326 167.723 775.016 194.757Z" fill="#E57638"/>
<path d="M704.554 266.887C704.554 268.077 703.672 269.041 702.584 269.041C701.497 269.041 700.616 268.077 700.616 266.887C700.616 265.698 701.497 264.732 702.584 264.732C703.672 264.732 704.554 265.698 704.554 266.887Z" fill="black"/>
<path d="M689.36 269.349C689.36 270.709 688.352 271.811 687.11 271.811C685.866 271.811 684.859 270.709 684.859 269.349C684.859 267.989 685.866 266.887 687.11 266.887C688.352 266.887 689.36 267.989 689.36 269.349Z" fill="black"/>
<path d="M697.176 268.519C697.176 268.519 705.118 275.47 704.554 279.641C703.992 283.812 699.594 283.638 698.48 282.016C697.364 280.394 695.112 267.244 697.176 268.519Z" fill="#F45A52"/>
<path d="M1155.3 1017.99H218.917C214.662 1017.99 211.213 1014.79 211.213 1010.85C211.213 1006.91 214.662 1003.72 218.917 1003.72H1155.3C1159.56 1003.72 1163 1006.91 1163 1010.85C1163 1014.79 1159.56 1017.99 1155.3 1017.99Z" fill="#8E8E8E"/>
<path d="M390.301 285.049C390.301 285.049 477.855 159.75 363.645 105.644C249.435 51.5375 161.822 121.491 154.952 206.662C148.08 291.833 300.717 390.133 464.472 331.832C402.326 338.778 390.301 285.049 390.301 285.049Z" fill="white"/>
<path d="M311.366 263.011C306.205 269.622 280.579 270.859 273.091 264.499C265.601 258.141 273.714 250.047 261.233 230.969C248.751 211.892 234.814 216.131 232.527 177.785C230.238 139.437 277.113 127.811 295.418 127.811C313.724 127.811 355.044 141.362 355.052 184.143C355.056 215.169 331.753 216.71 321.144 231.547C310.533 246.385 317.191 255.548 311.366 263.011Z" fill="#FDA93B"/>
<path d="M313.03 267.39C313.03 267.968 287.027 274.386 270.593 268.095C270.593 268.095 266.226 301.498 280.786 304.774C295.348 308.049 309.493 305.351 310.949 298.801C312.406 292.248 313.03 267.39 313.03 267.39Z" fill="#94BBD2"/>
<path d="M267.469 189.757C267.529 189.768 267.613 189.789 267.726 189.829C269.454 190.422 273.01 196.646 276.516 207.388C274.122 205.806 271.93 202.937 270.394 200.171C267.502 194.965 266.966 190.727 267.469 189.757ZM283.709 161.278C284.598 158.816 285.676 157.727 286.335 157.727C286.358 157.727 286.379 157.728 286.4 157.731C290.991 158.272 296.29 172.364 295.626 186.59C295.467 190.003 294.806 195.818 292.312 200.618C281.555 189.333 280.546 170.035 283.709 161.278ZM303.575 206.621C305.12 192.367 307.736 180.577 312.022 176.96C312.781 176.321 313.518 176.015 314.313 176.015C314.438 176.015 314.565 176.023 314.693 176.038C315.311 176.11 317.188 176.329 318.028 179.174C320.086 186.152 314.452 199.835 307.451 204.86C306.13 205.807 304.837 206.394 303.575 206.621ZM265.089 187.565C262.788 189.865 264.526 195.813 266.713 200.209C267.912 202.623 271.918 209.79 277.754 211.387C278.457 213.775 279.149 216.346 279.814 219.086C284.391 237.957 285.6 255.817 283.147 268.152C284.218 268.31 285.327 268.43 286.458 268.514C289.979 250.484 285.267 227.505 283.06 218.409C282.569 216.383 281.96 214.075 281.258 211.649C286.09 211.265 290.058 209.166 293.006 205.561C294.426 206.697 295.969 207.72 297.642 208.605C298.394 209.003 299.158 209.304 299.931 209.507C297.409 235.357 298.416 265.87 298.487 267.918L300.147 267.868C300.71 267.768 301.265 267.662 301.804 267.545C301.37 254.827 301.297 230.296 303.252 209.794C305.322 209.615 307.421 208.78 309.489 207.297C317.468 201.571 323.618 186.426 321.238 178.362C320.319 175.246 318.143 173.334 315.111 172.979C313.183 172.755 311.389 173.326 309.781 174.682C304.778 178.904 301.895 191.615 300.259 206.355C299.935 206.239 299.613 206.097 299.294 205.93C297.669 205.068 296.178 204.065 294.814 202.945C297.217 198.836 298.64 193.366 298.952 186.724C299.622 172.349 294.578 155.587 286.821 154.672C285.296 154.491 282.472 154.99 280.553 160.3C277.092 169.885 278.335 191.217 290.562 203.377C288.299 206.301 285.039 208.419 280.348 208.615C277.322 198.866 273.024 188.361 268.885 186.937C266.756 186.206 265.522 187.132 265.089 187.565Z" fill="white"/>
<path d="M286.957 285.656C305.859 285.656 317.726 280.178 318.363 279.876C319.182 279.488 319.507 278.56 319.089 277.801C318.672 277.044 317.672 276.741 316.852 277.128C316.657 277.218 297.133 286.186 268.706 280.846C267.809 280.675 266.927 281.215 266.744 282.05C266.561 282.883 267.143 283.698 268.043 283.867C274.91 285.158 281.254 285.656 286.957 285.656Z" fill="#29495C"/>
<path d="M285.131 296.79C303.196 296.79 314.972 293.515 315.599 293.337C316.477 293.087 316.97 292.225 316.702 291.411C316.431 290.597 315.495 290.142 314.623 290.389C314.432 290.442 295.185 295.777 268.577 292.773C267.67 292.675 266.834 293.272 266.722 294.117C266.612 294.963 267.261 295.732 268.173 295.834C274.264 296.521 279.956 296.79 285.131 296.79Z" fill="#29495C"/>
<path d="M376.812 126.454C364.627 129.902 354.288 142.045 361.961 146.172C369.634 150.299 385.722 123.931 376.812 126.454Z" fill="#FDA93B"/>
<path d="M393.832 159.62C381.757 155.849 365.719 160.143 369.363 167.638C373.005 175.132 402.661 162.376 393.832 159.62Z" fill="#FDA93B"/>
<path d="M223.49 189.085C213.423 181.849 196.753 181.022 197.536 189.209C198.317 197.396 230.851 194.376 223.49 189.085Z" fill="#FDA93B"/>
<path d="M220.973 157.379C214.602 147.158 199.503 140.56 196.889 148.414C194.275 156.27 225.632 164.854 220.973 157.379Z" fill="#FDA93B"/>
<path d="M393.301 193.084C383.977 185.039 373.099 187.214 367.438 191.047C360.275 195.897 400.118 198.967 393.301 193.084Z" fill="#FDA93B"/>
<path d="M224.181 208.787C211.805 205.978 203.455 212.793 200.533 218.696C196.833 226.168 233.23 210.842 224.181 208.787Z" fill="#FDA93B"/>
</svg>
