<svg width="538" height="540" viewBox="0 0 538 540" fill="none" xmlns="http://www.w3.org/2000/svg">
<path d="M207.068 538.468H1.27332V151.952H207.068V538.468Z" stroke="#F7941E" stroke-width="1.33333" stroke-miterlimit="10"/>
<path d="M271.835 231.269H133.943V3.61193H271.835V231.269Z" stroke="#F7941E" stroke-width="1.33333" stroke-miterlimit="10"/>
<path d="M485.193 198.337H235.275V88.2293H485.193V198.337Z" stroke="#F7941E" stroke-width="1.33333" stroke-miterlimit="10"/>
<path d="M453.657 349.264H319.889V1.52256H453.657V349.264Z" stroke="#F7941E" stroke-width="1.33333" stroke-miterlimit="10"/>
<path d="M537.175 391.192H402.416V176.873H537.175V391.192Z" stroke="#F7941E" stroke-width="1.33333" stroke-miterlimit="10"/>
<path d="M402.416 465.341H1.27466V280.432H402.416V465.341Z" stroke="#F7941E" stroke-width="1.33333" stroke-miterlimit="10"/>
<path d="M91.112 347.235H4.40533V86.1386H91.112V347.235Z" stroke="#F7941E" stroke-width="1.33333" stroke-miterlimit="10"/>
<path d="M254.033 248.569C254.033 248.569 246.982 243.982 277.313 240.504C307.644 237.026 344.676 234.878 341.608 239.997C338.541 245.114 328.916 254.496 328.916 254.496C328.916 254.496 322.285 260.157 322.204 260.401C322.122 260.644 267.93 269.137 267.77 268.893C267.609 268.652 264.372 264.606 260.652 261.694C256.932 258.782 254.033 248.569 254.033 248.569Z" fill="#1D0A7A"/>
<path d="M183.966 175.799C183.966 175.799 189.965 164.278 193.393 164.094C196.821 163.91 193.714 177.193 187.607 183.726C181.503 190.262 183.966 175.799 183.966 175.799Z" fill="#FC4F5A"/>
<path d="M188.144 182.763C188.144 182.763 194.144 171.24 197.571 171.058C200.999 170.874 197.892 184.155 191.787 190.688C185.68 197.224 188.144 182.763 188.144 182.763Z" fill="#FC4F5A"/>
<path d="M189.635 197.13C189.635 197.13 195.633 185.608 199.061 185.425C202.489 185.241 199.384 198.524 193.277 205.057C187.171 211.592 189.635 197.13 189.635 197.13Z" fill="#FC4F5A"/>
<path d="M193.167 204.094C193.167 204.094 199.167 192.571 202.592 192.388C206.02 192.203 202.916 205.486 196.809 212.019C190.704 218.555 193.167 204.094 193.167 204.094Z" fill="#FC4F5A"/>
<path d="M265.626 134.312C265.626 134.312 251.345 187.154 254.486 203.152C257.626 219.149 270.768 218.293 270.768 218.293L268.197 253.998C268.197 253.998 313.044 267.14 337.322 247.144C337.322 247.144 329.04 200.868 329.04 181.157C329.04 161.448 311.9 152.59 311.616 151.736C311.33 150.878 299.618 130.598 299.618 130.598C299.618 130.598 292.477 131.741 291.62 130.598C290.764 129.454 265.626 134.312 265.626 134.312Z" fill="#FC4F5A"/>
<path d="M287.621 119.169C287.621 119.169 276.625 102.461 258.629 103.603C240.634 104.744 235.633 129.027 250.774 135.308C265.913 141.592 282.197 146.165 282.622 161.875L281.909 169.588C281.909 169.588 287.052 161.587 293.049 163.873C299.048 166.159 298.905 179.44 285.48 183.584C285.48 183.584 283.054 199.152 298.764 206.009C314.473 212.864 331.469 209.232 331.469 209.232C331.469 209.232 331.038 167.145 334.182 156.868C337.324 146.592 339.184 118.312 315.045 124.739C315.045 124.739 316.616 111.744 304.902 109.601C293.192 107.459 287.621 119.169 287.621 119.169Z" fill="#301593"/>
<path d="M270.768 218.293C270.768 218.293 282.838 218.29 291.192 214.221C291.192 214.221 270.926 227.637 269.205 239.997L270.768 218.293Z" fill="#301593"/>
<path d="M254.033 248.569C254.033 248.569 309.617 267.129 341.608 239.997C341.608 239.997 350.536 254.46 364.248 254.764C377.959 255.068 450.584 253.569 446.728 376.968L445.014 462.661L208.496 471.658V269.85C208.496 269.85 221.136 259.048 245.988 258.237C245.988 258.237 254.867 257.493 254.033 248.569" fill="#301593"/>
<path d="M215.923 417.96C215.923 417.96 209.068 474.517 169.076 471.658C129.084 468.804 122.23 413.39 126.8 348.264C131.37 283.136 162.792 250.282 162.792 250.282L194.784 247.429C194.784 247.429 195.643 270.85 208.496 269.85L246.486 332.549L227.92 386.824L215.923 417.96Z" fill="#301593"/>
<path d="M319.776 304.806C319.776 304.806 291.629 287.821 286.292 310.143C280.952 332.469 312.012 379.053 323.659 366.437C335.307 353.819 342.252 336.834 337.323 324.217C332.395 311.601 322.26 306.151 319.776 304.806Z" fill="#4C32CC"/>
<path d="M375.885 216.379C375.885 216.379 347.739 199.392 342.399 221.716C337.06 244.039 368.121 290.63 379.768 278.011C391.415 265.394 398.36 248.407 393.432 235.791C388.503 223.172 378.368 217.724 375.885 216.379Z" fill="#4C32CC"/>
<path d="M397.566 429.401C397.566 429.401 369.419 412.417 364.08 434.741C358.742 457.062 389.8 503.652 401.448 491.033C413.095 478.416 420.04 461.432 415.111 448.813C410.184 436.197 400.05 430.746 397.566 429.401Z" fill="#4C32CC"/>
<path d="M251.35 306.746C251.35 306.746 221.357 303.593 219.853 320.819C218.35 338.049 241.466 344.114 253.322 338.049C265.181 331.979 278.041 313.054 251.35 306.746Z" fill="#4C32CC"/>
<path d="M282.166 390.457C287.965 387.458 315.166 378.326 311.285 400.406C307.402 422.488 285.806 444.813 275.13 434.378C264.453 423.942 261.055 401.376 282.166 390.457Z" fill="#4C32CC"/>
<path d="M219.491 237.172C225.29 234.172 252.491 225.038 248.608 247.12C244.726 269.201 223.131 291.525 212.455 281.09C201.778 270.657 198.382 248.09 219.491 237.172Z" fill="#4C32CC"/>
<path d="M128.253 262.67C134.051 259.67 161.253 250.537 157.37 272.62C153.489 294.7 131.893 317.024 121.217 306.589C110.539 296.156 107.142 273.589 128.253 262.67Z" fill="#4C32CC"/>
<path d="M351.563 368.568C361.297 361.838 372.189 364.01 371.703 374.444C371.218 384.877 347.923 397.253 343.071 394.826C338.218 392.398 337.247 378.464 351.563 368.568Z" fill="#4C32CC"/>
<path d="M439.135 389.875C448.869 383.146 459.76 385.318 459.276 395.75C458.789 406.183 435.497 418.562 430.643 416.132C425.789 413.707 424.819 399.771 439.135 389.875Z" fill="#4C32CC"/>
<path d="M365.393 303.835C365.393 303.835 370.893 285.395 379.305 288.629C387.717 291.864 394.834 308.041 386.1 313.217C377.365 318.393 357.952 326.48 365.393 303.835Z" fill="#4C32CC"/>
<path d="M188.965 387.047C188.965 387.047 194.464 368.606 202.876 371.843C211.288 375.078 218.407 391.254 209.671 396.431C200.935 401.604 181.523 409.694 188.965 387.047Z" fill="#4C32CC"/>
<path d="M425.572 303.607C425.572 303.607 452.425 331.011 440.129 335.539C427.836 340.071 418.453 344.912 414.894 333.593C411.337 322.273 404.541 290.115 425.572 303.607Z" fill="#4C32CC"/>
<path d="M133.423 355.829C133.423 355.829 131.967 325.175 148.952 318.144C165.939 311.115 171.337 335.031 156.989 355.829C142.644 376.627 133.909 375.793 133.423 355.829Z" fill="#4C32CC"/>
<path d="M138.276 429.039C138.276 429.039 166.423 415.938 174.673 429.039C182.924 442.142 179.04 525.614 140.703 509.115C102.364 492.615 113.527 457.184 116.923 450.392C120.319 443.598 138.276 429.039 138.276 429.039Z" fill="#4C32CC"/>
<path d="M208.383 218.983C208.723 219.864 208.281 220.858 207.399 221.199L175.544 233.46C174.66 233.8 173.668 233.359 173.328 232.478L152.621 178.686C152.281 177.803 152.721 176.812 153.604 176.471L185.461 164.21C186.344 163.87 187.336 164.308 187.676 165.192L208.383 218.983Z" fill="#301593"/>
<path d="M203.917 215.757C204.201 216.497 203.833 217.334 203.089 217.618L176.337 227.915C175.595 228.202 174.763 227.831 174.476 227.09L157.085 181.914C156.801 181.174 157.171 180.341 157.915 180.054L184.667 169.757C185.408 169.47 186.241 169.839 186.528 170.581L203.917 215.757Z" fill="#EFEFEF"/>
<path d="M162.792 250.283L161.651 220.863C161.651 220.863 156.651 203.437 159.079 198.581C161.51 193.725 168.507 199.295 168.651 215.72C168.651 215.72 184.502 216.579 185.216 229.719L196.768 225.291L194.786 247.428L162.792 250.283Z" fill="#FC4F5A"/>
<path d="M275.268 169.659C275.268 177.508 268.905 183.871 261.057 183.871C253.209 183.871 246.845 177.508 246.845 169.659C246.845 161.811 253.209 155.448 261.057 155.448C268.905 155.448 275.268 161.811 275.268 169.659Z" fill="#301593"/>
<path d="M282.381 168.441L269.527 166.941L269.723 165.237L282.578 166.737L282.381 168.441Z" fill="#301593"/>
<path d="M259.311 193.197C263.663 194.311 267.728 191.613 269.851 187.973C270.395 187.043 268.953 186.205 268.412 187.131C266.675 190.11 263.368 192.515 259.753 191.59C258.712 191.323 258.269 192.93 259.311 193.197Z" fill="#2B3990"/>
<path d="M207.907 269.26C183.176 294.936 164.93 330.892 161.708 366.436C161.611 367.507 163.278 367.498 163.375 366.436C166.554 331.364 184.68 295.779 209.086 270.44C209.831 269.666 208.654 268.486 207.907 269.26Z" fill="#F7941E"/>
<path d="M209.215 444.161C220.769 427.447 230.101 407.159 232.043 386.819C232.146 385.748 230.478 385.759 230.377 386.819C228.461 406.88 219.17 426.836 207.777 443.32C207.163 444.207 208.609 445.039 209.215 444.161Z" fill="#F7941E"/>
<path d="M219.805 171.055C219.805 175.344 216.329 178.82 212.04 178.82C207.753 178.82 204.277 175.344 204.277 171.055C204.277 166.767 207.753 163.291 212.04 163.291C216.329 163.291 219.805 166.767 219.805 171.055Z" fill="#301593"/>
<path d="M196.769 146.599C196.769 149.958 194.046 152.68 190.688 152.68C187.329 152.68 184.608 149.958 184.608 146.599C184.608 143.24 187.329 140.518 190.688 140.518C194.046 140.518 196.769 143.24 196.769 146.599Z" fill="#301593"/>
<path d="M222.74 103.548C222.74 113.744 214.472 122.01 204.276 122.01C194.079 122.01 185.812 113.744 185.812 103.548C185.812 93.3503 194.079 85.0836 204.276 85.0836C214.472 85.0836 222.74 93.3503 222.74 103.548Z" fill="#301593"/>
<path d="M170.305 122.01C170.305 122.904 169.581 123.628 168.688 123.628C167.793 123.628 167.069 122.904 167.069 122.01C167.069 121.117 167.793 120.392 168.688 120.392C169.581 120.392 170.305 121.117 170.305 122.01Z" fill="#301593"/>
<path d="M155.423 155.448C155.423 165.633 147.167 173.889 136.982 173.889C126.798 173.889 118.542 165.633 118.542 155.448C118.542 145.264 126.798 137.006 136.982 137.006C147.167 137.006 155.423 145.264 155.423 155.448Z" fill="#301593"/>
<path d="M177.1 50.5104C177.1 68.1997 162.76 82.5397 145.07 82.5397C127.38 82.5397 113.041 68.1997 113.041 50.5104C113.041 32.8197 127.38 18.4811 145.07 18.4811C162.76 18.4811 177.1 32.8197 177.1 50.5104Z" fill="#301593"/>
<path d="M405.002 350.422C405.326 384.931 405.649 419.442 405.973 453.95C405.983 455.025 407.65 455.026 407.639 453.95C407.315 419.442 406.993 384.931 406.669 350.422C406.659 349.347 404.993 349.346 405.002 350.422Z" fill="#F7941E"/>
<path d="M60.944 346.393C57.332 339.185 54.0907 331.823 51.2307 324.285C50.4747 322.296 47.252 323.157 48.016 325.171C50.9773 332.977 54.3253 340.611 58.0667 348.076C59.0293 349.997 61.904 348.309 60.944 346.393Z" fill="#231F20"/>
<path d="M452.217 364.659C411.063 429.539 339.403 469.192 262.596 469.948C184.943 470.709 111.396 428.78 70.4135 363.281C69.2761 361.464 66.3921 363.135 67.5361 364.964C107.252 428.44 175.889 469.051 250.689 473.023C324.503 476.945 397.924 442.779 442.732 384.079C447.112 378.341 451.229 372.437 455.096 366.341C456.251 364.52 453.365 362.849 452.217 364.659Z" fill="#231F20"/>
<path d="M479.775 300.336C475.448 317.029 469.353 333.068 461.499 348.423C460.523 350.333 463.399 352.02 464.377 350.105C472.359 334.501 478.591 318.192 482.989 301.221C483.529 299.14 480.313 298.256 479.775 300.336Z" fill="#231F20"/>
<path d="M486.675 245.124C486.604 257.58 485.588 269.929 483.587 282.225C483.244 284.326 486.456 285.229 486.801 283.11C488.849 270.526 489.936 257.877 490.008 245.124C490.02 242.974 486.687 242.976 486.675 245.124Z" fill="#231F20"/>
<path d="M411.857 77.7272C417.599 82.8846 423.077 88.3099 428.295 93.9979C429.751 95.5846 432.102 93.2206 430.653 91.6406C425.434 85.9526 419.957 80.5286 414.214 75.3699C412.619 73.9392 410.254 76.2886 411.857 77.7272Z" fill="#231F20"/>
<path d="M142.596 54.47C201.818 17.842 277.254 10.1353 342.333 35.2727C344.341 36.0487 345.202 32.8247 343.22 32.058C277.37 6.62334 200.818 14.542 140.913 51.5913C139.09 52.7193 140.762 55.6033 142.596 54.47Z" fill="#231F20"/>
<path d="M72.1438 124.298C75.7265 118.706 79.5372 113.275 83.5745 108.002C84.8812 106.295 81.9838 104.637 80.6972 106.319C76.6585 111.593 72.8478 117.022 69.2665 122.615C68.1025 124.431 70.9892 126.102 72.1438 124.298Z" fill="#231F20"/>
</svg>
