<svg width="535" height="565" viewBox="0 0 535 565" fill="none" xmlns="http://www.w3.org/2000/svg">
<path d="M206.609 563.468H0.814636V176.951H206.609V563.468Z" stroke="#F7941E" stroke-width="1.33333" stroke-miterlimit="10"/>
<path d="M271.375 256.268H133.487V28.6106H271.375V256.268Z" stroke="#F7941E" stroke-width="1.33333" stroke-miterlimit="10"/>
<path d="M484.735 223.336H234.816V113.227H484.735V223.336Z" stroke="#F7941E" stroke-width="1.33333" stroke-miterlimit="10"/>
<path d="M453.2 374.264H319.429V26.5212H453.2V374.264Z" stroke="#F7941E" stroke-width="1.33333" stroke-miterlimit="10"/>
<path d="M536.716 416.195H401.959V201.872H536.716V416.195Z" stroke="#F7941E" stroke-width="1.33333" stroke-miterlimit="10"/>
<path d="M401.959 490.344H0.815979V305.432H401.959V490.344Z" stroke="#F7941E" stroke-width="1.33333" stroke-miterlimit="10"/>
<path d="M90.6533 372.235H3.948V111.139H90.6533V372.235Z" stroke="#F7941E" stroke-width="1.33333" stroke-miterlimit="10"/>
<path d="M246.638 535.936C246.638 535.936 94.0154 504.847 142.062 383.311C190.111 261.779 232.507 266.082 180.219 202.456C127.933 138.829 57.274 76.6495 133.586 0.337524L322.95 4.57751C322.95 4.57751 229.679 58.2775 317.299 150.135C404.917 241.993 317.685 339.103 248.878 389.096C180.07 439.09 180.154 471.948 246.638 535.936Z" fill="#FEB52D"/>
<path d="M420.143 404.146V498.896L364.518 500.79L363.078 418.784L402.911 395.046L420.143 404.146Z" fill="#FE6D67"/>
<path d="M420.143 404.146C420.143 404.146 397.815 431.639 369.709 441.124V500.612L364.518 500.79L363.078 418.784L420.143 404.146Z" fill="#C16359"/>
<path d="M144.799 368.605L134.401 382.041L95.5674 302.155C95.5674 302.155 97.1954 292.08 95.5674 284.933C93.9448 277.784 96.7061 272.26 99.1461 269.497C101.578 266.736 104.015 259.668 98.8981 260.075C93.7808 260.479 85.7394 265.599 84.7661 274.453C84.7661 274.453 70.9554 242.608 68.0288 241.633C65.1021 240.657 64.5341 247.807 69.6541 262.999C69.6541 262.999 57.9554 236.433 54.2994 237.976C50.6434 239.521 55.5181 255.931 60.7154 264.787C60.7154 264.787 50.2368 247.564 47.6381 249.269C45.0394 250.975 56.2501 272.584 56.2501 272.584C56.2501 272.584 46.4994 258.043 44.1461 261.211C41.7888 264.379 49.9114 288.995 66.6488 308.653C66.6488 308.653 92.8074 463.495 117.505 477.793C142.203 492.092 198.961 416.269 198.961 416.269L144.799 368.605Z" fill="#FE6D67"/>
<path d="M62.7578 288.475C62.7578 288.475 75.2685 286.749 78.7165 292.787C78.7165 292.787 77.9631 285.023 82.5965 278.555C82.5965 278.555 76.7765 283.298 77.3151 289.985C77.3151 289.985 73.5391 285.347 62.7578 288.475Z" fill="#0C1016"/>
<path d="M149.807 373.014H141.391H141.389C141.393 373.037 152.321 422.824 180.07 439.09C191.151 426.694 198.961 416.269 198.961 416.269L149.807 373.014Z" fill="#C16359"/>
<path d="M315.583 333.396H252.687V196.32H315.583V333.396Z" fill="#FE6D67"/>
<path d="M252.688 245.337C252.688 245.337 267.529 255.938 282.706 254.412C297.885 252.882 252.688 226.878 252.688 226.878V245.337Z" fill="#C16359"/>
<path d="M250.646 193.92C250.646 193.92 245.875 183.316 235.998 186.563C226.122 189.811 231.82 210.688 254.755 207.904C277.684 205.12 250.646 193.92 250.646 193.92Z" fill="#FE6D67"/>
<path d="M243.182 189.889C240.828 188.789 238.393 188.42 236.313 190.291C234.589 191.845 235.046 194.429 235.942 196.267C236.196 196.785 236.966 196.332 236.718 195.815C235.93 194.199 235.652 192.357 236.945 190.924C238.505 189.2 240.93 189.821 242.732 190.661C243.25 190.905 243.704 190.133 243.182 189.889Z" fill="#090000"/>
<path d="M318.383 193.92C318.383 193.92 323.153 183.316 333.031 186.563C342.907 189.811 337.208 210.688 314.276 207.904C291.341 205.12 318.383 193.92 318.383 193.92Z" fill="#FE6D67"/>
<path d="M326.297 190.661C328.261 189.745 330.321 189.339 332.084 190.924C333.492 192.193 333.037 194.331 332.313 195.815C332.062 196.332 332.833 196.785 333.086 196.267C334.062 194.263 334.302 192.043 332.716 190.291C330.873 188.256 328.005 188.881 325.846 189.889C325.325 190.133 325.776 190.905 326.297 190.661Z" fill="#090000"/>
<path d="M315.583 231.986V267.707C315.583 267.707 309.607 255.1 286.886 254.459L315.583 231.986Z" fill="#C16359"/>
<path d="M248.154 150.378V207.832C248.154 207.832 250.063 254.84 288.154 254.46C288.154 254.46 320 253.183 322.719 209.871V161.122C322.719 161.122 322.56 140.392 294.011 138.871C255.796 136.832 248.154 150.378 248.154 150.378Z" fill="#FE6D67"/>
<path d="M273.313 267.131C276.839 270.699 280.362 274.266 283.889 277.831C284.063 278.007 284.346 278.001 284.518 277.831C288.471 274.011 292.417 270.189 296.367 266.369C296.785 265.965 296.149 265.333 295.734 265.734C291.823 269.521 287.909 273.306 284.001 277.093C283.911 277.178 284.734 277.418 284.261 276.935C283.914 276.587 283.567 276.237 283.225 275.887C282.061 274.709 280.894 273.529 279.729 272.35C277.802 270.399 275.873 268.449 273.946 266.498C273.539 266.086 272.909 266.721 273.313 267.131Z" fill="#090000"/>
<path d="M249.172 147.788C249.172 147.788 261.18 147.831 266.38 158.787C271.581 169.742 288.159 181.675 308.623 176.664C308.623 176.664 280.213 182.29 268.047 158.574C255.557 134.227 244.245 144.306 244.245 144.306L249.172 147.788Z" fill="#090000"/>
<path d="M249.172 141.927C249.172 141.927 261.18 141.971 266.38 152.926C271.581 163.882 288.159 175.814 308.623 170.803C308.623 170.803 280.213 176.431 268.047 152.714C255.557 128.367 244.245 138.446 244.245 138.446L249.172 141.927Z" fill="#090000"/>
<path d="M291.961 227.565C288.865 232.588 281.089 232.626 277.997 227.565C277.398 226.582 275.849 227.481 276.45 228.469C280.256 234.7 289.696 234.646 293.508 228.469C294.117 227.482 292.568 226.585 291.961 227.565Z" fill="#090000"/>
<path d="M252.659 273.659C252.659 273.659 253.197 297.667 284.76 307.376C284.76 307.376 313.353 298.205 315.513 273.659C315.513 273.659 414.513 270.961 430.695 398.285C430.695 398.285 395.088 420.941 363.077 418.785L364.519 500.791H219.867L220.648 379.939L199.792 421.3C199.792 421.3 153.396 403.319 139.008 374.904C139.008 374.904 164.539 277.435 252.659 273.659Z" fill="#0C1016"/>
<path d="M283.932 314.582C282.982 314.817 279.13 312.461 278.252 312.062C276.339 311.193 274.476 310.207 272.646 309.179C268.956 307.113 265.508 304.638 262.328 301.858C257.646 297.771 253.792 292.814 250.922 287.31C248.842 283.313 247.172 278.715 246.5 274.101C245.87 274.159 245.232 274.21 244.607 274.278C246.456 290.123 259.406 303.815 272.626 311.222C276.227 313.239 280.039 314.869 283.899 316.317C284.307 316.47 285.036 316.143 285.416 316.033C288.211 315.222 290.919 314.109 293.55 312.869C303.422 308.225 311.919 300.859 317.58 291.515C320.815 286.182 322.836 280.257 323.987 274.161C323.356 274.091 322.76 274.031 322.192 273.978C318.258 293.307 303.416 309.769 283.932 314.582Z" fill="white"/>
<path d="M257.87 189.695C257.87 189.695 263.539 183.945 269.124 182.359C274.708 180.777 275.348 185.193 273.375 186.778C271.787 188.054 270.083 185.402 257.87 189.695Z" fill="#090000"/>
<path d="M269.042 197.113C269.042 198.401 267.995 199.447 266.708 199.447C265.419 199.447 264.375 198.401 264.375 197.113C264.375 195.825 265.419 194.78 266.708 194.78C267.995 194.78 269.042 195.825 269.042 197.113Z" fill="#090000"/>
<path d="M312.997 190.155C312.997 190.155 307.331 184.404 301.745 182.82C296.161 181.238 295.524 185.654 297.495 187.238C299.08 188.514 300.787 185.863 312.997 190.155Z" fill="#090000"/>
<path d="M301.828 197.573C301.828 198.862 302.872 199.907 304.164 199.907C305.451 199.907 306.495 198.862 306.495 197.573C306.495 196.285 305.451 195.239 304.164 195.239C302.872 195.239 301.828 196.285 301.828 197.573Z" fill="#090000"/>
<path d="M283.453 199.21C281.942 204.919 280.437 210.63 278.932 216.342C278.786 216.903 279.208 217.472 279.794 217.472H287.524C288.682 217.472 288.682 215.683 287.524 215.683H279.794C280.084 216.062 280.369 216.439 280.658 216.816C282.164 211.106 283.669 205.396 285.174 199.684C285.472 198.568 283.748 198.094 283.453 199.21Z" fill="#090000"/>
<path d="M309.182 215.32C309.182 219.275 305.974 222.481 302.021 222.481C298.068 222.481 294.862 219.275 294.862 215.32C294.862 211.365 298.068 208.16 302.021 208.16C305.974 208.16 309.182 211.365 309.182 215.32Z" fill="#C16359"/>
<path d="M272.167 215.32C272.167 219.275 268.959 222.481 265.003 222.481C261.047 222.481 257.847 219.275 257.847 215.32C257.847 211.365 261.047 208.16 265.003 208.16C268.959 208.16 272.167 211.365 272.167 215.32Z" fill="#C16359"/>
<path d="M281.255 195.079C280.297 212.869 254.605 212.869 253.646 195.079C253.226 187.273 260.259 181.663 267.453 181.277C275.258 180.857 280.867 187.886 281.255 195.079C281.313 196.149 282.979 196.154 282.922 195.079C281.849 175.15 253.053 175.151 251.979 195.079C251.507 203.829 259.398 210.117 267.453 210.551C276.201 211.022 282.489 203.133 282.922 195.079C282.979 194.005 281.313 194.01 281.255 195.079Z" fill="white"/>
<path d="M316.036 195.079C315.078 212.867 289.388 212.869 288.43 195.079C288.008 187.274 295.039 181.663 302.231 181.277C310.036 180.857 315.648 187.886 316.036 195.079C316.094 196.149 317.76 196.154 317.703 195.079C316.628 175.151 287.836 175.15 286.763 195.079C286.291 203.827 294.176 210.117 302.231 210.551C310.979 211.022 317.27 203.133 317.703 195.079C317.76 194.005 316.094 194.01 316.036 195.079Z" fill="white"/>
<path d="M279.617 187.777H290.096C291.17 187.777 291.17 186.111 290.096 186.111H279.617C278.542 186.111 278.542 187.777 279.617 187.777Z" fill="white"/>
<path d="M250.818 135.527C243.883 131.369 229.927 137.412 228.938 148.665C227.031 170.387 248.383 190.455 248.383 190.455C248.383 190.455 248.154 160.04 249.164 155.641C261.391 151.071 279.618 170.971 295.227 175.284C310.834 179.596 318.419 165.817 318.419 165.817C315.951 190.875 319.88 202.093 319.88 202.093C319.88 202.093 337.974 190.092 335.963 156.999C334.219 128.28 277.123 110.219 261.766 110.951C246.408 111.683 250.818 135.527 250.818 135.527Z" fill="#090000"/>
<g opacity="0.800003">
<path d="M211.187 294.95C211.187 294.95 216.515 293.909 215.641 292.312C214.769 290.712 204.827 292.293 199.922 297.06C195.015 301.828 194.409 305.829 196.193 306.01C197.971 306.193 200.218 299.988 203.433 298.494C206.646 297.001 211.187 294.95 211.187 294.95Z" fill="#FE6D67"/>
<path d="M192.422 308.65C192.422 308.65 188.141 313.808 190.37 314.535C192.599 315.262 192.534 311.724 194.394 310.696C196.253 309.672 194.971 305.448 192.422 308.65Z" fill="#FE6D67"/>
</g>
<g opacity="0.800003">
<path d="M391.375 323.348C391.375 323.348 393.274 328.429 394.706 327.305C396.14 326.181 392.946 316.636 387.438 312.58C381.93 308.525 377.883 308.584 377.998 310.372C378.112 312.16 384.599 313.356 386.602 316.277C388.602 319.204 391.375 323.348 391.375 323.348Z" fill="#FE6D67"/>
<path d="M374.776 307.087C374.776 307.087 368.981 303.714 368.633 306.03C368.279 308.347 371.76 307.704 373.079 309.368C374.396 311.034 378.349 309.075 374.776 307.087Z" fill="#FE6D67"/>
</g>
<path d="M284.294 381.154C284.294 391.426 275.969 399.754 265.698 399.754C255.425 399.754 247.1 391.426 247.1 381.154C247.1 370.883 255.425 362.555 265.698 362.555C275.969 362.555 284.294 370.883 284.294 381.154Z" fill="#FACE5E"/>
<path d="M293.646 351.079C293.646 354.811 290.619 357.839 286.886 357.839C283.151 357.839 280.125 354.811 280.125 351.079C280.125 347.343 283.151 344.318 286.886 344.318C290.619 344.318 293.646 347.343 293.646 351.079Z" fill="#FACE5E"/>
<path d="M205.508 341.512C205.508 350.226 198.44 357.29 189.727 357.29C181.011 357.29 173.948 350.226 173.948 341.512C173.948 332.797 181.011 325.733 189.727 325.733C198.44 325.733 205.508 332.797 205.508 341.512Z" fill="#FACE5E"/>
<path d="M357.581 362.555C357.581 364.659 355.878 366.36 353.775 366.36C351.674 366.36 349.971 364.659 349.971 362.555C349.971 360.453 351.674 358.749 353.775 358.749C355.878 358.749 357.581 360.453 357.581 362.555Z" fill="#FACE5E"/>
<path d="M349.971 305.217C349.971 309.048 346.865 312.152 343.034 312.152C339.203 312.152 336.099 309.048 336.099 305.217C336.099 301.388 339.203 298.281 343.034 298.281C346.865 298.281 349.971 301.388 349.971 305.217Z" fill="#FACE5E"/>
<path d="M420.143 391.18C420.143 395.801 416.398 399.541 411.779 399.541C407.159 399.541 403.417 395.801 403.417 391.18C403.417 386.561 407.159 382.816 411.779 382.816C416.398 382.816 420.143 386.561 420.143 391.18Z" fill="#FACE5E"/>
<path d="M338.737 458.491C338.737 466.638 332.133 473.242 323.986 473.242C315.838 473.242 309.234 466.638 309.234 458.491C309.234 450.344 315.838 443.74 323.986 443.74C332.133 443.74 338.737 450.344 338.737 458.491Z" fill="#FACE5E"/>
<path d="M261.758 454.553C261.758 456.725 259.995 458.491 257.821 458.491C255.646 458.491 253.883 456.725 253.883 454.553C253.883 452.379 255.646 450.616 257.821 450.616C259.995 450.616 261.758 452.379 261.758 454.553Z" fill="#FACE5E"/>
<path d="M60.4857 371.393C56.875 364.185 53.631 356.824 50.771 349.285C50.0164 347.296 46.7924 348.157 47.5577 350.17C50.519 357.977 53.8684 365.61 57.6084 373.076C58.5697 374.997 61.4457 373.309 60.4857 371.393Z" fill="#231F20"/>
<path d="M451.762 389.659C410.606 454.539 338.944 494.192 262.136 494.948C184.487 495.709 110.934 453.78 69.955 388.281C68.8176 386.464 65.9323 388.135 67.0763 389.964C106.79 453.44 175.434 494.051 250.23 498.023C324.043 501.944 397.466 467.78 442.276 409.079C446.656 403.341 450.772 397.437 454.639 391.341C455.794 389.52 452.908 387.849 451.762 389.659Z" fill="#231F20"/>
<path d="M479.318 325.335C474.991 342.029 468.896 358.068 461.04 373.423C460.063 375.333 462.939 377.02 463.918 375.105C471.902 359.501 478.132 343.191 482.531 326.22C483.071 324.139 479.856 323.255 479.318 325.335Z" fill="#231F20"/>
<path d="M486.216 270.121C486.145 282.578 485.131 294.928 483.128 307.225C482.785 309.326 485.996 310.229 486.341 308.11C488.392 295.525 489.477 282.874 489.549 270.121C489.561 267.972 486.228 267.973 486.216 270.121Z" fill="#231F20"/>
<path d="M201.56 190.009C201.56 212.604 183.243 230.921 160.645 230.921C138.052 230.921 119.735 212.604 119.735 190.009C119.735 167.414 138.052 149.096 160.645 149.096C183.243 149.096 201.56 167.414 201.56 190.009Z" fill="#0C1016"/>
<path d="M201.56 190.009C201.56 212.604 183.243 230.921 160.645 230.921C138.052 230.921 119.735 212.604 119.735 190.009C119.735 167.414 138.052 149.096 160.645 149.096C183.243 149.096 201.56 167.414 201.56 190.009Z" stroke="white" stroke-width="2.66667" stroke-miterlimit="10"/>
<path d="M136.75 177.082H186.89" stroke="white" stroke-width="1.33333" stroke-miterlimit="10"/>
<path d="M136.75 191.314H186.89" stroke="white" stroke-width="1.33333" stroke-miterlimit="10"/>
<path d="M136.75 205.548H186.89" stroke="white" stroke-width="1.33333" stroke-miterlimit="10"/>
</svg>
