<svg width="1272" height="1120" viewBox="0 0 1272 1120" fill="none" xmlns="http://www.w3.org/2000/svg">
<path d="M1097.38 693.261C1097.38 921.044 887.317 1105.7 628.19 1105.7C369.062 1105.7 159 921.044 159 693.261C159 465.479 369.062 280.827 628.19 280.827C887.317 280.827 1097.38 465.479 1097.38 693.261Z" fill="#F37C13"/>
<path d="M526.449 499.267C525.132 499.267 523.456 499.42 521.378 499.796C515.762 500.812 508.799 503.151 501.776 506.381C485.957 513.66 478.034 521.465 479.317 523.857C480.604 526.252 492.107 525.117 507.921 517.843C514.946 514.61 521.165 510.887 525.434 507.356C529.878 503.68 530.875 501.294 530.379 500.37C530.059 499.773 528.84 499.267 526.449 499.267ZM483.321 527.323C480.201 527.323 477.939 526.59 477.037 524.906C474.275 519.758 486.822 510.628 500.643 504.271C507.865 500.948 515.057 498.538 520.89 497.48C527.321 496.317 531.391 496.953 532.66 499.319C533.929 501.684 532.015 505.072 527.129 509.115C522.698 512.781 516.277 516.632 509.054 519.953C499.757 524.232 489.729 527.323 483.321 527.323" fill="black"/>
<path d="M667.452 463.575L659.661 466.396C648.165 470.545 635.101 465.231 630.619 454.583L619.807 428.934L613.342 413.587C608.862 402.939 614.598 390.841 626.075 386.692L633.864 383.871C644.147 380.151 655.711 384.035 661.25 392.516C661.891 393.518 662.464 394.56 662.927 395.684L680.185 436.68C684.686 447.328 678.95 459.426 667.452 463.575Z" fill="#FC958E"/>
<path d="M661.251 392.516C661.163 392.72 661.073 392.925 660.964 393.129C650.039 415.854 629.628 425.481 619.807 428.934L613.34 413.587C608.86 402.939 614.598 390.84 626.075 386.691L633.864 383.87C644.147 380.152 655.711 384.034 661.251 392.516Z" fill="#AF3333"/>
<path d="M844.438 738.31C841.614 740.7 838.768 743.031 835.92 745.3C804.539 770.11 771.987 786.235 739.725 795.983C726.749 799.906 713.796 802.808 700.995 804.791C644.325 813.702 590.345 805.323 547.137 792.815C528.245 787.359 511.408 781.105 497.306 775.157C468.285 762.936 450.852 752.043 450.852 752.043L481.351 716.504L515.247 677.018L593.435 585.891L597.893 580.7V514.83C597.054 497.869 601.16 484.441 607.537 473.896C624.087 446.47 655.932 438.458 655.932 438.458C656.682 438.234 657.434 438.028 658.182 437.824C674.205 433.573 692.633 433.308 710.816 435.147C733.987 437.456 756.74 443.138 773.577 448.206C789.997 453.132 800.787 457.465 800.787 457.465L787.702 530.609L738.29 522.637L727.499 520.9L728.448 540.56L730.103 575.059L741.624 591.512L774.13 637.903L827.095 713.54L844.438 738.31Z" fill="#FBF7EC"/>
<path d="M738.291 522.638L727.5 520.901L728.448 540.561C722.667 545.65 714.833 548.777 706.202 548.777C688.329 548.777 673.829 535.371 673.829 518.816C673.829 502.264 688.329 488.836 706.202 488.836C724.079 488.836 738.577 502.264 738.577 518.816C738.577 520.104 738.489 521.392 738.291 522.638Z" fill="#DC4A4A"/>
<path d="M544.378 706.836C544.378 723.39 529.879 736.797 512.003 736.797C497.792 736.797 485.698 728.317 481.351 716.503L515.248 677.019C531.6 678.511 544.378 691.305 544.378 706.836Z" fill="#DC4A4A"/>
<path d="M660.596 756.22C660.596 772.773 646.105 786.195 628.23 786.195C610.353 786.195 595.863 772.773 595.863 756.22C595.863 739.666 610.353 726.245 628.23 726.245C646.105 726.245 660.596 739.666 660.596 756.22Z" fill="#DC4A4A"/>
<path d="M768.73 720.115C768.73 736.668 754.238 750.088 736.363 750.088C718.487 750.088 703.997 736.668 703.997 720.115C703.997 703.561 718.487 690.14 736.363 690.14C754.238 690.14 768.73 703.561 768.73 720.115Z" fill="#DC4A4A"/>
<path d="M739.726 795.982C726.749 799.906 713.796 802.808 700.995 804.791C706.932 797.821 716.112 793.345 726.44 793.345C731.186 793.345 735.664 794.287 739.726 795.982Z" fill="#DC4A4A"/>
<path d="M547.136 792.815C528.246 787.358 511.407 781.106 497.307 775.159C502.514 771.806 508.869 769.845 515.689 769.845C530.96 769.845 543.76 779.654 547.136 792.815Z" fill="#DC4A4A"/>
<path d="M774.129 637.903C768.303 645.791 758.506 650.963 747.403 650.963C729.53 650.963 715.031 637.556 715.031 621.001C715.031 606.267 726.507 594.024 741.624 591.511L774.129 637.903Z" fill="#DC4A4A"/>
<path d="M844.438 738.31C841.614 740.7 838.768 743.031 835.92 745.3C829.432 739.822 825.373 731.954 825.373 723.187C825.373 719.814 825.969 716.565 827.095 713.54L844.438 738.31Z" fill="#DC4A4A"/>
<path d="M659.86 663.23C659.86 679.784 645.37 693.205 627.495 693.205C609.618 693.205 595.127 679.784 595.127 663.23C595.127 646.676 609.618 633.257 627.495 633.257C645.37 633.257 659.86 646.676 659.86 663.23Z" fill="#DC4A4A"/>
<path d="M638.52 558.321C638.52 574.875 624.044 588.301 606.169 588.301C601.644 588.301 597.341 587.444 593.436 585.891L597.893 580.7V529.321C600.542 528.688 603.321 528.34 606.169 528.34C624.044 528.34 638.52 541.767 638.52 558.321Z" fill="#DC4A4A"/>
<path d="M662.067 452.048C662.067 468.602 647.567 482.03 629.694 482.03C621.108 482.03 613.34 478.943 607.538 473.896C624.088 446.469 655.933 438.458 655.933 438.458C656.683 438.234 657.433 438.029 658.183 437.823C660.678 442.055 662.067 446.898 662.067 452.048Z" fill="#DC4A4A"/>
<path d="M773.577 448.206C769.186 459.958 757.159 468.398 742.99 468.398C725.117 468.398 710.618 454.971 710.618 438.417C710.618 437.313 710.682 436.231 710.816 435.148C733.987 437.457 756.74 443.137 773.577 448.206Z" fill="#DC4A4A"/>
<path d="M607.89 473.344C601.314 483.972 597.033 497.562 597.894 514.83V554.459L578.098 563.758L569.536 567.784L556.846 542.155L540.735 509.579L551.727 502.692L604.534 469.502L616.651 461.9L616.673 461.981C613.494 465.333 610.516 469.094 607.89 473.344Z" fill="#C2B28C"/>
<path d="M537.78 789.974L522.265 807.919L363.088 991.974L323.872 1037.32L291.807 1022.77L301.628 1007.63C198.856 987.028 191 950.651 191 950.651C191 930.641 215.231 933.688 215.231 933.688L233.127 934.014L310.345 935.506L436.686 780.39L456.9 755.578C468.948 762.343 498.212 777.589 537.78 789.974Z" fill="#FC958E"/>
<path d="M363.093 991.966L323.874 1037.33L291.804 1022.78L301.621 1007.63C198.863 987.02 191.009 950.652 191.009 950.652C191.009 930.649 215.225 933.68 215.225 933.68L233.135 934.018C229.048 944.298 231.536 972.376 362.492 991.868C362.701 991.893 362.884 991.918 363.093 991.966Z" fill="black"/>
<path d="M1122.39 731.831L1115.64 732.036L1077.61 733.18L1041.22 734.264L1012.18 749.631L854.68 833.055C793.152 863.363 769.605 831.85 769.605 831.85L757.137 812.414L745.419 794.163C778.61 783.374 812.021 765.716 844.064 738.595L848.984 742.54L850.749 743.951L928.299 705.264L991.192 673.871L1052.34 643.34L1077.21 665.759L1056.93 678.489C1056.93 678.489 1082.6 681.004 1105.79 690.488C1114.88 694.226 1123.6 699.03 1130.25 705.161C1153.79 726.987 1122.39 731.831 1122.39 731.831Z" fill="#FC958E"/>
<path d="M1122.38 731.837L1115.63 732.03L1115.84 731.231C1115.84 731.231 1129.58 718.502 1070.02 705.166C1032.77 696.827 1006.01 683.031 991.191 673.865L1052.35 643.341L1077.22 665.769L1056.93 678.496C1056.93 678.496 1106.67 683.346 1130.24 705.166C1153.8 726.987 1122.38 731.837 1122.38 731.837Z" fill="black"/>
<path d="M727.492 522.081C727.199 522.081 726.909 521.988 726.671 521.803C725.36 521.173 716.526 520.424 708.665 520.059C707.965 520.027 707.423 519.472 707.458 518.822C707.492 518.191 708.056 517.702 708.729 517.702C708.749 517.702 708.77 517.702 708.794 517.703C720.701 518.254 727.293 519.051 728.392 520.069C728.89 520.528 728.888 521.275 728.392 521.736C728.142 521.965 727.818 522.081 727.492 522.081Z" fill="black"/>
<path d="M961.267 566.864C967.336 586.872 951.47 585.931 951.47 585.931C954.161 595.946 941.01 598.767 941.01 598.767C934.588 601.26 925.474 594.373 925.474 594.373L919.492 593.227C909.893 591.205 895.924 576.673 895.924 576.673C877.386 555.379 821.422 535.349 798.338 527.768C793.461 526.153 790.04 525.112 788.761 524.723L799.331 465.681C800.413 465.988 801.472 466.314 802.553 466.621C891.531 493.249 953.17 542.155 953.17 542.155C967.668 554.05 961.267 566.864 961.267 566.864Z" fill="#FC958E"/>
<path d="M951.47 587.115C950.944 587.115 950.452 586.81 950.268 586.323C942.791 566.456 924.225 560.22 924.039 560.159C923.375 559.943 923.024 559.272 923.259 558.657C923.493 558.041 924.218 557.719 924.884 557.934C925.693 558.198 944.796 564.618 952.673 585.547C952.904 586.162 952.555 586.835 951.889 587.049C951.751 587.094 951.608 587.115 951.47 587.115Z" fill="black"/>
<path d="M961.264 568.042C960.809 568.042 960.369 567.817 960.138 567.421C952.986 555.074 935.88 547.048 935.708 546.97C935.078 546.678 934.826 545.969 935.139 545.387C935.454 544.802 936.22 544.57 936.845 544.86C937.58 545.198 954.852 553.307 962.384 566.305C962.717 566.879 962.484 567.595 961.863 567.903C961.672 567.998 961.466 568.042 961.264 568.042Z" fill="black"/>
<path d="M932.224 598.372C931.642 598.372 931.114 597.997 930.982 597.447C929.092 589.569 918.117 582.605 918.007 582.536C917.424 582.171 917.272 581.438 917.666 580.898C918.057 580.358 918.85 580.219 919.434 580.583C919.917 580.887 931.358 588.138 933.468 596.937C933.622 597.573 933.189 598.201 932.501 598.344C932.41 598.364 932.317 598.372 932.224 598.372Z" fill="black"/>
<path d="M568.123 564.922L556.559 571.196L540.912 579.678C529.106 584.786 519.881 582.048 514.079 578.696C509.885 576.245 506.664 572.626 504.611 568.438C494.924 548.675 480.491 501.2 480.491 501.2C457.518 489.327 460.563 469.93 460.563 469.93C449.088 456.484 448.402 433.676 448.402 433.676C447.057 418.347 457.871 420.535 457.871 420.535C465.97 422.088 484.197 453.99 484.197 453.99L505.471 457.751C492.982 446.796 497.704 430.549 497.704 430.549C504.854 420.597 511.872 435.229 511.872 435.229C522.001 448.042 515.248 477.759 515.248 477.759L532.813 524.027L541.463 519.409L544.732 517.651L568.123 564.922Z" fill="#FC958E"/>
<path d="M504.192 485.41C503.94 485.41 503.686 485.341 503.464 485.196C486.347 474.101 497.087 456.244 497.197 456.065C497.547 455.5 498.322 455.304 498.934 455.627C499.542 455.949 499.755 456.668 499.41 457.234C499.007 457.89 489.725 473.411 504.924 483.265C505.499 483.638 505.64 484.374 505.236 484.908C504.989 485.234 504.595 485.41 504.192 485.41Z" fill="black"/>
<path d="M451.505 387.249L463.613 385.734L485.54 468.47L476.049 470.29L451.505 387.249Z" fill="black"/>
<path d="M463.613 385.734L493.394 374.217L511.72 453.015L485.539 468.472L463.613 385.734Z" fill="#FBF7EC"/>
<path d="M493.394 374.217L482.268 375.127L451.504 387.248L463.613 385.733L493.394 374.217Z" fill="#C2B28C"/>
<path d="M597.893 514.831V515.854C592.994 518.592 587.278 520.165 581.144 520.165C568.078 520.165 556.823 513.012 551.726 502.691L604.535 469.502C605.772 470.687 606.896 471.975 607.889 473.344C601.313 483.971 597.032 497.563 597.893 514.831Z" fill="#AF3333"/>
<path d="M578.098 563.758L569.536 567.784L556.846 542.155C567.416 545.425 575.537 553.6 578.098 563.758Z" fill="#AF3333"/>
<path d="M595.389 363.61C595.389 363.61 575.644 359.063 577.172 339.061C577.172 339.061 578.481 313.605 600.515 306.532C600.515 306.532 609.024 301.884 617.97 310.169C617.97 310.169 626.697 315.422 628.006 301.884C628.006 301.884 638.26 248.546 681.676 246.726C681.676 246.726 707.419 247.333 706.111 272.994C706.111 272.994 707.637 280.67 698.91 291.379C698.91 291.379 692.585 299.461 700.002 306.532C700.002 306.532 707.419 310.776 713.528 303.098C713.528 303.098 739.709 277.64 762.399 304.714C762.399 304.714 782.254 327.343 761.309 346.133C761.309 346.133 758.037 349.164 754.327 351.385C754.327 351.385 749.31 354.215 751.49 357.649C751.49 357.649 752.8 361.892 760.652 360.881C760.652 360.881 782.036 368.359 777.888 388.967C777.888 388.967 774.18 419.475 732.946 411.798C732.946 411.798 719.418 436.447 683.857 421.9C683.857 421.9 669.895 413.414 663.35 399.272L617.914 379.673L595.389 363.61Z" fill="black"/>
<path d="M641.641 368.913C639.678 382.401 649.169 387.856 649.169 387.856C648.514 381.34 654.404 377.955 654.404 377.955C667.712 370.48 674.257 380.785 674.257 380.785C680.694 389.371 672.731 395.938 672.731 395.938C664.986 400.786 658.004 399.069 658.004 399.069C641.641 422.404 617.097 419.071 617.097 419.071C590.262 419.981 592.553 394.675 592.553 394.675C585.845 395.28 583.881 391.946 583.881 391.946C580.772 387.4 585.027 386.341 585.027 386.341C598.116 383.612 595.007 376.946 595.007 376.946C593.398 366.661 593.706 359.006 597.711 356.84C622.833 343.253 641.641 368.913 641.641 368.913Z" fill="#FC958E"/>
<path d="M615.133 377.627C615.133 379.51 613.485 381.036 611.452 381.036C609.418 381.036 607.77 379.51 607.77 377.627C607.77 375.744 609.418 374.217 611.452 374.217C613.485 374.217 615.133 375.744 615.133 377.627Z" fill="black"/>
<path d="M602.533 404.491C601.946 404.491 601.42 404.113 601.291 403.561C601.14 402.926 601.575 402.298 602.264 402.159C602.352 402.141 611.257 400.277 612.241 394.929C612.361 394.287 613.021 393.859 613.712 393.966C614.403 394.075 614.87 394.685 614.752 395.326C613.476 402.245 603.238 404.377 602.803 404.463C602.714 404.481 602.622 404.491 602.533 404.491Z" fill="black"/>
<path d="M654.406 392.816C654.334 392.816 654.266 392.811 654.195 392.798C653.597 392.692 653.207 392.157 653.319 391.601C653.389 391.27 655.061 383.448 660.151 381.461C662.419 380.577 664.926 380.967 667.611 382.609C668.121 382.921 668.261 383.554 667.924 384.025C667.588 384.494 666.904 384.623 666.398 384.313C664.334 383.053 662.578 382.734 661.01 383.344C657.006 384.903 655.503 391.918 655.487 391.988C655.387 392.477 654.923 392.816 654.406 392.816Z" fill="#DC4A4A"/>
<path d="M656.042 389.938C655.661 389.938 655.29 389.754 655.084 389.425C654.78 388.936 654.961 388.311 655.489 388.031C661.551 384.797 664.549 387.473 664.674 387.587C665.106 387.987 665.106 388.633 664.674 389.032C664.248 389.427 663.561 389.432 663.13 389.046C663.013 388.95 661.048 387.423 656.591 389.8C656.418 389.894 656.228 389.938 656.042 389.938Z" fill="#DC4A4A"/>
<path d="M537.78 789.974L522.265 807.918C488.965 800.438 457.849 789.054 436.686 780.39L456.9 755.578C468.948 762.343 498.212 777.589 537.78 789.974Z" fill="black"/>
<path d="M848.984 742.54C823.408 773.625 785.164 797.598 757.137 812.413L745.419 794.164C778.61 783.373 812.021 765.715 844.064 738.595L848.984 742.54Z" fill="black"/>
<path d="M802.553 466.621L798.338 527.767C793.461 526.153 790.041 525.112 788.761 524.723L799.332 465.681C800.413 465.988 801.472 466.314 802.553 466.621Z" fill="black"/>
<path d="M568.123 564.922L556.559 571.196L541.463 519.41L544.732 517.651L568.123 564.922Z" fill="black"/>
<path d="M460.562 469.936C460.562 469.936 467.213 449.681 475.395 450.287C475.395 450.287 487.177 453.62 482.923 467.864L479.977 478.775C479.977 478.775 484.231 479.382 486.195 482.715" fill="#FC958E"/>
<path d="M486.195 483.894C485.746 483.894 485.307 483.672 485.076 483.281C483.433 480.489 479.82 479.946 479.782 479.941L478.404 479.745L481.686 467.579C485.381 455.205 476.422 451.86 475.155 451.456C469.941 451.263 464.218 462.863 461.78 470.28C461.578 470.902 460.876 471.255 460.192 471.064C459.519 470.874 459.14 470.216 459.346 469.593C460.056 467.428 466.619 448.461 475.495 449.114L475.767 449.16C475.896 449.196 488.679 453.004 484.147 468.179L481.518 477.927C483.129 478.411 485.789 479.566 487.312 482.15C487.648 482.722 487.421 483.44 486.803 483.75C486.61 483.847 486.401 483.894 486.195 483.894Z" fill="black"/>
<path d="M505.472 457.75C492.98 446.797 497.704 430.548 497.704 430.548C504.854 420.596 511.872 435.229 511.872 435.229C518.061 443.059 517.947 457.2 516.921 467.014" fill="#FC958E"/>
<path d="M483.321 527.323C480.201 527.323 477.94 526.59 477.037 524.906C476.722 524.323 476.981 523.615 477.609 523.325C478.239 523.035 479.004 523.274 479.317 523.857C480.598 526.249 492.103 525.117 507.92 517.842C514.945 514.61 521.165 510.887 525.434 507.356C529.878 503.678 530.875 501.293 530.379 500.368C530.066 499.785 530.324 499.077 530.952 498.789C531.582 498.5 532.346 498.737 532.659 499.319C533.928 501.684 532.017 505.072 527.129 509.115C522.697 512.782 516.277 516.632 509.053 519.954C499.757 524.23 489.73 527.323 483.321 527.323Z" fill="black"/>
<path d="M406.909 358.335C406.711 358.335 406.508 358.298 406.317 358.219L396.138 354C395.488 353.731 395.227 353.081 395.556 352.549C395.883 352.016 396.676 351.802 397.324 352.07L407.503 356.287C408.153 356.558 408.414 357.208 408.087 357.74C407.854 358.117 407.39 358.335 406.909 358.335Z" fill="#DC4A4A"/>
<path d="M882.229 349.613C882.229 349.613 794.607 213.882 908.907 155.271C1023.21 96.6598 1110.89 172.437 1117.76 264.699C1124.64 356.962 971.884 463.446 808 400.292C870.195 407.816 882.229 349.613 882.229 349.613Z" fill="#ECBC6C"/>
<path d="M1021.67 1062.93H226.543C222.929 1062.93 220 1059.99 220 1056.37C220 1052.75 222.929 1049.81 226.543 1049.81H1021.67C1025.28 1049.81 1028.21 1052.75 1028.21 1056.37C1028.21 1059.99 1025.28 1062.93 1021.67 1062.93Z" fill="#8B8D8E"/>
</svg>
