<svg width="535" height="562" viewBox="0 0 535 562" fill="none" xmlns="http://www.w3.org/2000/svg">
<path d="M206.609 537.799H0.814636V151.281H206.609V537.799Z" stroke="#F7941E" stroke-width="1.33333" stroke-miterlimit="10"/>
<path d="M271.372 230.599H133.484V2.9426H271.372V230.599Z" stroke="#F7941E" stroke-width="1.33333" stroke-miterlimit="10"/>
<path d="M484.732 197.668H234.816V87.5586H484.732V197.668Z" stroke="#F7941E" stroke-width="1.33333" stroke-miterlimit="10"/>
<path d="M453.197 348.595H319.429V0.851918H453.197V348.595Z" stroke="#F7941E" stroke-width="1.33333" stroke-miterlimit="10"/>
<path d="M536.716 390.523H401.959V176.203H536.716V390.523Z" stroke="#F7941E" stroke-width="1.33333" stroke-miterlimit="10"/>
<path d="M401.959 464.675H0.815979V279.763H401.959V464.675Z" stroke="#F7941E" stroke-width="1.33333" stroke-miterlimit="10"/>
<path d="M90.6507 346.565H3.948V85.4679H90.6507V346.565Z" stroke="#F7941E" stroke-width="1.33333" stroke-miterlimit="10"/>
<path d="M216.599 133.835C216.599 133.835 202.294 134.159 196.771 165.531C191.239 196.903 189.615 214.784 151.091 221.936C112.568 229.087 92.0829 234.553 94.5229 262.707C96.9603 290.857 103.951 303.373 89.3176 313.939C74.6923 324.504 57.2443 329.652 59.1949 361.296C61.1429 392.94 110.13 423.933 158.46 387.739C206.792 351.541 281.132 233.64 281.132 233.64L272.68 199.829L259.632 184.875L236.268 166.668L216.599 133.835Z" fill="#301593"/>
<path d="M241.253 81.2773C241.253 81.2773 281.565 74.7746 302.37 99.6986C323.174 124.621 312.774 161.469 334.878 172.52C356.985 183.575 391.234 199.176 389.498 223.667C387.766 248.16 408.135 261.863 421.791 262.707C435.446 263.551 481.393 284.356 465.57 325.319C449.75 366.283 386.466 377.767 364.573 365.412C342.682 353.059 279.177 290.425 278.961 289.559C278.747 288.689 282.646 219.117 282.646 219.117L248.622 170.787L208.575 138.092C208.575 138.092 194.87 133.075 197.471 116.819C200.073 100.565 211.562 87.3466 241.253 81.2773Z" fill="#301593"/>
<path d="M208.575 138.092C208.575 138.092 205.797 207.822 220.229 218.683C231.351 227.051 256.209 218.683 256.209 218.683L248.838 255.962C248.838 255.962 282.218 271.134 299.99 255.962L294.789 180.972C294.789 180.972 311.69 172.955 310.826 161.468C309.958 149.982 297.521 149.651 287.985 159.402L287.417 169.703C287.417 169.703 279.393 166.454 281.133 149.547C281.133 149.547 256.643 160.382 208.575 138.092Z" fill="#FC4F5A"/>
<path d="M248.758 246.788C248.758 246.788 273.791 257.84 298.826 244.837L302.075 262.718C302.075 262.718 354.528 308.774 359.294 339.984C364.063 371.194 369.698 439.682 369.698 439.682C369.698 439.682 247.46 486.064 186.776 443.585C186.776 443.585 200.211 351.689 209.747 327.849C219.286 304.006 248.107 264.994 248.107 264.994L248.758 246.788Z" fill="#FDD03F"/>
<path d="M224.896 260.03C242.32 268.091 261.638 269.822 280.617 269.181C299.757 268.535 317.202 261.263 334.497 253.625C336.48 252.75 334.765 249.845 332.794 250.715C316.456 257.929 299.844 264.965 281.77 265.765C263.104 266.59 243.757 265.054 226.596 257.122C224.638 256.214 222.924 259.118 224.896 260.03Z" fill="white"/>
<path d="M190.909 268.969C198.218 270.802 205.242 273.505 212.338 276.027C219.685 278.637 227.081 280.434 234.737 281.863C250.122 284.739 265.583 286.762 281.245 286.997C296.447 287.222 311.682 285.965 326.562 282.793C341.562 279.593 356.141 273.835 369.898 267.11C371.854 266.155 370.143 263.249 368.198 264.203C354.654 270.819 340.395 276.285 325.666 279.542C310.703 282.849 295.307 283.834 280.013 283.607C264.649 283.377 249.477 281.202 234.387 278.379C227.154 277.026 220.187 275.214 213.234 272.774C206.127 270.283 199.122 267.553 191.802 265.715C189.695 265.187 188.797 268.441 190.909 268.969Z" fill="white"/>
<path d="M168.99 286.837C188.839 293.392 209.38 297.199 229.954 300.652C250.56 304.112 271.14 307.464 292.115 306.695C302.463 306.315 312.776 304.667 323.058 303.503C333.558 302.311 344.055 301.072 354.498 299.429C375.336 296.149 394.414 288.629 414.006 281.108C416.011 280.335 415.14 277.077 413.11 277.855C393.94 285.217 375.25 292.616 354.888 295.969C344.331 297.711 333.69 298.923 323.058 300.132C312.766 301.297 302.468 302.861 292.115 303.323C271.05 304.265 250.263 300.661 229.58 297.191C209.432 293.807 189.32 290.004 169.888 283.588C167.815 282.903 166.935 286.16 168.99 286.837Z" fill="white"/>
<path d="M143.974 298.806C179.245 318.167 218.883 325.573 258.613 328.498C300.961 331.611 343.769 329.275 384.755 317.447C392.485 315.218 399.95 312.165 407.662 309.914C414.234 307.998 421.277 307.155 427.222 303.527C429.07 302.397 427.378 299.479 425.518 300.615C418.141 305.117 408.599 305.915 400.505 308.761C390.583 312.25 380.607 315.253 370.351 317.599C349.182 322.447 327.487 325.691 305.769 326.367C284.745 327.022 263.63 325.846 242.714 323.771C222.455 321.762 202.343 317.945 182.925 311.789C170.026 307.705 157.534 302.405 145.677 295.895C143.769 294.847 142.07 297.759 143.974 298.806Z" fill="white"/>
<path d="M126.167 328.987C204.145 357.362 288.643 368.07 371.071 357.368C386.355 355.384 401.612 353.126 416.86 350.855C424.445 349.727 432.109 348.816 439.591 347.083C447.191 345.326 454.604 342.835 462.221 341.124C464.344 340.647 463.443 337.399 461.325 337.872C451.297 340.124 441.579 343.615 431.415 345.287C420.691 347.048 409.901 348.518 399.143 350.062C377.809 353.123 356.516 356.131 334.981 357.352C293.139 359.724 251.036 356.584 209.893 348.704C181.721 343.308 154.016 335.542 127.065 325.734C125.016 324.99 124.143 328.248 126.167 328.987Z" fill="white"/>
<path d="M126.167 358.523C204.145 386.899 288.643 397.606 371.071 386.907C386.355 384.923 401.612 382.663 416.86 380.391C424.445 379.263 432.109 378.357 439.591 376.622C447.191 374.862 454.604 372.374 462.221 370.661C464.344 370.186 463.443 366.935 461.325 367.411C451.297 369.662 441.579 373.153 431.415 374.826C420.691 376.589 409.901 378.054 399.143 379.601C377.809 382.661 356.516 385.67 334.981 386.889C293.139 389.262 251.036 386.123 209.893 378.241C181.721 372.845 154.016 365.081 127.065 355.274C125.016 354.529 124.143 357.787 126.167 358.523Z" fill="white"/>
<path d="M126.167 388.062C204.145 416.438 288.643 427.145 371.071 416.446C386.355 414.461 401.612 412.204 416.86 409.932C424.445 408.802 432.109 407.893 439.591 406.158C447.191 404.398 454.604 401.91 462.221 400.201C464.344 399.722 463.443 396.472 461.325 396.948C451.297 399.201 441.579 402.693 431.415 404.362C420.691 406.125 409.901 407.594 399.143 409.138C377.809 412.2 356.516 415.206 334.981 416.428C293.139 418.801 251.036 415.66 209.893 407.778C181.721 402.384 154.016 394.618 127.065 384.809C125.016 384.065 124.143 387.324 126.167 388.062Z" fill="white"/>
<path d="M126.167 417.6C204.145 445.975 288.643 456.683 371.071 445.983C386.355 444 401.612 441.74 416.86 439.47C424.445 438.34 432.109 437.43 439.591 435.696C447.191 433.936 454.604 431.45 462.221 429.739C464.344 429.262 463.443 426.012 461.325 426.486C451.297 428.74 441.579 432.23 431.415 433.9C420.691 435.662 409.901 437.131 399.143 438.675C377.809 441.736 356.516 444.746 334.981 445.966C293.139 448.338 251.036 445.199 209.893 437.318C181.721 431.918 154.016 424.156 127.065 414.348C125.016 413.603 124.143 416.862 126.167 417.6Z" fill="white"/>
<path d="M187.346 442.186C187.346 442.186 146.601 534.084 170.008 646.785H385.01C385.01 646.785 400.909 549.784 369.698 439.682C369.698 439.682 277.513 467.326 187.346 442.186Z" fill="white"/>
<path d="M230.184 173.363C227.889 178.629 225.594 183.893 223.298 189.159C223.104 189.605 223.214 190.281 223.797 190.383C226.901 190.923 230.005 191.463 233.109 192.002C234.16 192.185 234.609 190.579 233.552 190.395C230.448 189.855 227.344 189.315 224.24 188.777C224.406 189.183 224.572 189.593 224.738 190.001C227.033 184.734 229.328 179.47 231.624 174.205C232.048 173.229 230.612 172.381 230.184 173.363Z" fill="#262262"/>
<path d="M257.44 168.681C257.251 165.173 254.751 162.669 251.243 162.481C247.74 162.292 245.212 165.454 245.039 168.681C244.981 169.756 246.648 169.75 246.705 168.681C247.021 162.837 255.459 162.837 255.773 168.681C255.831 169.75 257.497 169.756 257.44 168.681Z" fill="#262262"/>
<path d="M235.637 201.172C238.547 205.172 244.587 204.779 246.593 200.101C247.01 199.125 245.575 198.275 245.153 199.26C243.701 202.648 239.345 203.449 237.077 200.331C236.45 199.472 235.003 200.301 235.637 201.172Z" fill="#262262"/>
<path d="M223.51 167.581C223.321 164.074 220.822 161.571 217.316 161.383C213.816 161.194 211.286 164.357 211.112 167.581C211.053 168.655 212.721 168.65 212.778 167.581C213.094 161.742 221.53 161.739 221.844 167.581C221.901 168.65 223.568 168.655 223.51 167.581Z" fill="#262262"/>
<path d="M228.091 172.828C228.091 174.112 227.047 175.156 225.763 175.156H196.378C195.097 175.156 194.05 174.112 194.05 172.828V156.517C194.05 155.233 195.097 154.191 196.378 154.191H225.763C227.047 154.191 228.091 155.233 228.091 156.517V172.828Z" stroke="white" stroke-width="2.66667" stroke-miterlimit="10"/>
<path d="M271.07 172.828C271.07 174.112 270.029 175.156 268.74 175.156H239.357C238.073 175.156 237.029 174.112 237.029 172.828V156.517C237.029 155.233 238.073 154.191 239.357 154.191H268.74C270.029 154.191 271.07 155.233 271.07 156.517V172.828Z" stroke="white" stroke-width="2.66667" stroke-miterlimit="10"/>
<path d="M228.091 163.111H236.93" stroke="white" stroke-width="2.66667" stroke-miterlimit="10"/>
<path d="M256.208 218.684C256.208 218.684 268.794 210.246 273.063 204.74C273.063 204.74 274.64 219.352 252.5 237.445L256.208 218.684Z" fill="#301593"/>
<path d="M183.711 451.693C202.536 458.87 223.038 462.575 242.943 465.005C286.579 470.331 331.448 465.774 372.255 449.047C373.236 448.646 372.807 447.033 371.812 447.441C330.968 464.179 286.583 468.398 242.943 463.338C223.22 461.053 202.792 457.191 184.154 450.086C183.148 449.702 182.718 451.314 183.711 451.693Z" fill="#231F20"/>
<path d="M275.075 480.103L272.442 535.4C272.391 536.474 274.058 536.47 274.109 535.4L276.742 480.103C276.793 479.028 275.126 479.032 275.075 480.103Z" fill="#231F20"/>
<path d="M249.128 536.233H299.696C300.769 536.233 300.769 534.566 299.696 534.566H249.128C248.053 534.566 248.053 536.233 249.128 536.233Z" fill="#231F20"/>
<path d="M211.88 480.103C210.852 498.792 196.83 515.094 181.27 523.888C180.335 524.416 181.175 525.856 182.111 525.328C198.223 516.22 212.486 499.398 213.547 480.103C213.606 479.028 211.939 479.034 211.88 480.103Z" fill="#231F20"/>
<path d="M336.409 480.103C339.121 501.415 354.193 520.248 375.237 525.411C376.281 525.668 376.723 524.06 375.679 523.804C355.341 518.815 340.655 500.372 338.075 480.103C337.941 479.052 336.273 479.039 336.409 480.103Z" fill="#231F20"/>
<path d="M190.667 418.549L189.973 422.848C189.973 422.848 225.364 426.828 275.909 393.559C275.909 393.559 314.159 424.723 368.297 423.416C368.297 423.416 282.115 381.196 281.133 381.196C280.145 381.196 261.492 383.48 261.028 383.26C260.568 383.04 207.315 403.701 206.639 404.027C205.967 404.351 190.667 418.549 190.667 418.549Z" fill="#AFACA3"/>
<path d="M248.107 264.995C248.107 264.995 208.877 240.289 172.901 255.893C136.924 271.499 121.317 356.889 126.085 384.199C130.855 411.509 170.735 445.753 282.135 386.365L318.88 353.268L348.06 358.677C348.06 358.677 340.161 326.575 309.143 329.272C292.544 330.715 273.145 344.532 273.145 344.532L202.025 356.501C202.025 356.501 208.38 327.075 218.148 310.819C227.913 294.564 248.107 264.995 248.107 264.995Z" fill="#FC4F5A"/>
<path d="M309.839 269.914C309.839 269.914 350.536 245.201 386.511 260.806C422.489 276.41 438.096 361.803 433.328 389.111C428.56 416.422 388.68 450.666 277.273 391.278L202.027 356.501C202.027 356.501 171.511 340.129 165.224 348.582C165.224 348.582 168.255 325.391 185.812 321.707C203.369 318.022 224.609 335.793 224.609 335.793L357.42 360.411C357.42 360.411 357.828 330.558 348.06 314.303C338.292 298.049 309.839 269.914 309.839 269.914Z" fill="#FC4F5A"/>
<path d="M210.967 323.948C206.253 334.106 201.965 345.254 201.193 356.501C201.174 356.764 201.358 357.112 201.606 357.221C212.278 361.93 222.929 366.698 233.558 371.504C246.669 377.432 260.399 382.897 272.855 390.149C273.786 390.692 274.625 389.25 273.697 388.709C256.943 378.957 238.309 371.786 220.645 363.877C214.678 361.205 208.707 358.546 202.726 355.905C201.465 355.348 206.373 340.229 207.025 338.29C208.566 333.706 210.371 329.176 212.407 324.789C212.857 323.82 211.421 322.974 210.967 323.948Z" fill="#231F20"/>
<path d="M357.641 359.608C338.399 356.041 319.159 352.473 299.917 348.908C298.866 348.712 298.418 350.319 299.474 350.515C318.715 354.08 337.955 357.648 357.198 361.215C358.249 361.411 358.697 359.803 357.641 359.608Z" fill="#231F20"/>
<path d="M60.483 345.724C56.8724 338.516 53.6324 331.153 50.7684 323.617C50.0124 321.628 46.7884 322.489 47.555 324.503C50.519 332.307 53.8657 339.941 57.6057 347.407C58.567 349.328 61.443 347.64 60.483 345.724Z" fill="#231F20"/>
<path d="M451.759 363.991C410.599 428.871 338.947 468.524 262.135 469.28C184.484 470.044 110.934 428.112 69.9536 362.612C68.8176 360.795 65.9323 362.466 67.0763 364.295C106.79 427.771 175.431 468.386 250.23 472.356C324.046 476.276 397.462 442.112 442.274 383.41C446.654 377.674 450.77 371.768 454.636 365.674C455.791 363.852 452.906 362.183 451.759 363.991Z" fill="#231F20"/>
<path d="M479.315 299.663C474.991 316.357 468.896 332.397 461.04 347.753C460.064 349.664 462.939 351.351 463.918 349.436C471.9 333.831 478.134 317.521 482.528 300.548C483.067 298.467 479.852 297.583 479.315 299.663Z" fill="#231F20"/>
<path d="M486.214 244.453C486.143 256.909 485.128 269.258 483.126 281.556C482.783 283.657 485.994 284.56 486.339 282.441C488.39 269.856 489.475 257.206 489.547 244.453C489.559 242.304 486.226 242.305 486.214 244.453Z" fill="#231F20"/>
<path d="M464.431 143.13C468.042 150.338 471.282 157.701 474.143 165.237C474.899 167.226 478.122 166.365 477.356 164.352C474.395 156.546 471.048 148.913 467.308 141.448C466.347 139.526 463.471 141.214 464.431 143.13Z" fill="#231F20"/>
<path d="M73.1549 124.863C114.315 59.9833 185.967 20.33 262.778 19.574C340.428 18.81 413.979 60.742 454.96 126.242C456.096 128.059 458.982 126.389 457.838 124.559C418.124 61.0833 349.482 20.4686 274.684 16.498C200.868 12.578 127.452 46.742 82.6403 105.445C78.2603 111.181 74.1443 117.086 70.2776 123.181C69.1229 125.002 72.0083 126.671 73.1549 124.863Z" fill="#231F20"/>
<path d="M45.5989 189.19C49.9229 172.495 56.0176 156.455 63.8736 141.101C64.8496 139.19 61.9749 137.503 60.9962 139.418C53.0136 155.022 46.7816 171.333 42.3856 188.305C41.8456 190.386 45.0616 191.27 45.5989 189.19Z" fill="#231F20"/>
<path d="M38.7005 244.401C38.7712 231.945 39.7858 219.596 41.7885 207.298C42.1312 205.197 38.9205 204.294 38.5752 206.413C36.5245 218.998 35.4392 231.648 35.3672 244.401C35.3552 246.55 38.6885 246.549 38.7005 244.401Z" fill="#231F20"/>
</svg>
